SplineFontDB: 3.0
FontName: Shabnam
FullName: Shabnam
FamilyName: Shabnam
Weight: Regular
Copyright: Copyright (c) 2003 by Bitstream, Inc. All Rights Reserved.\nDejaVu changes are in public domain\nCopyright (c) 2015 by Saber Rastikerdar. All Rights Reserved.
Version: 0.5.1
ItalicAngle: 0
UnderlinePosition: -100
UnderlineWidth: 100
Ascent: 1536
Descent: 512
InvalidEm: 0
LayerCount: 2
Layer: 0 1 "Back" 1
Layer: 1 1 "Fore" 0
XUID: [1021 502 1027637223 1088244]
UniqueID: 4178541
UseUniqueID: 1
FSType: 0
OS2Version: 1
OS2_WeightWidthSlopeOnly: 0
OS2_UseTypoMetrics: 1
CreationTime: 1431850356
ModificationTime: 1449434188
PfmFamily: 33
TTFWeight: 400
TTFWidth: 5
LineGap: 0
VLineGap: 0
Panose: 2 11 6 3 3 8 4 2 2 4
OS2TypoAscent: 2000
OS2TypoAOffset: 0
OS2TypoDescent: -1000
OS2TypoDOffset: 0
OS2TypoLinegap: 0
OS2WinAscent: 2000
OS2WinAOffset: 0
OS2WinDescent: 1000
OS2WinDOffset: 0
HheadAscent: 2000
HheadAOffset: 0
HheadDescent: -1000
HheadDOffset: 0
OS2SubXSize: 1331
OS2SubYSize: 1433
OS2SubXOff: 0
OS2SubYOff: 286
OS2SupXSize: 1331
OS2SupYSize: 1433
OS2SupXOff: 0
OS2SupYOff: 983
OS2StrikeYSize: 102
OS2StrikeYPos: 530
OS2Vendor: 'PfEd'
OS2CodePages: 600001ff.dfff0000
Lookup: 1 0 0 "'case' Case-Sensitive Forms in Latin lookup 0" { "'case' Case-Sensitive Forms in Latin lookup 0 subtable"  } ['case' ('DFLT' <'dflt' > 'latn' <'CAT ' 'ESP ' 'GAL ' 'dflt' > ) ]
Lookup: 6 1 0 "'ccmp' Glyph Composition/Decomposition lookup 2" { "'ccmp' Glyph Composition/Decomposition lookup 2 subtable"  } ['ccmp' ('arab' <'KUR ' 'SND ' 'URD ' 'dflt' > 'hebr' <'dflt' > 'nko ' <'dflt' > ) ]
Lookup: 6 0 0 "'ccmp' Glyph Composition/Decomposition lookup 3" { "'ccmp' Glyph Composition/Decomposition lookup 3 subtable"  } ['ccmp' ('cyrl' <'MKD ' 'SRB ' 'dflt' > 'grek' <'dflt' > 'latn' <'ISM ' 'KSM ' 'LSM ' 'MOL ' 'NSM ' 'ROM ' 'SKS ' 'SSM ' 'dflt' > ) ]

StartChar: exclam
Encoding: 33 33 1
Width: 771
GlyphClass: 2
Flags: W
LayerCount: 2
Fore
SplineSet
269.58 122.658 m 132,-1,1
 269.58 172.4 269.58 172.4 304.781 207.602 c 132,-1,2
 339.982 242.803 339.982 242.803 389.725 242.803 c 132,-1,3
 439.469 242.803 439.469 242.803 474.668 207.602 c 132,-1,4
 509.869 172.401 509.869 172.401 509.869 122.658 c 132,-1,5
 509.869 72.9141 509.869 72.9141 474.668 37.7139 c 132,-1,6
 439.469 2.5127 439.469 2.5127 389.725 2.5127 c 132,-1,7
 339.982 2.5127 339.982 2.5127 304.781 37.7139 c 132,-1,0
 269.58 72.9131 269.58 72.9131 269.58 122.658 c 132,-1,1
290.46 1403.42 m 1,8,-1
 481.28 1403.42 l 1,9,-1
 462.48 452.14 l 1,10,-1
 310.2 452.14 l 1,11,-1
 290.46 1403.42 l 1,8,-1
EndSplineSet
EndChar

StartChar: quotedbl
Encoding: 34 34 2
Width: 885
GlyphClass: 2
Flags: W
LayerCount: 2
Fore
SplineSet
310.482421875 1263.078125 m 1,0,-1
 310.482421875 793.547851562 l 1,1,-1
 166.662109375 793.547851562 l 1,2,-1
 166.662109375 1263.078125 l 1,3,-1
 310.482421875 1263.078125 l 1,0,-1
630.26953125 1263.078125 m 1,4,-1
 630.26953125 793.547851562 l 1,5,-1
 486.450195312 793.547851562 l 1,6,-1
 486.450195312 1263.078125 l 1,7,-1
 630.26953125 1263.078125 l 1,4,-1
EndSplineSet
EndChar

StartChar: numbersign
Encoding: 35 35 3
Width: 1613
GlyphClass: 2
Flags: W
LayerCount: 2
Fore
SplineSet
885.76171875 762.24609375 m 1,0,-1
 639.576171875 762.24609375 l 1,1,-1
 568.51171875 479.681640625 l 1,2,-1
 816.389648438 479.681640625 l 1,3,-1
 885.76171875 762.24609375 l 1,0,-1
758.862304688 1243.62011719 m 1,4,-1
 670.877929688 892.530273438 l 1,5,-1
 917.91015625 892.530273438 l 1,6,-1
 1006.74023438 1243.62011719 l 1,7,-1
 1142.09960938 1243.62011719 l 1,8,-1
 1054.96191406 892.530273438 l 1,9,-1
 1318.9140625 892.530273438 l 1,10,-1
 1318.9140625 762.24609375 l 1,11,-1
 1021.96777344 762.24609375 l 1,12,-1
 952.595703125 479.681640625 l 1,13,-1
 1221.62402344 479.681640625 l 1,14,-1
 1221.62402344 350.244140625 l 1,15,-1
 919.6015625 350.244140625 l 1,16,-1
 831.618164062 0 l 1,17,-1
 696.2578125 0 l 1,18,-1
 783.396484375 350.244140625 l 1,19,-1
 535.517578125 350.244140625 l 1,20,-1
 448.379882812 0 l 1,21,-1
 312.173828125 0 l 1,22,-1
 400.158203125 350.244140625 l 1,23,-1
 133.66796875 350.244140625 l 1,24,-1
 133.66796875 479.681640625 l 1,25,-1
 431.459960938 479.681640625 l 1,26,-1
 502.524414062 762.24609375 l 1,27,-1
 230.112304688 762.24609375 l 1,28,-1
 230.112304688 892.530273438 l 1,29,-1
 535.517578125 892.530273438 l 1,30,-1
 621.809570312 1243.62011719 l 1,31,-1
 758.862304688 1243.62011719 l 1,4,-1
EndSplineSet
EndChar

StartChar: dollar
Encoding: 36 36 4
Width: 1224
GlyphClass: 2
Flags: W
LayerCount: 2
Fore
SplineSet
585.431640625 -254.646484375 m 1,0,-1
 500.83203125 -254.646484375 l 1,1,-1
 499.986328125 -0 l 1,2,3
 411.15625 1.69140625 411.15625 1.69140625 322.326171875 20.7275390625 c 128,-1,4
 233.49609375 39.76171875 233.49609375 39.76171875 143.8203125 77.83203125 c 1,5,-1
 143.8203125 230.112304688 l 1,6,7
 230.112304688 175.967773438 230.112304688 175.967773438 318.518554688 148.471679688 c 128,-1,8
 406.92578125 120.977539062 406.92578125 120.977539062 500.83203125 120.130859375 c 1,9,-1
 500.83203125 505.908203125 l 1,10,11
 313.866210938 536.364257812 313.866210938 536.364257812 228.842773438 609.119140625 c 128,-1,12
 143.8203125 681.875976562 143.8203125 681.875976562 143.8203125 808.776367188 c 0,13,14
 143.8203125 946.673828125 143.8203125 946.673828125 236.034179688 1026.19824219 c 128,-1,15
 328.248046875 1105.72167969 328.248046875 1105.72167969 500.83203125 1117.56640625 c 1,16,-1
 500.83203125 1316.37597656 l 1,17,-1
 585.431640625 1316.37597656 l 1,18,-1
 585.431640625 1120.10351562 l 1,19,20
 664.110351562 1116.71972656 664.110351562 1116.71972656 737.711914062 1103.60742188 c 128,-1,21
 811.314453125 1090.49414062 811.314453125 1090.49414062 881.532226562 1067.65234375 c 1,22,-1
 881.532226562 919.6015625 l 1,23,24
 811.314453125 955.133789062 811.314453125 955.133789062 737.2890625 974.591796875 c 128,-1,25
 663.263671875 994.049804688 663.263671875 994.049804688 585.431640625 997.43359375 c 1,26,-1
 585.431640625 636.192382812 l 1,27,28
 777.473632812 606.581054688 777.473632812 606.581054688 867.99609375 530.442382812 c 128,-1,29
 958.517578125 454.301757812 958.517578125 454.301757812 958.517578125 322.326171875 c 0,30,31
 958.517578125 179.3515625 958.517578125 179.3515625 862.497070312 96.8671875 c 128,-1,32
 766.475585938 14.3818359375 766.475585938 14.3818359375 585.431640625 1.69140625 c 1,33,-1
 585.431640625 -254.646484375 l 1,0,-1
500.83203125 651.419921875 m 1,34,-1
 500.83203125 998.280273438 l 1,35,36
 402.696289062 987.282226562 402.696289062 987.282226562 351.08984375 942.444335938 c 128,-1,37
 299.484375 897.606445312 299.484375 897.606445312 299.484375 823.158203125 c 0,38,39
 299.484375 750.40234375 299.484375 750.40234375 347.283203125 709.793945312 c 128,-1,40
 395.08203125 669.185546875 395.08203125 669.185546875 500.83203125 651.419921875 c 1,34,-1
585.431640625 488.98828125 m 1,41,-1
 585.431640625 122.669921875 l 1,42,43
 692.874023438 137.051757812 692.874023438 137.051757812 747.44140625 183.58203125 c 128,-1,44
 802.0078125 230.112304688 802.0078125 230.112304688 802.0078125 306.251953125 c 0,45,46
 802.0078125 380.700195312 802.0078125 380.700195312 749.978515625 424.692382812 c 128,-1,47
 697.950195312 468.68359375 697.950195312 468.68359375 585.431640625 488.98828125 c 1,41,-1
EndSplineSet
EndChar

StartChar: percent
Encoding: 37 37 5
Width: 1829
GlyphClass: 2
Flags: W
LayerCount: 2
Fore
SplineSet
1259.69433594 555.822265625 m 0,0,1
 1186.09179688 555.822265625 1186.09179688 555.822265625 1144.21484375 493.217773438 c 128,-1,2
 1102.33789062 430.614257812 1102.33789062 430.614257812 1102.33789062 318.942382812 c 0,3,4
 1102.33789062 208.961914062 1102.33789062 208.961914062 1144.21484375 145.934570312 c 128,-1,5
 1186.09179688 82.908203125 1186.09179688 82.908203125 1259.69433594 82.908203125 c 0,6,7
 1331.60351562 82.908203125 1331.60351562 82.908203125 1373.48144531 145.934570312 c 128,-1,8
 1415.35839844 208.961914062 1415.35839844 208.961914062 1415.35839844 318.942382812 c 0,9,10
 1415.35839844 429.767578125 1415.35839844 429.767578125 1373.48144531 492.794921875 c 128,-1,11
 1331.60351562 555.822265625 1331.60351562 555.822265625 1259.69433594 555.822265625 c 0,0,1
1259.69433594 663.263671875 m 0,12,13
 1393.36230469 663.263671875 1393.36230469 663.263671875 1472.04003906 570.204101562 c 128,-1,14
 1550.71777344 477.143554688 1550.71777344 477.143554688 1550.71777344 318.942382812 c 128,-1,15
 1550.71777344 160.740234375 1550.71777344 160.740234375 1471.6171875 68.1025390625 c 128,-1,16
 1392.515625 -24.5341796875 1392.515625 -24.5341796875 1259.69433594 -24.5341796875 c 0,17,18
 1124.33398438 -24.5341796875 1124.33398438 -24.5341796875 1045.65625 68.1025390625 c 128,-1,19
 966.977539062 160.740234375 966.977539062 160.740234375 966.977539062 318.942382812 c 0,20,21
 966.977539062 477.990234375 966.977539062 477.990234375 1046.07910156 570.626953125 c 128,-1,22
 1125.1796875 663.263671875 1125.1796875 663.263671875 1259.69433594 663.263671875 c 0,12,13
386.622070312 1178.47753906 m 128,-1,24
 313.866210938 1178.47753906 313.866210938 1178.47753906 271.989257812 1115.45117188 c 128,-1,25
 230.112304688 1052.42382812 230.112304688 1052.42382812 230.112304688 942.444335938 c 0,26,27
 230.112304688 830.772460938 230.112304688 830.772460938 271.56640625 768.16796875 c 128,-1,28
 313.01953125 705.564453125 313.01953125 705.564453125 386.622070312 705.564453125 c 128,-1,29
 460.223632812 705.564453125 460.223632812 705.564453125 502.100585938 768.16796875 c 128,-1,30
 543.977539062 830.772460938 543.977539062 830.772460938 543.977539062 942.444335938 c 0,31,32
 543.977539062 1051.578125 543.977539062 1051.578125 501.677734375 1115.02832031 c 128,-1,23
 459.377929688 1178.47753906 459.377929688 1178.47753906 386.622070312 1178.47753906 c 128,-1,24
1150.55957031 1285.91992188 m 1,33,-1
 1285.91992188 1285.91992188 l 1,34,-1
 495.755859375 -24.5341796875 l 1,35,-1
 360.396484375 -24.5341796875 l 1,36,-1
 1150.55957031 1285.91992188 l 1,33,-1
386.622070312 1285.91992188 m 128,-1,38
 520.290039062 1285.91992188 520.290039062 1285.91992188 599.814453125 1193.28320312 c 128,-1,39
 679.337890625 1100.64648438 679.337890625 1100.64648438 679.337890625 942.444335938 c 0,40,41
 679.337890625 782.549804688 679.337890625 782.549804688 600.237304688 690.3359375 c 128,-1,42
 521.135742188 598.122070312 521.135742188 598.122070312 386.622070312 598.122070312 c 128,-1,43
 252.108398438 598.122070312 252.108398438 598.122070312 173.852539062 690.758789062 c 128,-1,44
 95.59765625 783.396484375 95.59765625 783.396484375 95.59765625 942.444335938 c 0,45,46
 95.59765625 1099.79980469 95.59765625 1099.79980469 174.276367188 1192.86035156 c 128,-1,37
 252.954101562 1285.91992188 252.954101562 1285.91992188 386.622070312 1285.91992188 c 128,-1,38
EndSplineSet
EndChar

StartChar: ampersand
Encoding: 38 38 6
Width: 1501
GlyphClass: 2
Flags: W
LayerCount: 2
Fore
SplineSet
421.307617188 679.337890625 m 1,0,1
 344.322265625 610.811523438 344.322265625 610.811523438 308.3671875 542.708984375 c 128,-1,2
 272.412109375 474.606445312 272.412109375 474.606445312 272.412109375 400.158203125 c 0,3,4
 272.412109375 276.641601562 272.412109375 276.641601562 362.087890625 194.580078125 c 128,-1,5
 451.763671875 112.517578125 451.763671875 112.517578125 587.124023438 112.517578125 c 0,6,7
 667.494140625 112.517578125 667.494140625 112.517578125 737.711914062 139.166992188 c 128,-1,8
 807.9296875 165.81640625 807.9296875 165.81640625 869.688476562 219.959960938 c 1,9,-1
 421.307617188 679.337890625 l 1,0,1
540.59375 774.08984375 m 2,10,-1
 970.362304688 334.169921875 l 1,11,12
 1020.27636719 409.463867188 1020.27636719 409.463867188 1048.19433594 495.333007812 c 128,-1,13
 1076.11230469 581.202148438 1076.11230469 581.202148438 1081.18847656 677.646484375 c 1,14,-1
 1238.54394531 677.646484375 l 1,15,16
 1228.39160156 565.973632812 1228.39160156 565.973632812 1184.40039062 456.83984375 c 128,-1,17
 1140.40820312 347.706054688 1140.40820312 347.706054688 1061.73046875 241.110351562 c 1,18,-1
 1297.76367188 -0 l 1,19,-1
 1084.57226562 -0 l 1,20,-1
 963.59375 124.362304688 l 1,21,22
 875.610351562 49.0673828125 875.610351562 49.0673828125 779.166015625 12.2666015625 c 128,-1,23
 682.721679688 -24.5341796875 682.721679688 -24.5341796875 571.896484375 -24.5341796875 c 0,24,25
 368.009765625 -24.5341796875 368.009765625 -24.5341796875 238.572265625 91.791015625 c 128,-1,26
 109.133789062 208.116210938 109.133789062 208.116210938 109.133789062 390.005859375 c 0,27,28
 109.133789062 498.293945312 109.133789062 498.293945312 165.81640625 593.46875 c 128,-1,29
 222.498046875 688.643554688 222.498046875 688.643554688 335.862304688 772.3984375 c 1,30,31
 295.25390625 825.696289062 295.25390625 825.696289062 274.103515625 878.571289062 c 128,-1,32
 252.954101562 931.446289062 252.954101562 931.446289062 252.954101562 982.206054688 c 0,33,34
 252.954101562 1119.2578125 252.954101562 1119.2578125 346.860351562 1202.58886719 c 128,-1,35
 440.765625 1285.91992188 440.765625 1285.91992188 596.4296875 1285.91992188 c 0,36,37
 666.6484375 1285.91992188 666.6484375 1285.91992188 736.443359375 1270.69238281 c 128,-1,38
 806.23828125 1255.46386719 806.23828125 1255.46386719 878.1484375 1225.0078125 c 1,39,-1
 878.1484375 1071.03613281 l 1,40,41
 804.545898438 1110.79785156 804.545898438 1110.79785156 737.711914062 1131.52539062 c 128,-1,42
 670.877929688 1152.25195312 670.877929688 1152.25195312 613.349609375 1152.25195312 c 0,43,44
 524.51953125 1152.25195312 524.51953125 1152.25195312 469.107421875 1105.29882812 c 128,-1,45
 413.694335938 1058.34570312 413.694335938 1058.34570312 413.694335938 983.8984375 c 0,46,47
 413.694335938 940.751953125 413.694335938 940.751953125 438.651367188 897.182617188 c 128,-1,48
 463.608398438 853.614257812 463.608398438 853.614257812 540.59375 774.08984375 c 2,10,-1
EndSplineSet
EndChar

StartChar: quotesingle
Encoding: 39 39 7
Width: 529
GlyphClass: 2
Flags: W
LayerCount: 2
Fore
SplineSet
310.482421875 1263.078125 m 1,0,-1
 310.482421875 793.547851562 l 1,1,-1
 166.662109375 793.547851562 l 1,2,-1
 166.662109375 1263.078125 l 1,3,-1
 310.482421875 1263.078125 l 1,0,-1
EndSplineSet
EndChar

StartChar: parenleft
Encoding: 40 40 8
Width: 751
GlyphClass: 2
Flags: W
GlyphCompositionVertical: 3  uni239D%0,0,40,2433 uni239C%1,40,40,2458 uni239B%0,40,0,2466
LayerCount: 2
Fore
SplineSet
537.209960938 1314.68359375 m 0,0,1
 423.845703125 1120.10351562 423.845703125 1120.10351562 368.856445312 929.75390625 c 128,-1,2
 313.866210938 739.404296875 313.866210938 739.404296875 313.866210938 543.977539062 c 128,-1,3
 313.866210938 348.551757812 313.866210938 348.551757812 369.279296875 156.932617188 c 128,-1,4
 424.692382812 -34.685546875 424.692382812 -34.685546875 537.209960938 -228.419921875 c 1,5,-1
 401.849609375 -228.419921875 l 1,6,7
 274.950195312 -29.6103515625 274.950195312 -29.6103515625 211.922851562 162.431640625 c 128,-1,8
 148.896484375 354.473632812 148.896484375 354.473632812 148.896484375 543.977539062 c 0,9,10
 148.896484375 732.635742188 148.896484375 732.635742188 211.5 923.83203125 c 128,-1,11
 274.103515625 1115.02832031 274.103515625 1115.02832031 401.849609375 1314.68359375 c 1,12,-1
 537.209960938 1314.68359375 l 0,0,1
EndSplineSet
EndChar

StartChar: parenright
Encoding: 41 41 9
Width: 751
GlyphClass: 2
Flags: W
GlyphCompositionVertical: 3  uni23A0%0,0,40,2433 uni239F%1,40,40,2458 uni239E%0,40,0,2466
LayerCount: 2
Fore
SplineSet
138.744140625 1314.68359375 m 1,0,-1
 274.103515625 1314.68359375 l 1,1,2
 401.00390625 1115.02832031 401.00390625 1115.02832031 464.03125 923.83203125 c 128,-1,3
 527.057617188 732.635742188 527.057617188 732.635742188 527.057617188 543.977539062 c 0,4,5
 527.057617188 354.473632812 527.057617188 354.473632812 464.03125 162.431640625 c 128,-1,6
 401.00390625 -29.6103515625 401.00390625 -29.6103515625 274.103515625 -228.419921875 c 1,7,-1
 138.744140625 -228.419921875 l 1,8,9
 251.26171875 -34.685546875 251.26171875 -34.685546875 306.674804688 156.932617188 c 128,-1,10
 362.087890625 348.551757812 362.087890625 348.551757812 362.087890625 543.977539062 c 128,-1,11
 362.087890625 739.404296875 362.087890625 739.404296875 306.674804688 929.75390625 c 128,-1,12
 251.26171875 1120.10351562 251.26171875 1120.10351562 138.744140625 1314.68359375 c 1,0,-1
EndSplineSet
EndChar

StartChar: asterisk
Encoding: 42 42 10
Width: 962
GlyphClass: 2
Flags: W
LayerCount: 2
Fore
SplineSet
814.698242188 1054.96191406 m 1,0,-1
 510.984375 890.837890625 l 1,1,-1
 814.698242188 725.868164062 l 1,2,-1
 765.629882812 642.959960938 l 1,3,-1
 481.374023438 814.698242188 l 1,4,-1
 481.374023438 495.755859375 l 1,5,-1
 384.9296875 495.755859375 l 1,6,-1
 384.9296875 814.698242188 l 1,7,-1
 100.673828125 642.959960938 l 1,8,-1
 51.60546875 725.868164062 l 1,9,-1
 355.3203125 890.837890625 l 1,10,-1
 51.60546875 1054.96191406 l 1,11,-1
 100.673828125 1138.71582031 l 1,12,-1
 384.9296875 966.977539062 l 1,13,-1
 384.9296875 1285.91992188 l 1,14,-1
 481.374023438 1285.91992188 l 1,15,-1
 481.374023438 966.977539062 l 1,16,-1
 765.629882812 1138.71582031 l 1,17,-1
 814.698242188 1054.96191406 l 1,0,-1
EndSplineSet
EndChar

StartChar: plus
Encoding: 43 43 11
Width: 1613
GlyphClass: 2
Flags: W
LayerCount: 2
Fore
SplineSet
796.931640625 1086.26367188 m 1,0,-1
 796.931640625 615.041992188 l 1,1,-1
 1268.15429688 615.041992188 l 1,2,-1
 1268.15429688 471.221679688 l 1,3,-1
 796.931640625 471.221679688 l 1,4,-1
 796.931640625 -0 l 1,5,-1
 654.803710938 -0 l 1,6,-1
 654.803710938 471.221679688 l 1,7,-1
 183.58203125 471.221679688 l 1,8,-1
 183.58203125 615.041992188 l 1,9,-1
 654.803710938 615.041992188 l 1,10,-1
 654.803710938 1086.26367188 l 1,11,-1
 796.931640625 1086.26367188 l 1,0,-1
EndSplineSet
EndChar

StartChar: comma
Encoding: 44 44 12
Width: 611
GlyphClass: 2
Flags: W
LayerCount: 2
Fore
SplineSet
203.040039062 214.883789062 m 1,0,-1
 381.545898438 214.883789062 l 1,1,-1
 381.545898438 69.3720703125 l 1,2,-1
 242.801757812 -201.34765625 l 1,3,-1
 133.66796875 -201.34765625 l 1,4,-1
 203.040039062 69.3720703125 l 1,5,-1
 203.040039062 214.883789062 l 1,0,-1
EndSplineSet
EndChar

StartChar: hyphen
Encoding: 45 45 13
Width: 694
GlyphClass: 2
Flags: W
LayerCount: 2
Fore
SplineSet
84.599609375 543.977539062 m 1,0,-1
 540.59375 543.977539062 l 1,1,-1
 540.59375 405.234375 l 1,2,-1
 84.599609375 405.234375 l 1,3,-1
 84.599609375 543.977539062 l 1,0,-1
EndSplineSet
EndChar

StartChar: period
Encoding: 46 46 14
Width: 496
GlyphClass: 2
Flags: W
LayerCount: 2
Fore
SplineSet
129.284 120.146 m 132,-1,1
 129.284 169.888 129.284 169.888 164.485 205.089 c 132,-1,2
 199.687 240.29 199.687 240.29 249.43 240.29 c 132,-1,3
 299.173 240.29 299.173 240.29 334.372 205.089 c 132,-1,4
 369.574 169.889 369.574 169.889 369.574 120.146 c 132,-1,5
 369.574 70.4014 369.574 70.4014 334.372 35.2012 c 132,-1,6
 299.173 0 299.173 0 249.43 0 c 132,-1,7
 199.687 0 199.687 0 164.485 35.2012 c 132,-1,0
 129.284 70.4004 129.284 70.4004 129.284 120.146 c 132,-1,1
EndSplineSet
EndChar

StartChar: slash
Encoding: 47 47 15
Width: 648
GlyphClass: 2
Flags: W
LayerCount: 2
Fore
SplineSet
439.919921875 1263.078125 m 1,0,-1
 583.740234375 1263.078125 l 1,1,-1
 143.8203125 -160.740234375 l 1,2,-1
 -0 -160.740234375 l 1,3,-1
 439.919921875 1263.078125 l 1,0,-1
EndSplineSet
EndChar

StartChar: colon
Encoding: 58 58 16
Width: 648
GlyphClass: 2
Flags: W
LayerCount: 2
Fore
SplineSet
207.625 720.146 m 132,-1,1
 207.625 769.888 207.625 769.888 242.826 805.089 c 132,-1,2
 278.027 840.29 278.027 840.29 327.77 840.29 c 132,-1,3
 377.514 840.29 377.514 840.29 412.713 805.089 c 132,-1,4
 447.914 769.889 447.914 769.889 447.914 720.146 c 132,-1,5
 447.914 670.401 447.914 670.401 412.713 635.201 c 132,-1,6
 377.514 600 377.514 600 327.77 600 c 132,-1,7
 278.027 600 278.027 600 242.826 635.201 c 132,-1,0
 207.625 670.4 207.625 670.4 207.625 720.146 c 132,-1,1
207.625 120.146 m 128,-1,9
 207.625 169.888 207.625 169.888 242.826 205.089 c 128,-1,10
 278.027 240.29 278.027 240.29 327.77 240.29 c 128,-1,11
 377.514 240.29 377.514 240.29 412.713 205.089 c 128,-1,12
 447.914 169.889 447.914 169.889 447.914 120.146 c 128,-1,13
 447.914 70.4014 447.914 70.4014 412.713 35.2012 c 128,-1,14
 377.514 0 377.514 0 327.77 0 c 128,-1,15
 278.027 0 278.027 0 242.826 35.2012 c 128,-1,8
 207.625 70.4004 207.625 70.4004 207.625 120.146 c 128,-1,9
EndSplineSet
EndChar

StartChar: semicolon
Encoding: 59 59 17
Width: 648
GlyphClass: 2
Flags: W
LayerCount: 2
Fore
SplineSet
203.040039062 895.9140625 m 1,0,-1
 381.545898438 895.9140625 l 1,1,-1
 381.545898438 681.030273438 l 1,2,-1
 203.040039062 681.030273438 l 1,3,-1
 203.040039062 895.9140625 l 1,0,-1
203.040039062 214.883789062 m 1,4,-1
 381.545898438 214.883789062 l 1,5,-1
 381.545898438 69.3720703125 l 1,6,-1
 242.801757812 -201.34765625 l 1,7,-1
 133.66796875 -201.34765625 l 1,8,-1
 203.040039062 69.3720703125 l 1,9,-1
 203.040039062 214.883789062 l 1,4,-1
EndSplineSet
EndChar

StartChar: less
Encoding: 60 60 18
Width: 1613
GlyphClass: 2
Flags: W
LayerCount: 2
Fore
SplineSet
1268.15429688 852.767578125 m 1,0,-1
 395.08203125 542.286132812 l 1,1,-1
 1268.15429688 233.49609375 l 1,2,-1
 1268.15429688 79.5244140625 l 1,3,-1
 183.58203125 472.9140625 l 1,4,-1
 183.58203125 613.349609375 l 1,5,-1
 1268.15429688 1006.74023438 l 1,6,-1
 1268.15429688 852.767578125 l 1,0,-1
EndSplineSet
EndChar

StartChar: equal
Encoding: 61 61 19
Width: 1613
GlyphClass: 2
Flags: W
GlyphCompositionHorizontal: 2  equal%0,0,40,1290 equal%1,40,0,1290
LayerCount: 2
Fore
SplineSet
183.58203125 786.780273438 m 1,0,-1
 1268.15429688 786.780273438 l 1,1,-1
 1268.15429688 644.65234375 l 1,2,-1
 183.58203125 644.65234375 l 1,3,-1
 183.58203125 786.780273438 l 1,0,-1
183.58203125 441.612304688 m 1,4,-1
 1268.15429688 441.612304688 l 1,5,-1
 1268.15429688 297.791992188 l 1,6,-1
 183.58203125 297.791992188 l 1,7,-1
 183.58203125 441.612304688 l 1,4,-1
EndSplineSet
EndChar

StartChar: greater
Encoding: 62 62 20
Width: 1613
GlyphClass: 2
Flags: W
LayerCount: 2
Fore
SplineSet
183.58203125 852.767578125 m 1,0,-1
 183.58203125 1006.74023438 l 1,1,-1
 1268.15429688 613.349609375 l 1,2,-1
 1268.15429688 472.9140625 l 1,3,-1
 183.58203125 79.5244140625 l 1,4,-1
 183.58203125 233.49609375 l 1,5,-1
 1054.96191406 542.286132812 l 1,6,-1
 183.58203125 852.767578125 l 1,0,-1
EndSplineSet
EndChar

StartChar: question
Encoding: 63 63 21
Width: 1021
GlyphClass: 2
Flags: W
LayerCount: 2
Fore
SplineSet
330.786132812 214.883789062 m 1,0,-1
 502.524414062 214.883789062 l 1,1,-1
 502.524414062 -0 l 1,2,-1
 330.786132812 -0 l 1,3,-1
 330.786132812 214.883789062 l 1,0,-1
497.448242188 339.24609375 m 1,4,-1
 335.862304688 339.24609375 l 1,5,-1
 335.862304688 469.530273438 l 2,6,7
 335.862304688 554.975585938 335.862304688 554.975585938 359.549804688 609.965820312 c 128,-1,8
 383.23828125 664.956054688 383.23828125 664.956054688 459.377929688 737.711914062 c 1,9,-1
 535.517578125 813.005859375 l 1,10,11
 583.740234375 857.84375 583.740234375 857.84375 605.313476562 897.606445312 c 128,-1,12
 626.885742188 937.368164062 626.885742188 937.368164062 626.885742188 978.822265625 c 0,13,14
 626.885742188 1054.11621094 626.885742188 1054.11621094 571.47265625 1100.64648438 c 128,-1,15
 516.059570312 1147.17578125 516.059570312 1147.17578125 424.692382812 1147.17578125 c 0,16,17
 357.858398438 1147.17578125 357.858398438 1147.17578125 282.140625 1117.56640625 c 128,-1,18
 206.423828125 1087.95605469 206.423828125 1087.95605469 124.362304688 1031.27441406 c 1,19,-1
 124.362304688 1190.32226562 l 1,20,21
 203.885742188 1238.54394531 203.885742188 1238.54394531 285.525390625 1262.23242188 c 128,-1,22
 367.1640625 1285.91992188 367.1640625 1285.91992188 454.301757812 1285.91992188 c 0,23,24
 609.965820312 1285.91992188 609.965820312 1285.91992188 704.294921875 1203.85839844 c 128,-1,25
 798.624023438 1121.79589844 798.624023438 1121.79589844 798.624023438 987.282226562 c 0,26,27
 798.624023438 922.986328125 798.624023438 922.986328125 768.16796875 865.03515625 c 128,-1,28
 737.711914062 807.083984375 737.711914062 807.083984375 661.572265625 734.328125 c 1,29,-1
 587.124023438 661.572265625 l 2,30,31
 547.362304688 621.809570312 547.362304688 621.809570312 530.865234375 599.390625 c 128,-1,32
 514.368164062 576.971679688 514.368164062 576.971679688 507.599609375 555.822265625 c 0,33,34
 502.524414062 538.055664062 502.524414062 538.055664062 499.986328125 512.67578125 c 128,-1,35
 497.448242188 487.295898438 497.448242188 487.295898438 497.448242188 443.303710938 c 2,36,-1
 497.448242188 339.24609375 l 1,4,-1
EndSplineSet
EndChar

StartChar: at
Encoding: 64 64 22
Width: 1925
GlyphClass: 2
Flags: W
LayerCount: 2
Fore
SplineSet
644.65234375 454.301757812 m 0,0,1
 644.65234375 333.32421875 644.65234375 333.32421875 704.717773438 264.375 c 128,-1,2
 764.784179688 195.42578125 764.784179688 195.42578125 869.688476562 195.42578125 c 0,3,4
 973.74609375 195.42578125 973.74609375 195.42578125 1033.38867188 264.797851562 c 128,-1,5
 1093.03222656 334.169921875 1093.03222656 334.169921875 1093.03222656 454.301757812 c 0,6,7
 1093.03222656 572.7421875 1093.03222656 572.7421875 1032.12011719 642.537109375 c 128,-1,8
 971.208007812 712.33203125 971.208007812 712.33203125 867.99609375 712.33203125 c 0,9,10
 765.629882812 712.33203125 765.629882812 712.33203125 705.140625 642.959960938 c 128,-1,11
 644.65234375 573.587890625 644.65234375 573.587890625 644.65234375 454.301757812 c 0,0,1
1105.72167969 201.34765625 m 1,12,13
 1054.96191406 136.206054688 1054.96191406 136.206054688 989.397460938 105.327148438 c 128,-1,14
 923.83203125 74.447265625 923.83203125 74.447265625 836.694335938 74.447265625 c 0,15,16
 691.181640625 74.447265625 691.181640625 74.447265625 600.237304688 179.775390625 c 128,-1,17
 509.291992188 285.1015625 509.291992188 285.1015625 509.291992188 454.301757812 c 128,-1,18
 509.291992188 623.501953125 509.291992188 623.501953125 600.66015625 729.251953125 c 128,-1,19
 692.028320312 835.001953125 692.028320312 835.001953125 836.694335938 835.001953125 c 0,20,21
 923.83203125 835.001953125 923.83203125 835.001953125 989.8203125 803.27734375 c 128,-1,22
 1055.80761719 771.551757812 1055.80761719 771.551757812 1105.72167969 707.255859375 c 1,23,-1
 1105.72167969 818.08203125 l 1,24,-1
 1226.70019531 818.08203125 l 1,25,-1
 1226.70019531 195.42578125 l 1,26,27
 1350.21582031 214.038085938 1350.21582031 214.038085938 1420.01074219 308.3671875 c 128,-1,28
 1489.80566406 402.696289062 1489.80566406 402.696289062 1489.80566406 552.438476562 c 0,29,30
 1489.80566406 642.959960938 1489.80566406 642.959960938 1463.15722656 722.484375 c 128,-1,31
 1436.5078125 802.0078125 1436.5078125 802.0078125 1382.36425781 869.688476562 c 0,32,33
 1294.37988281 980.513671875 1294.37988281 980.513671875 1167.90332031 1039.31054688 c 128,-1,34
 1041.42578125 1098.10839844 1041.42578125 1098.10839844 892.530273438 1098.10839844 c 0,35,36
 788.471679688 1098.10839844 788.471679688 1098.10839844 692.874023438 1070.61328125 c 128,-1,37
 597.276367188 1043.11816406 597.276367188 1043.11816406 516.059570312 988.973632812 c 1,38,39
 383.23828125 902.681640625 383.23828125 902.681640625 308.3671875 762.668945312 c 128,-1,40
 233.49609375 622.65625 233.49609375 622.65625 233.49609375 459.377929688 c 0,41,42
 233.49609375 324.864257812 233.49609375 324.864257812 282.140625 207.26953125 c 128,-1,43
 330.786132812 89.67578125 330.786132812 89.67578125 423 -0 c 1,44,45
 511.830078125 -87.984375 511.830078125 -87.984375 628.578125 -134.090820312 c 128,-1,46
 745.326171875 -180.198242188 745.326171875 -180.198242188 878.1484375 -180.198242188 c 0,47,48
 987.282226562 -180.198242188 987.282226562 -180.198242188 1092.609375 -143.397460938 c 128,-1,49
 1197.93554688 -106.595703125 1197.93554688 -106.595703125 1285.91992188 -38.0703125 c 1,50,-1
 1362.05957031 -131.975585938 l 1,51,52
 1256.30957031 -214.038085938 1256.30957031 -214.038085938 1131.52539062 -257.607421875 c 128,-1,53
 1006.74023438 -301.17578125 1006.74023438 -301.17578125 878.1484375 -301.17578125 c 0,54,55
 721.637695312 -301.17578125 721.637695312 -301.17578125 582.893554688 -245.762695312 c 128,-1,56
 444.150390625 -190.349609375 444.150390625 -190.349609375 335.862304688 -84.6005859375 c 128,-1,57
 227.57421875 21.1494140625 227.57421875 21.1494140625 170.891601562 160.317382812 c 128,-1,58
 114.209960938 299.484375 114.209960938 299.484375 114.209960938 459.377929688 c 0,59,60
 114.209960938 613.349609375 114.209960938 613.349609375 171.73828125 752.940429688 c 128,-1,61
 229.265625 892.530273438 229.265625 892.530273438 335.862304688 998.280273438 c 0,62,63
 444.99609375 1105.72167969 444.99609375 1105.72167969 587.969726562 1162.82714844 c 128,-1,64
 730.944335938 1219.93164062 730.944335938 1219.93164062 890.837890625 1219.93164062 c 0,65,66
 1070.19042969 1219.93164062 1070.19042969 1219.93164062 1223.73925781 1146.33007812 c 128,-1,67
 1377.28808594 1072.72753906 1377.28808594 1072.72753906 1481.34570312 937.368164062 c 0,68,69
 1544.79589844 854.458984375 1544.79589844 854.458984375 1578.21289062 757.168945312 c 128,-1,70
 1611.62988281 659.87890625 1611.62988281 659.87890625 1611.62988281 555.821289062 c 0,71,72
 1611.62988281 333.323242188 1611.62988281 333.323242188 1477.11621094 204.731445312 c 128,-1,73
 1342.6015625 76.1396484375 1342.6015625 76.1396484375 1105.72167969 71.0634765625 c 1,74,-1
 1105.72167969 201.34765625 l 1,12,13
EndSplineSet
EndChar

StartChar: bracketleft
Encoding: 91 91 23
Width: 751
GlyphClass: 2
Flags: W
GlyphCompositionVertical: 3  uni23A3%0,0,40,2433 uni23A2%1,40,40,2458 uni23A1%0,40,0,2429
LayerCount: 2
Fore
SplineSet
148.896484375 1316.37597656 m 1,0,-1
 507.599609375 1316.37597656 l 1,1,-1
 507.599609375 1195.3984375 l 1,2,-1
 304.559570312 1195.3984375 l 1,3,-1
 304.559570312 -107.442382812 l 1,4,-1
 507.599609375 -107.442382812 l 1,5,-1
 507.599609375 -228.419921875 l 1,6,-1
 148.896484375 -228.419921875 l 1,7,-1
 148.896484375 1316.37597656 l 1,0,-1
EndSplineSet
EndChar

StartChar: backslash
Encoding: 92 92 24
Width: 648
GlyphClass: 2
Flags: W
LayerCount: 2
Fore
SplineSet
143.8203125 1263.078125 m 1,0,-1
 583.740234375 -160.740234375 l 1,1,-1
 439.919921875 -160.740234375 l 1,2,-1
 -0 1263.078125 l 1,3,-1
 143.8203125 1263.078125 l 1,0,-1
EndSplineSet
EndChar

StartChar: bracketright
Encoding: 93 93 25
Width: 751
GlyphClass: 2
Flags: W
GlyphCompositionVertical: 3  uni23A6%0,0,40,2418 uni23A5%1,40,40,2442 uni23A4%0,40,0,2429
LayerCount: 2
Fore
SplineSet
527.057617188 1316.37597656 m 1,0,-1
 527.057617188 -228.419921875 l 1,1,-1
 168.353515625 -228.419921875 l 1,2,-1
 168.353515625 -107.442382812 l 1,3,-1
 370.547851562 -107.442382812 l 1,4,-1
 370.547851562 1195.3984375 l 1,5,-1
 168.353515625 1195.3984375 l 1,6,-1
 168.353515625 1316.37597656 l 1,7,-1
 527.057617188 1316.37597656 l 1,0,-1
EndSplineSet
EndChar

StartChar: asciicircum
Encoding: 94 94 26
Width: 1613
GlyphClass: 2
Flags: W
LayerCount: 2
Fore
SplineSet
808.776367188 1263.078125 m 1,0,-1
 1268.15429688 791.856445312 l 1,1,-1
 1098.10839844 791.856445312 l 1,2,-1
 725.868164062 1126.02636719 l 1,3,-1
 353.627929688 791.856445312 l 1,4,-1
 183.58203125 791.856445312 l 1,5,-1
 642.959960938 1263.078125 l 1,6,-1
 808.776367188 1263.078125 l 1,0,-1
EndSplineSet
EndChar

StartChar: underscore
Encoding: 95 95 27
Width: 962
GlyphClass: 2
Flags: W
GlyphCompositionHorizontal: 2  underscore%0,0,40,1069 underscore%1,40,0,1069
LayerCount: 2
Fore
SplineSet
883.223632812 -287.639648438 m 1,0,-1
 883.223632812 -408.618164062 l 1,1,-1
 -16.919921875 -408.618164062 l 1,2,-1
 -16.919921875 -287.639648438 l 1,3,-1
 883.223632812 -287.639648438 l 1,0,-1
EndSplineSet
EndChar

StartChar: grave
Encoding: 96 96 28
Width: 962
GlyphClass: 2
Flags: W
LayerCount: 2
Fore
SplineSet
310.482421875 1385.74804688 m 1,0,-1
 549.053710938 1069.34375 l 1,1,-1
 419.616210938 1069.34375 l 1,2,-1
 143.8203125 1385.74804688 l 1,3,-1
 310.482421875 1385.74804688 l 1,0,-1
EndSplineSet
EndChar

StartChar: braceleft
Encoding: 123 123 29
Width: 1224
GlyphClass: 2
Flags: W
GlyphCompositionVertical: 5  uni23A9%0,0,40,2430 uni23AA%1,40,40,2468 uni23A8%0,40,40,2454 uni23AA%1,40,40,2468 uni23A7%0,40,0,2447
LayerCount: 2
Fore
SplineSet
885.76171875 -160.740234375 m 1,0,-1
 885.76171875 -282.564453125 l 1,1,-1
 833.309570312 -282.564453125 l 2,2,3
 622.65625 -282.564453125 622.65625 -282.564453125 551.168945312 -219.959960938 c 128,-1,4
 479.681640625 -157.356445312 479.681640625 -157.356445312 479.681640625 29.6103515625 c 2,5,-1
 479.681640625 231.803710938 l 2,6,7
 479.681640625 359.549804688 479.681640625 359.549804688 433.998046875 408.618164062 c 128,-1,8
 388.314453125 457.685546875 388.314453125 457.685546875 268.181640625 457.685546875 c 2,9,-1
 216.576171875 457.685546875 l 1,10,-1
 216.576171875 578.6640625 l 1,11,-1
 268.181640625 578.6640625 l 2,12,13
 389.16015625 578.6640625 389.16015625 578.6640625 434.420898438 627.30859375 c 128,-1,14
 479.681640625 675.954101562 479.681640625 675.954101562 479.681640625 802.0078125 c 2,15,-1
 479.681640625 1005.04785156 l 2,16,17
 479.681640625 1192.01367188 479.681640625 1192.01367188 551.168945312 1254.1953125 c 128,-1,18
 622.65625 1316.37597656 622.65625 1316.37597656 833.309570312 1316.37597656 c 2,19,-1
 885.76171875 1316.37597656 l 1,20,-1
 885.76171875 1195.3984375 l 1,21,-1
 828.234375 1195.3984375 l 2,22,23
 708.948242188 1195.3984375 708.948242188 1195.3984375 672.5703125 1158.17382812 c 128,-1,24
 636.192382812 1120.95019531 636.192382812 1120.95019531 636.192382812 1001.6640625 c 2,25,-1
 636.192382812 791.856445312 l 2,26,27
 636.192382812 659.034179688 636.192382812 659.034179688 597.69921875 598.967773438 c 128,-1,28
 559.206054688 538.90234375 559.206054688 538.90234375 466.146484375 517.751953125 c 1,29,30
 560.051757812 494.91015625 560.051757812 494.91015625 598.122070312 434.84375 c 128,-1,31
 636.192382812 374.778320312 636.192382812 374.778320312 636.192382812 242.801757812 c 2,32,-1
 636.192382812 32.994140625 l 2,33,34
 636.192382812 -86.2919921875 636.192382812 -86.2919921875 672.5703125 -123.515625 c 128,-1,35
 708.948242188 -160.740234375 708.948242188 -160.740234375 828.234375 -160.740234375 c 2,36,-1
 885.76171875 -160.740234375 l 1,0,-1
EndSplineSet
EndChar

StartChar: bar
Encoding: 124 124 30
Width: 648
GlyphClass: 2
Flags: W
GlyphCompositionVertical: 2  bar%0,0,40,2058 bar%1,40,0,2058
LayerCount: 2
Fore
SplineSet
363.780273438 1323.99023438 m 1,0,-1
 363.780273438 -408.618164062 l 1,1,-1
 219.959960938 -408.618164062 l 1,2,-1
 219.959960938 1323.99023438 l 1,3,-1
 363.780273438 1323.99023438 l 1,0,-1
EndSplineSet
EndChar

StartChar: braceright
Encoding: 125 125 31
Width: 1224
GlyphClass: 2
Flags: W
GlyphCompositionVertical: 5  uni23AD%0,0,40,2430 uni23AA%1,40,40,2468 uni23AC%0,40,40,2454 uni23AA%1,40,40,2468 uni23AB%0,40,0,2447
LayerCount: 2
Fore
SplineSet
216.576171875 -160.740234375 m 1,0,-1
 275.795898438 -160.740234375 l 2,1,2
 394.236328125 -160.740234375 394.236328125 -160.740234375 430.19140625 -124.362304688 c 128,-1,3
 466.146484375 -87.9833984375 466.146484375 -87.9833984375 466.146484375 32.994140625 c 2,4,-1
 466.146484375 242.801757812 l 2,5,6
 466.146484375 374.778320312 466.146484375 374.778320312 504.215820312 434.84375 c 128,-1,7
 542.286132812 494.91015625 542.286132812 494.91015625 636.192382812 517.751953125 c 1,8,9
 542.286132812 538.90234375 542.286132812 538.90234375 504.215820312 598.967773438 c 128,-1,10
 466.146484375 659.034179688 466.146484375 659.034179688 466.146484375 791.856445312 c 2,11,-1
 466.146484375 1001.6640625 l 2,12,13
 466.146484375 1121.79589844 466.146484375 1121.79589844 430.19140625 1158.59667969 c 128,-1,14
 394.236328125 1195.3984375 394.236328125 1195.3984375 275.795898438 1195.3984375 c 2,15,-1
 216.576171875 1195.3984375 l 1,16,-1
 216.576171875 1316.37597656 l 1,17,-1
 269.874023438 1316.37597656 l 2,18,19
 480.528320312 1316.37597656 480.528320312 1316.37597656 551.168945312 1254.1953125 c 128,-1,20
 621.809570312 1192.01367188 621.809570312 1192.01367188 621.809570312 1005.04785156 c 2,21,-1
 621.809570312 802.0078125 l 2,22,23
 621.809570312 675.954101562 621.809570312 675.954101562 667.494140625 627.30859375 c 128,-1,24
 713.177734375 578.6640625 713.177734375 578.6640625 833.309570312 578.6640625 c 2,25,-1
 885.76171875 578.6640625 l 1,26,-1
 885.76171875 457.685546875 l 1,27,-1
 833.309570312 457.685546875 l 2,28,29
 713.177734375 457.685546875 713.177734375 457.685546875 667.494140625 408.618164062 c 128,-1,30
 621.809570312 359.549804688 621.809570312 359.549804688 621.809570312 231.803710938 c 2,31,-1
 621.809570312 29.6103515625 l 2,32,33
 621.809570312 -157.356445312 621.809570312 -157.356445312 551.168945312 -219.959960938 c 128,-1,34
 480.528320312 -282.564453125 480.528320312 -282.564453125 269.874023438 -282.564453125 c 2,35,-1
 216.576171875 -282.564453125 l 1,36,-1
 216.576171875 -160.740234375 l 1,0,-1
EndSplineSet
EndChar

StartChar: asciitilde
Encoding: 126 126 32
Width: 1613
GlyphClass: 2
Flags: W
LayerCount: 2
Fore
SplineSet
1268.15429688 691.181640625 m 1,0,-1
 1268.15429688 540.59375 l 1,1,2
 1179.32421875 473.759765625 1179.32421875 473.759765625 1103.60742188 444.99609375 c 128,-1,3
 1027.88964844 416.232421875 1027.88964844 416.232421875 945.828125 416.232421875 c 0,4,5
 852.767578125 416.232421875 852.767578125 416.232421875 729.251953125 466.146484375 c 0,6,7
 719.946289062 469.530273438 719.946289062 469.530273438 715.715820312 471.221679688 c 0,8,9
 709.793945312 473.759765625 709.793945312 473.759765625 697.103515625 477.990234375 c 0,10,11
 565.973632812 530.442382812 565.973632812 530.442382812 486.450195312 530.442382812 c 0,12,13
 412.001953125 530.442382812 412.001953125 530.442382812 339.24609375 497.87109375 c 128,-1,14
 266.490234375 465.299804688 266.490234375 465.299804688 183.58203125 395.08203125 c 1,15,-1
 183.58203125 545.669921875 l 1,16,17
 272.412109375 612.50390625 272.412109375 612.50390625 348.12890625 641.69140625 c 128,-1,18
 423.845703125 670.877929688 423.845703125 670.877929688 505.908203125 670.877929688 c 0,19,20
 598.967773438 670.877929688 598.967773438 670.877929688 723.330078125 620.118164062 c 0,21,22
 731.790039062 616.734375 731.790039062 616.734375 736.01953125 615.041992188 c 0,23,24
 742.788085938 612.50390625 742.788085938 612.50390625 754.631835938 608.274414062 c 0,25,26
 885.76171875 555.822265625 885.76171875 555.822265625 965.286132812 555.822265625 c 0,27,28
 1038.04199219 555.822265625 1038.04199219 555.822265625 1109.52929688 587.969726562 c 128,-1,29
 1181.015625 620.118164062 1181.015625 620.118164062 1268.15429688 691.181640625 c 1,0,-1
EndSplineSet
EndChar

StartChar: afii57388
Encoding: 1548 1548 34
Width: 654
VWidth: 2054
GlyphClass: 2
Flags: W
LayerCount: 2
Fore
SplineSet
341.549 0 m 4,0,1
 229.263 0 229.263 0 205.729 110 c 4,2,3
 194.83 160.95 194.83 160.95 214.588 247 c 4,4,5
 251.162 406.292 251.162 406.292 421.588 567.999 c 5,6,-1
 490.988 517.228 l 5,7,8
 348.677 372.229 348.677 372.229 339.588 252 c 5,9,10
 483.901 254.052 483.901 254.052 475.988 116.228 c 4,11,12
 468.947 0 468.947 0 341.549 0 c 4,0,1
EndSplineSet
EndChar

StartChar: uni0615
Encoding: 1557 1557 35
Width: 0
VWidth: 2186
GlyphClass: 4
Flags: W
AnchorPoint: "Anchor-10" 547.84 1279.5 mark 0
AnchorPoint: "Anchor-9" 547.84 1279.5 mark 0
AnchorPoint: "Anchor-1" 547.84 1975 basemark 0
AnchorPoint: "Anchor-1" 547.84 1279.5 mark 0
LayerCount: 2
Fore
SplineSet
466.096 1456.96 m 1,0,-1
 552.12 1456.96 l 2,1,2
 639.138 1456.96 639.138 1456.96 665.862 1472.75 c 0,3,4
 697.288 1492.32 697.288 1492.32 713.059 1508.3 c 128,-1,5
 728.83 1524.27 728.83 1524.27 728.83 1541.65 c 0,6,7
 728.83 1583.09 728.83 1583.09 689.03 1604.94 c 1,8,9
 681.399 1607.6 681.399 1607.6 672.751 1605.46 c 128,-1,10
 664.102 1603.31 664.102 1603.31 640.309 1592.64 c 128,-1,11
 616.515 1581.97 616.515 1581.97 601.865 1576.19 c 0,12,13
 543.049 1552.44 543.049 1552.44 483.147 1478.12 c 2,14,-1
 466.096 1456.96 l 1,0,-1
576.73 1374.89 m 2,15,-1
 282.64 1374.89 l 1,16,-1
 282.64 1456.96 l 1,17,-1
 369.31 1456.96 l 1,18,-1
 369.31 1883.89 l 1,19,-1
 452.45 1883.89 l 1,20,-1
 452.45 1497.67 l 1,21,-1
 477.109 1547.67 l 2,22,23
 513.381 1621.22 513.381 1621.22 619.878 1662.18 c 0,24,25
 682.718 1686.12 682.718 1686.12 752.956 1660.03 c 0,26,27
 814.11 1636.51 814.11 1636.51 814.11 1557.7 c 0,28,29
 814.11 1466.67 814.11 1466.67 750.648 1417.09 c 0,30,31
 696.384 1374.89 696.384 1374.89 576.73 1374.89 c 2,15,-1
EndSplineSet
EndChar

StartChar: uni061B
Encoding: 1563 1563 36
Width: 654
VWidth: 2054
GlyphClass: 2
Flags: W
LayerCount: 2
Fore
SplineSet
200.97 120.146 m 132,-1,1
 200.97 169.888 200.97 169.888 236.171 205.089 c 132,-1,2
 271.372 240.29 271.372 240.29 321.115 240.29 c 132,-1,3
 370.858 240.29 370.858 240.29 406.058 205.089 c 132,-1,4
 441.26 169.889 441.26 169.889 441.26 120.146 c 132,-1,5
 441.26 70.4014 441.26 70.4014 406.058 35.2012 c 132,-1,6
 370.858 0 370.858 0 321.115 0 c 132,-1,7
 271.372 0 271.372 0 236.171 35.2012 c 132,-1,0
 200.97 70.4004 200.97 70.4004 200.97 120.146 c 132,-1,1
329.676 433.611 m 0,8,9
 217.39 433.611 217.39 433.611 193.857 543.611 c 0,10,11
 182.957 594.561 182.957 594.561 202.715 680.611 c 0,12,13
 239.289 839.903 239.289 839.903 409.715 1001.61 c 1,14,-1
 479.115 950.839 l 1,15,16
 336.804 805.84 336.804 805.84 327.715 685.611 c 1,17,18
 472.028 687.663 472.028 687.663 464.115 549.839 c 0,19,20
 457.074 433.611 457.074 433.611 329.676 433.611 c 0,8,9
EndSplineSet
EndChar

StartChar: uni061F
Encoding: 1567 1567 37
Width: 1093
VWidth: 2054
GlyphClass: 2
Flags: W
LayerCount: 2
Fore
SplineSet
475.019 120.146 m 128,-1,1
 475.019 169.888 475.019 169.888 510.22 205.089 c 128,-1,2
 545.421 240.29 545.421 240.29 595.163 240.29 c 128,-1,3
 644.907 240.29 644.907 240.29 680.106 205.089 c 128,-1,4
 715.309 169.889 715.309 169.889 715.309 120.146 c 128,-1,5
 715.309 70.4014 715.309 70.4014 680.106 35.2012 c 128,-1,6
 644.907 0 644.907 0 595.163 0 c 128,-1,7
 545.421 0 545.421 0 510.22 35.2012 c 128,-1,0
 475.019 70.4004 475.019 70.4004 475.019 120.146 c 128,-1,1
518.138 411.315 m 1,8,-1
 518.138 442.81 l 2,9,10
 518 462 518 462 515.06 493.501 c 128,-1,11
 512 525 512 525 505.543 547.122 c 0,12,13
 497 574 497 574 476.031 602.622 c 0,14,15
 453.216262869 633.705358157 453.216262869 633.705358157 407.894 677.997 c 2,16,-1
 319.283 764.593 l 1,17,18
 230 850 230 850 194.878 916.88 c 0,19,20
 160 983 160 983 160.072 1056.54 c 0,21,22
 160 1211 160 1211 268.02 1304.8 c 0,23,24
 378 1400 378 1400 557.213 1399.37 c 0,25,26
 659 1399 659 1399 754.465 1371.68 c 0,27,28
 847 1345 847 1345 937.255 1291.02 c 1,29,-1
 883.163085938 1149.75976562 l 5,30,31
 809 1195 809 1195 766.344726562 1211.8203125 c 4,32,33
 674 1248 674 1248 592.416015625 1247.84960938 c 4,34,35
 468 1248 468 1248 410.053 1200.68 c 0,36,37
 340 1142 340 1142 339.81 1046.48 c 0,38,39
 340 994 340 994 366.938 944.1 c 0,40,41
 394 895 394 895 452.198 840.518 c 1,42,-1
 542.663 751.064 l 1,43,44
 634 664 634 664 658.641 603.116 c 0,45,46
 685.806 535.483003911 685.806 535.483003911 685.806 440.989 c 2,47,-1
 685.806 411.315 l 1,48,-1
 518.138 411.315 l 1,8,-1
EndSplineSet
EndChar

StartChar: uni0621
Encoding: 1569 1569 38
Width: 846
VWidth: 2186
GlyphClass: 2
Flags: W
AnchorPoint: "Anchor-7" 442 -172 basechar 0
AnchorPoint: "Anchor-10" 388.5 1250.5 basechar 0
LayerCount: 2
Fore
SplineSet
100.41 2.60156 m 5,0,-1
 100.41 164.498 l 5,1,2
 261.135 205 261.135 205 390.476 272.824 c 5,3,4
 235.367 299.615 235.367 299.615 169.135 384 c 4,5,6
 107.135 462.993 107.135 462.993 107.135 576 c 4,7,8
 107.135 783.951 107.135 783.951 263.289 879.463 c 4,9,10
 423.027 977.888 423.027 977.888 668.26 921.98 c 5,11,-1
 668.26 751.792 l 5,12,13
 569.881 780.36 569.881 780.36 499.047 778.336 c 4,14,15
 277.71 773.998 277.71 773.998 277.71 564.192 c 4,16,17
 277.71 422.085 277.71 422.085 471.135 384 c 4,18,19
 581.662 362.237 581.662 362.237 663.135 386 c 4,20,21
 711.135 400 711.135 400 753.86 425.141 c 5,22,-1
 753.86 256.611 l 5,23,24
 744.308 241.071 744.308 241.071 446.49 111.913 c 4,25,26
 214.534 20.8809 214.534 20.8809 100.41 2.60156 c 5,0,-1
EndSplineSet
EndChar

StartChar: uni0627
Encoding: 1575 1575 44
Width: 493
VWidth: 2186
GlyphClass: 2
Flags: W
AnchorPoint: "Anchor-10" 238.5 1329 basechar 0
AnchorPoint: "Anchor-7" 240.5 -235.5 basechar 0
LayerCount: 2
Fore
SplineSet
163.06 1200.96 m 5,0,-1
 329.94 1200.96 l 5,1,-1
 329.94 1.5 l 5,2,-1
 163.06 1.5 l 5,3,-1
 163.06 1200.96 l 5,0,-1
EndSplineSet
Substitution2: "'fina' Terminal Forms in Arabic lookup 9 subtable" uniFE8E
EndChar

StartChar: uni062D
Encoding: 1581 1581 50
Width: 1365
VWidth: 2186
GlyphClass: 2
Flags: W
AnchorPoint: "Anchor-10" 556.93 1245.95 basechar 0
AnchorPoint: "Anchor-7" 316.84 -751.5 basechar 0
LayerCount: 2
Fore
SplineSet
1010.85 506 m 0,0,1
 285.205 249.983 285.205 249.983 255.965 -151 c 0,2,3
 234.71 -450 234.71 -450 676.965 -474 c 1,4,-1
 1265.46 -473.778 l 1,5,-1
 1265.46 -642.778 l 1,6,7
 982.213 -642.389 982.213 -642.389 698.965 -642 c 1,8,9
 54.4715 -640.227 54.4715 -640.227 90.9648 -151 c 0,10,11
 133.673 408.374 133.673 408.374 1022.69 659.318 c 5,12,13
 921 696 921 696 746.415 751.613 c 0,14,15
 619.006007271 791.713734137 619.006007271 791.713734137 548.955 786.197 c 0,16,17
 468.58 780.497 468.58 780.497 404.955 618.197 c 1,18,-1
 266.955 670.197 l 1,19,20
 293.717 741.881 293.717 741.881 318.368 786.93 c 0,21,22
 395.236 931.155 395.236 931.155 539.955 939.197 c 0,23,24
 643.487 944.951 643.487 944.951 956.955 827.197 c 2,25,-1
 1273.19 708.404 l 1,26,-1
 1273.12 562.655 l 1,27,28
 1144.49 552.605 1144.49 552.605 1010.85 506 c 0,0,1
EndSplineSet
Substitution2: "'fina' Terminal Forms in Arabic lookup 9 subtable" uniFEA2
Substitution2: "'medi' Medial Forms in Arabic lookup 11 subtable" uniFEA4
Substitution2: "'init' Initial Forms in Arabic lookup 13 subtable" uniFEA3
EndChar

StartChar: uni062F
Encoding: 1583 1583 52
Width: 876
VWidth: 2186
GlyphClass: 2
Flags: W
AnchorPoint: "Anchor-10" 305.58 1117.5 basechar 0
AnchorPoint: "Anchor-7" 350.5 -248 basechar 0
LayerCount: 2
Fore
SplineSet
437.052 0.00292969 m 4,0,1
 90.75 0.00488281 l 5,2,-1
 90.75 179.044 l 5,3,4
 311.381 178.154 311.381 178.154 362.734 178.975 c 4,5,6
 531.944 181.276 531.944 181.276 573.035 197.265 c 4,7,8
 647.038 226.073 647.038 226.073 613.7 315.678 c 4,9,10
 597.143 360.179 597.143 360.179 462.902 515.265 c 6,11,-1
 301.902 701.265 l 5,12,-1
 413.902 826.265 l 5,13,14
 561.801 656.873 l 6,15,16
 731.406 462.62 731.406 462.62 733.902 459.265 c 4,17,18
 832.875 320.322 832.875 320.322 787.124 180.576 c 4,19,20
 725.159 -0.59375 725.159 -0.59375 437.052 0.00292969 c 4,0,1
EndSplineSet
Substitution2: "'fina' Terminal Forms in Arabic lookup 9 subtable" uniFEAA
EndChar

StartChar: uni0631
Encoding: 1585 1585 54
Width: 709
VWidth: 2186
GlyphClass: 2
Flags: W
AnchorPoint: "Anchor-10" 226.7 798.348 basechar 0
AnchorPoint: "Anchor-7" 342.291 -583.16 basechar 0
LayerCount: 2
Fore
SplineSet
441.634 -5.00879 m 6,0,1
 441.634 25.5 l 5,2,-1
 441.635 485.991 l 5,3,-1
 617.634 486.991 l 5,4,-1
 617.634 21 l 5,5,-1
 617.634 -3 l 6,6,7
 617.63 -442.406 617.63 -442.406 148.968 -445.042 c 6,8,-1
 51.0469 -445.593 l 5,9,-1
 51.0498 -267.976 l 5,10,11
 146.968 -268.042 l 6,12,13
 441.632 -266.513 441.632 -266.513 441.634 -5.00879 c 6,0,1
EndSplineSet
PairPos2: "'kern' Horizontal Kerning lookup 15-1" uniFEDF dx=-70 dy=0 dh=-70 dv=0 dx=0 dy=0 dh=0 dv=0
PairPos2: "'kern' Horizontal Kerning lookup 15-1" uniFBAC dx=-70 dy=0 dh=-70 dv=0 dx=0 dy=0 dh=0 dv=0
PairPos2: "'kern' Horizontal Kerning lookup 15-1" uniFB90 dx=-70 dy=0 dh=-70 dv=0 dx=0 dy=0 dh=0 dv=0
PairPos2: "'kern' Horizontal Kerning lookup 15-1" uni06A9 dx=-70 dy=0 dh=-70 dv=0 dx=0 dy=0 dh=0 dv=0
PairPos2: "'kern' Horizontal Kerning lookup 15-1" uni0649 dx=-70 dy=0 dh=-70 dv=0 dx=0 dy=0 dh=0 dv=0
PairPos2: "'kern' Horizontal Kerning lookup 15-1" uni0647 dx=-70 dy=0 dh=-70 dv=0 dx=0 dy=0 dh=0 dv=0
PairPos2: "'kern' Horizontal Kerning lookup 15-1" uniFEE7 dx=-70 dy=0 dh=-70 dv=0 dx=0 dy=0 dh=0 dv=0
PairPos2: "'kern' Horizontal Kerning lookup 15-1" uniFEE3 dx=-70 dy=0 dh=-70 dv=0 dx=0 dy=0 dh=0 dv=0
PairPos2: "'kern' Horizontal Kerning lookup 15-1" uni0645 dx=-70 dy=0 dh=-70 dv=0 dx=0 dy=0 dh=0 dv=0
PairPos2: "'kern' Horizontal Kerning lookup 15-1" uni0644 dx=-70 dy=0 dh=-70 dv=0 dx=0 dy=0 dh=0 dv=0
PairPos2: "'kern' Horizontal Kerning lookup 15-1" uniFEDB dx=-70 dy=0 dh=-70 dv=0 dx=0 dy=0 dh=0 dv=0
PairPos2: "'kern' Horizontal Kerning lookup 15-1" uniFED7 dx=-70 dy=0 dh=-70 dv=0 dx=0 dy=0 dh=0 dv=0
PairPos2: "'kern' Horizontal Kerning lookup 15-1" uni0642 dx=-70 dy=0 dh=-70 dv=0 dx=0 dy=0 dh=0 dv=0
PairPos2: "'kern' Horizontal Kerning lookup 15-1" uniFED3 dx=-70 dy=0 dh=-70 dv=0 dx=0 dy=0 dh=0 dv=0
PairPos2: "'kern' Horizontal Kerning lookup 15-1" uni0641 dx=-70 dy=0 dh=-70 dv=0 dx=0 dy=0 dh=0 dv=0
PairPos2: "'kern' Horizontal Kerning lookup 15-1" uniFECF dx=-70 dy=0 dh=-70 dv=0 dx=0 dy=0 dh=0 dv=0
PairPos2: "'kern' Horizontal Kerning lookup 15-1" uniFECB dx=-70 dy=0 dh=-70 dv=0 dx=0 dy=0 dh=0 dv=0
PairPos2: "'kern' Horizontal Kerning lookup 15-1" uniFEC7 dx=-70 dy=0 dh=-70 dv=0 dx=0 dy=0 dh=0 dv=0
PairPos2: "'kern' Horizontal Kerning lookup 15-1" uni0638 dx=-70 dy=0 dh=-70 dv=0 dx=0 dy=0 dh=0 dv=0
PairPos2: "'kern' Horizontal Kerning lookup 15-1" uniFEC3 dx=-70 dy=0 dh=-70 dv=0 dx=0 dy=0 dh=0 dv=0
PairPos2: "'kern' Horizontal Kerning lookup 15-1" uni0637 dx=-70 dy=0 dh=-70 dv=0 dx=0 dy=0 dh=0 dv=0
PairPos2: "'kern' Horizontal Kerning lookup 15-1" uniFEBF dx=-70 dy=0 dh=-70 dv=0 dx=0 dy=0 dh=0 dv=0
PairPos2: "'kern' Horizontal Kerning lookup 15-1" uni0636 dx=-70 dy=0 dh=-70 dv=0 dx=0 dy=0 dh=0 dv=0
PairPos2: "'kern' Horizontal Kerning lookup 15-1" uniFEBB dx=-70 dy=0 dh=-70 dv=0 dx=0 dy=0 dh=0 dv=0
PairPos2: "'kern' Horizontal Kerning lookup 15-1" uni0635 dx=-70 dy=0 dh=-70 dv=0 dx=0 dy=0 dh=0 dv=0
PairPos2: "'kern' Horizontal Kerning lookup 15-1" uniFEB7 dx=-70 dy=0 dh=-70 dv=0 dx=0 dy=0 dh=0 dv=0
PairPos2: "'kern' Horizontal Kerning lookup 15-1" uni0634 dx=-70 dy=0 dh=-70 dv=0 dx=0 dy=0 dh=0 dv=0
PairPos2: "'kern' Horizontal Kerning lookup 15-1" uniFEB3 dx=-70 dy=0 dh=-70 dv=0 dx=0 dy=0 dh=0 dv=0
PairPos2: "'kern' Horizontal Kerning lookup 15-1" uni0633 dx=-70 dy=0 dh=-70 dv=0 dx=0 dy=0 dh=0 dv=0
PairPos2: "'kern' Horizontal Kerning lookup 15-1" uni0630 dx=-70 dy=0 dh=-70 dv=0 dx=0 dy=0 dh=0 dv=0
PairPos2: "'kern' Horizontal Kerning lookup 15-1" uni062F dx=-70 dy=0 dh=-70 dv=0 dx=0 dy=0 dh=0 dv=0
PairPos2: "'kern' Horizontal Kerning lookup 15-1" uniFEA7 dx=-70 dy=0 dh=-70 dv=0 dx=0 dy=0 dh=0 dv=0
PairPos2: "'kern' Horizontal Kerning lookup 15-1" uniFEA3 dx=-70 dy=0 dh=-70 dv=0 dx=0 dy=0 dh=0 dv=0
PairPos2: "'kern' Horizontal Kerning lookup 15-1" uniFE9F dx=-70 dy=0 dh=-70 dv=0 dx=0 dy=0 dh=0 dv=0
PairPos2: "'kern' Horizontal Kerning lookup 15-1" uniFE9B dx=-70 dy=0 dh=-70 dv=0 dx=0 dy=0 dh=0 dv=0
PairPos2: "'kern' Horizontal Kerning lookup 15-1" uni062B dx=-70 dy=0 dh=-70 dv=0 dx=0 dy=0 dh=0 dv=0
PairPos2: "'kern' Horizontal Kerning lookup 15-1" uniFE97 dx=-70 dy=0 dh=-70 dv=0 dx=0 dy=0 dh=0 dv=0
PairPos2: "'kern' Horizontal Kerning lookup 15-1" uni062A dx=-70 dy=0 dh=-70 dv=0 dx=0 dy=0 dh=0 dv=0
PairPos2: "'kern' Horizontal Kerning lookup 15-1" uni0629 dx=-70 dy=0 dh=-70 dv=0 dx=0 dy=0 dh=0 dv=0
PairPos2: "'kern' Horizontal Kerning lookup 15-1" uniFE91 dx=-70 dy=0 dh=-70 dv=0 dx=0 dy=0 dh=0 dv=0
PairPos2: "'kern' Horizontal Kerning lookup 15-1" uni0628 dx=-70 dy=0 dh=-70 dv=0 dx=0 dy=0 dh=0 dv=0
PairPos2: "'kern' Horizontal Kerning lookup 15-1" uni0627 dx=-70 dy=0 dh=-70 dv=0 dx=0 dy=0 dh=0 dv=0
PairPos2: "'kern' Horizontal Kerning lookup 15-1" uni0622 dx=-70 dy=0 dh=-70 dv=0 dx=0 dy=0 dh=0 dv=0
PairPos2: "'kern' Horizontal Kerning lookup 15-1" uniFB94 dx=-70 dy=0 dh=-70 dv=0 dx=0 dy=0 dh=0 dv=0
PairPos2: "'kern' Horizontal Kerning lookup 15-1" afii57509 dx=-70 dy=0 dh=-70 dv=0 dx=0 dy=0 dh=0 dv=0
PairPos2: "'kern' Horizontal Kerning lookup 15-1" uniFB56 dx=-70 dy=0 dh=-70 dv=0 dx=0 dy=0 dh=0 dv=0
PairPos2: "'kern' Horizontal Kerning lookup 15-1" afii57506 dx=-70 dy=0 dh=-70 dv=0 dx=0 dy=0 dh=0 dv=0
Substitution2: "'fina' Terminal Forms in Arabic lookup 9 subtable" uniFEAE
EndChar

StartChar: uni0633
Encoding: 1587 1587 56
Width: 2350
VWidth: 2186
GlyphClass: 2
Flags: W
AnchorPoint: "Anchor-10" 488.51 851.5 basechar 0
AnchorPoint: "Anchor-7" 285.5 -537.03 basechar 0
LayerCount: 2
Fore
SplineSet
1389.04 0 m 0,0,1
 1232.95 1.74804 1232.95 1.74804 1194.04 94.5811 c 1,2,-1
 1193.9 47.1309 l 2,3,4
 1192.67 -369.209 1192.67 -369.209 697.273 -384.368 c 2,5,-1
 680.901 -384.869 l 1,6,-1
 657.601 -384.869 l 2,7,8
 128.973 -384.869 128.973 -384.869 128.973 46.6299 c 2,9,-1
 128.973 279.131 l 2,10,11
 128.973 398.63 128.973 398.63 222.901 398.63 c 2,12,-1
 298.973 398.63 l 1,13,-1
 298.973 228.298 l 1,14,-1
 298.973 47.6299 l 2,15,16
 298.973 -205.889 298.973 -205.889 659.451 -205.889 c 2,17,-1
 680.901 -205.889 l 1,18,-1
 704.423 -205.388 l 2,19,20
 1025.9 -198.541 1025.9 -198.541 1025.9 51.1309 c 2,21,-1
 1025.9 92.1309 l 2,22,23
 1025.9 523.503 1025.9 523.503 1025.5 533.912 c 1,24,-1
 1205.46 534.07 l 1,25,-1
 1205.99 320.846 l 2,26,27
 1206.35 172.314 1206.35 172.314 1395.04 170.191 c 0,28,29
 1590.48 167.887 1590.48 167.887 1590.13 300.695 c 2,30,-1
 1589.52 534.07 l 1,31,-1
 1755.42 534.07 l 1,32,-1
 1755.99 322.75 l 2,33,34
 1756.4 170.477 1756.4 170.477 1919.7 174.266 c 1,35,-1
 1939.27 174.75 l 2,36,37
 2088.66 178.447 2088.66 178.447 2088.66 355.5 c 2,38,-1
 2088.66 628.5 l 1,39,-1
 2258.66 628.5 l 1,40,-1
 2258.66 366.5 l 2,41,42
 2258.66 0 2258.66 0 1953.04 0 c 2,43,-1
 1882.04 0 l 0,44,45
 1775.95 0 1775.95 0 1719.04 52 c 0,46,47
 1681.58 86.2305 1681.58 86.2305 1667.13 133.496 c 1,48,49
 1624.56 -1.55859 1624.56 -1.55859 1389.04 0 c 0,0,1
EndSplineSet
Substitution2: "'fina' Terminal Forms in Arabic lookup 9 subtable" uniFEB2
Substitution2: "'medi' Medial Forms in Arabic lookup 11 subtable" uniFEB4
Substitution2: "'init' Initial Forms in Arabic lookup 13 subtable" uniFEB3
EndChar

StartChar: uni0635
Encoding: 1589 1589 58
Width: 2295
VWidth: 2186
GlyphClass: 2
Flags: W
AnchorPoint: "Anchor-10" 481.84 851.5 basechar 0
AnchorPoint: "Anchor-7" 231.84 -527.5 basechar 0
LayerCount: 2
Fore
SplineSet
1393.44 190.069 m 1,0,-1
 1715.41 190.069 l 2,1,2
 1844.75 190.069 1844.75 190.069 1923.66 223.525 c 0,3,4
 2033.6 270.157 2033.6 270.157 2026.58 407.176 c 24,5,6
 2018.77 555.779 2018.77 555.779 1863.95 553.234 c 0,7,8
 1774.7 551.291 1774.7 551.291 1653.66 448.525 c 0,9,10
 1537.83 350.184 1537.83 350.184 1411.17 209.73 c 2,11,-1
 1393.44 190.069 l 1,0,-1
1159.9 417 m 0,12,13
 1173.21 303 1173.21 303 1264.35 276.02 c 1,14,15
 1368.35 398.02 1368.35 398.02 1467.66 497.525 c 0,16,17
 1594.03 623.821 1594.03 623.821 1707.59 679.354 c 0,18,19
 1848.02 748.022 1848.02 748.022 2010.44 703.217 c 0,20,21
 2199.91 651.503 2199.91 651.503 2203.71 372.8 c 0,22,23
 2205.83 174.939 2205.83 174.939 2029.66 57.5254 c 0,24,25
 1943.74 -0.219096 1943.74 -0.219096 1819.88 0 c 2,26,-1
 1441.71 0.668945 l 2,27,28
 1221.81 1.05793 1221.81 1.05793 1155.9 104.131 c 1,29,-1
 1155.9 47.1309 l 2,30,31
 1155.9 -369.171 1155.9 -369.171 659.273 -384.368 c 2,32,-1
 642.901 -384.869 l 1,33,-1
 619.601 -384.869 l 2,34,35
 90.9727 -384.869 90.9727 -384.869 90.9727 46.6299 c 2,36,-1
 90.9727 279.131 l 2,37,38
 90.9727 398.63 90.9727 398.63 184.901 398.63 c 2,39,-1
 260.973 398.63 l 1,40,-1
 260.973 228.298 l 1,41,-1
 260.973 47.6299 l 2,42,43
 260.973 -205.889 260.973 -205.889 621.451 -205.889 c 2,44,-1
 642.901 -205.889 l 1,45,-1
 666.423 -205.388 l 2,46,47
 987.901 -198.541 987.901 -198.541 987.901 51.1309 c 2,48,-1
 987.901 92.1309 l 2,49,50
 987.901 523.503 987.901 523.503 987.5 533.912 c 1,51,-1
 1159.9 534 l 1,52,-1
 1159.9 417 l 0,12,13
EndSplineSet
Substitution2: "'fina' Terminal Forms in Arabic lookup 9 subtable" uniFEBA
Substitution2: "'medi' Medial Forms in Arabic lookup 11 subtable" uniFEBC
Substitution2: "'init' Initial Forms in Arabic lookup 13 subtable" uniFEBB
EndChar

StartChar: uni0637
Encoding: 1591 1591 60
Width: 1413
VWidth: 2186
GlyphClass: 2
Flags: W
AnchorPoint: "Anchor-10" 302.72 1395.47 basechar 0
AnchorPoint: "Anchor-7" 571.72 -266 basechar 0
LayerCount: 2
Fore
SplineSet
511.668 190.071 m 1,0,-1
 833.638 190.071 l 2,1,2
 962.98 190.071 962.98 190.071 1041.88 223.527 c 0,3,4
 1151.82 270.159 1151.82 270.159 1144.81 407.178 c 24,5,6
 1136.99 555.781 1136.99 555.781 982.17 553.236 c 0,7,8
 892.929 551.293 892.929 551.293 771.884 448.527 c 0,9,10
 656.108 350.233 656.108 350.233 529.399 209.732 c 2,11,-1
 511.668 190.071 l 1,0,-1
404.01 314.825 m 1,12,13
 404.312 320.842 404.312 320.842 585.884 497.527 c 0,14,15
 717.555 626.418 717.555 626.418 825.812 679.355 c 0,16,17
 966.24 748.024 966.24 748.024 1128.66 703.219 c 0,18,19
 1318.13 651.505 1318.13 651.505 1321.93 372.802 c 0,20,21
 1324.05 174.941 1324.05 174.941 1147.88 57.5273 c 0,22,23
 1061.97 -0.217165 1061.97 -0.217165 938.1 0.00195312 c 2,24,-1
 559.938 0.670898 l 1,25,-1
 81.5996 0 l 1,26,-1
 81.5996 178.98 l 1,27,-1
 237.13 178.98 l 1,28,-1
 237.13 1200.89 l 1,29,-1
 404.01 1200.89 l 1,30,-1
 404.01 314.825 l 1,12,13
EndSplineSet
Substitution2: "'fina' Terminal Forms in Arabic lookup 9 subtable" uniFEC2
Substitution2: "'medi' Medial Forms in Arabic lookup 11 subtable" uniFEC4
Substitution2: "'init' Initial Forms in Arabic lookup 13 subtable" uniFEC3
EndChar

StartChar: uni0639
Encoding: 1593 1593 62
Width: 1243
VWidth: 2186
GlyphClass: 2
Flags: W
AnchorPoint: "Anchor-10" 564.325 1352.51 basechar 0
AnchorPoint: "Anchor-7" 260.235 -732.76 basechar 0
LayerCount: 2
Fore
SplineSet
950.886 399.753 m 5,0,1
 909.567 397.998 909.567 397.998 868.249 396.242 c 4,2,3
 684.077 391.462 684.077 391.462 596.076 336.637 c 4,4,5
 275.556 145.531 275.556 145.531 263.076 -125.363 c 4,6,7
 247.076 -455.363 247.076 -455.363 625.965 -476 c 5,8,-1
 1151.46 -476.778 l 5,9,-1
 1150.46 -649.778 l 5,10,11
 872.212 -649.389 872.212 -649.389 593.965 -649 c 5,12,13
 116.439 -646.731 116.439 -646.731 111.076 -161.363 c 4,14,15
 107.076 192.637 107.076 192.637 441.864 419 c 5,16,17
 363.349 447.123 363.349 447.123 314.864 520 c 4,18,19
 228.469 647.084 228.469 647.084 259.864 807 c 4,20,21
 299.143 1003.61 299.143 1003.61 497.864 1051 c 4,22,23
 691.321 1097.14 691.321 1097.14 878.254 1002.02 c 5,24,-1
 837.481 861.547 l 5,25,26
 690.006 918.653 690.006 918.653 576.267 901.066 c 4,27,28
 404.88 874.566 404.88 874.566 404.88 721.72 c 4,29,30
 404.88 609.039 404.88 609.039 494.254 558.018 c 4,31,32
 544.847 529.135 544.847 529.135 622.864 522 c 4,33,-1
 951.04 561.871 l 5,34,-1
 950.886 399.753 l 5,0,1
EndSplineSet
Substitution2: "'fina' Terminal Forms in Arabic lookup 9 subtable" uniFECA
Substitution2: "'medi' Medial Forms in Arabic lookup 11 subtable" uniFECC
Substitution2: "'init' Initial Forms in Arabic lookup 13 subtable" uniFECB
EndChar

StartChar: afii57440
Encoding: 1600 1600 64
Width: 642
VWidth: 2186
GlyphClass: 2
Flags: W
AnchorPoint: "Anchor-10" 321 1279.5 basechar 0
AnchorPoint: "Anchor-7" 321 -111.5 basechar 0
LayerCount: 2
Fore
SplineSet
-8.40039 0 m 1,0,-1
 -8.40039 178.979 l 1,1,-1
 650.4 178.979 l 5,2,-1
 650.4 0 l 1,3,-1
 -8.40039 0 l 1,0,-1
EndSplineSet
EndChar

StartChar: uni0643
Encoding: 1603 1603 67
Width: 1647
VWidth: 2186
GlyphClass: 2
Flags: W
AnchorPoint: "Anchor-10" 531 1399.5 basechar 0
AnchorPoint: "Anchor-7" 386 -236.5 basechar 0
LayerCount: 2
Fore
SplineSet
870.624 0 m 1,0,-1
 416.624 0 l 2,1,2
 90.9986 0.116211 90.9986 0.116211 90.9971 385.499 c 2,3,-1
 90.9961 628.499 l 1,4,-1
 260.996 628.499 l 1,5,-1
 260.996 394.499 l 2,6,7
 260.996 178.98 260.996 178.98 420.475 178.98 c 2,8,-1
 870.624 178.98 l 1,9,-1
 1191.01 178.98 l 2,10,11
 1350.49 178.98 1350.49 178.98 1350.49 393.499 c 2,12,-1
 1350.49 1200.5 l 1,13,-1
 1520.49 1200.5 l 1,14,-1
 1520.49 416.499 l 2,15,16
 1520.49 0 1520.49 0 1184.86 0 c 2,17,-1
 870.624 0 l 1,0,-1
972.899 1154.44 m 1,18,-1
 972.899 1092.53 l 1,19,20
 900.66 1087.63 900.66 1087.63 861.5 1073.2 c 0,21,22
 767.46 1037.94 767.46 1037.94 767.46 993.621 c 0,23,24
 767.46 959.199 767.46 959.199 785.106 936.509 c 0,25,26
 801.091 915.197 801.091 915.197 879.149 903.717 c 0,27,28
 930.06 896.229 930.06 896.229 956.119 872.427 c 128,-1,29
 982.18 848.626 982.18 848.626 982.18 806.369 c 0,30,31
 982.18 707.352 982.18 707.352 890.43 655.47 c 0,32,33
 820.435 615.885 820.435 615.885 724.818 615 c 0,34,35
 661.806 615 661.806 615 607.277 624.571 c 1,36,-1
 607.277 692.953 l 1,37,38
 671.333 684.229 671.333 684.229 715.188 684.229 c 0,39,40
 789.053 684.229 789.053 684.229 836.435 702.885 c 0,41,42
 917.58 734.048 917.58 734.048 917.58 784.969 c 0,43,44
 917.58 841.252 917.58 841.252 823.865 856.525 c 0,45,46
 765.438 865.428 765.438 865.428 733.521 898.074 c 0,47,48
 701.223 931.11 701.223 931.11 702.505 990.091 c 0,49,50
 704.456 1068.99 704.456 1068.99 777.767 1106.14 c 0,51,52
 861.02 1148.26 861.02 1148.26 972.899 1154.44 c 1,18,-1
EndSplineSet
Substitution2: "'fina' Terminal Forms in Arabic lookup 9 subtable" uniFEDA
Substitution2: "'medi' Medial Forms in Arabic lookup 11 subtable" uniFEDC
Substitution2: "'init' Initial Forms in Arabic lookup 13 subtable" uniFEDB
EndChar

StartChar: uni0644
Encoding: 1604 1604 68
Width: 1287
VWidth: 2186
GlyphClass: 2
Flags: W
AnchorPoint: "Anchor-10" 401.01 1074.5 basechar 0
AnchorPoint: "Anchor-7" 369.15 -511.616 basechar 0
LayerCount: 2
Fore
SplineSet
1156.46 95.1914 m 1,0,1
 1155.9 47.1309 l 2,2,3
 1150.71 -398.33 1150.71 -398.33 659.273 -413.368 c 2,4,-1
 642.901 -413.869 l 1,5,-1
 619.601 -413.869 l 2,6,7
 90.9727 -413.869 90.9727 -413.869 90.9727 46.6299 c 2,8,-1
 90.9727 279.131 l 2,9,10
 90.9727 398.63 90.9727 398.63 184.901 398.63 c 2,11,-1
 260.973 398.63 l 1,12,-1
 260.973 228.298 l 1,13,-1
 260.973 47.6299 l 2,14,15
 260.973 -234.889 260.973 -234.889 621.451 -234.889 c 2,16,-1
 642.901 -234.889 l 1,17,-1
 666.423 -234.388 l 2,18,19
 987.044 -227.561 987.044 -227.561 990.901 51.1309 c 2,20,-1
 991.47 92.2412 l 8,21,22
 990.91 114.196 990.91 114.196 990.91 379.32 c 2,23,-1
 990.91 1200.03 l 1,24,-1
 1156.79 1200.03 l 1,25,-1
 1156.79 379.32 l 2,26,27
 1156.62 237.256 1156.62 237.256 1156.46 95.1914 c 1,0,1
EndSplineSet
Substitution2: "'fina' Terminal Forms in Arabic lookup 9 subtable" uniFEDE
Substitution2: "'medi' Medial Forms in Arabic lookup 11 subtable" uniFEE0
Substitution2: "'init' Initial Forms in Arabic lookup 13 subtable" uniFEDF
EndChar

StartChar: uni0645
Encoding: 1605 1605 69
Width: 1136
VWidth: 2186
GlyphClass: 2
Flags: W
AnchorPoint: "Anchor-10" 562.5 1077.31 basechar 0
AnchorPoint: "Anchor-7" 135.631 -618.952 basechar 0
LayerCount: 2
Fore
SplineSet
731.24 489.364 m 0,0,1
 591.565 486.151 591.565 486.151 591.07 481.364 c 0,2,3
 548.21 134.997 548.21 134.997 772.62 151 c 0,4,5
 879.598 158.672 879.598 158.672 884.01 349.364 c 0,6,7
 887.17 493.957 887.17 493.957 731.24 489.364 c 0,0,1
1004.79 140 m 0,8,9
 971.67 71.9199 971.67 71.9199 914.271 35.5264 c 128,-1,10
 856.873 -0.868164 856.873 -0.868164 778.285 -3.63965 c 0,11,12
 677.818 -6.87207 677.818 -6.87207 611.755 18 c 0,13,14
 388.038 102.878 388.038 102.878 423.78 467 c 1,15,16
 254.684 451.895 254.684 451.895 256 142 c 1,17,18
 256 -427 l 1,19,-1
 90 -427 l 1,20,-1
 90 221 l 1,21,22
 116.712 613.178 116.712 613.178 441.262 648.002 c 1,23,24
 812.262 648.001 l 1,25,26
 1026.22 646.074 1026.22 646.074 1044.45 402.364 c 0,27,28
 1055.83 244.879 1055.83 244.879 1004.79 140 c 0,8,9
EndSplineSet
Substitution2: "'init' Initial Forms in Arabic lookup 13 subtable" uniFEE3
Substitution2: "'medi' Medial Forms in Arabic lookup 11 subtable" uniFEE4
Substitution2: "'fina' Terminal Forms in Arabic lookup 9 subtable" uniFEE2
EndChar

StartChar: uni0647
Encoding: 1607 1607 71
Width: 900
VWidth: 2186
GlyphClass: 2
Flags: W
AnchorPoint: "Anchor-10" 438.924 1154.58 basechar 0
AnchorPoint: "Anchor-7" 337.864 -240.56 basechar 0
LayerCount: 2
Fore
SplineSet
275.865234375 334.922851562 m 1,0,1
 252 233 252 233 364.771484375 190.2890625 c 0,2,3
 450 158 450 158 548.880859375 180.640625 c 0,4,5
 624 198 624 198 642.771484375 253.2890625 c 0,6,7
 682 366 682 366 456.684 565.9 c 1,8,9
 301 410 301 410 275.865234375 334.922851562 c 1,0,1
163.312 453.273 m 0,10,11
 235.312 570.394 235.312 570.394 340.026 675.67 c 1,12,-1
 302.419 708.007 l 1,13,-1
 404.417 817.113 l 1,14,15
 696.383 606.154 696.383 606.154 771.902 422.861 c 0,16,17
 878.676 162.12 878.676 162.12 692.809 49.458 c 0,18,19
 614.796 2.1709 614.796 2.1709 468.301 3.53027 c 0,20,21
 330.438 4.82715 330.438 4.82715 255.768 40.5059 c 0,22,23
 115.425 107.685 115.425 107.685 97.3262 226.047 c 0,24,25
 83.0146 324.27 83.0146 324.27 163.312 453.273 c 0,10,11
EndSplineSet
Substitution2: "'fina' Terminal Forms in Arabic lookup 9 subtable" uniFEEA
Substitution2: "'medi' Medial Forms in Arabic lookup 11 subtable" uniFEEC
Substitution2: "'init' Initial Forms in Arabic lookup 13 subtable" uniFEEB
EndChar

StartChar: uni0648
Encoding: 1608 1608 72
Width: 775
VWidth: 2186
GlyphClass: 2
Flags: W
AnchorPoint: "Anchor-10" 321.282 1037.17 basechar 0
AnchorPoint: "Anchor-7" 324.191 -601.443 basechar 0
LayerCount: 2
Fore
SplineSet
388 471 m 4,0,1
 295 475 295 475 257.624023438 412.658203125 c 4,2,3
 245 392 245 392 242.322265625 340.7734375 c 4,4,5
 236 232 236 232 273.564453125 199.920898438 c 4,6,7
 324 156 324 156 515.470703125 180.936523438 c 5,8,9
 527 350 527 350 490 419 c 4,10,11
 464 468 464 468 388 471 c 4,0,1
682.798828125 275.368164062 m 4,12,13
 681.633789062 79.4013671875 681.633789062 79.4013671875 681.633789062 6 c 6,14,-1
 681.633789062 0 l 6,15,16
 682 -445.280273438 682 -445.280273438 209.967773438 -445.041992188 c 6,17,-1
 113.046875 -444.993164062 l 5,18,-1
 112.950195312 -266.975585938 l 5,19,-1
 206.967773438 -267.041992188 l 6,20,21
 505.633789062 -267 505.633789062 -267 505.633789062 -5.0087890625 c 6,22,-1
 505.633789062 1 l 5,23,24
 488 -2 488 -2 386.904296875 -2.20703125 c 4,25,26
 214 -3 214 -3 140.624023438 75.658203125 c 4,27,28
 81 140 81 140 91.37890625 361.930664062 c 4,29,30
 96 456 96 456 146 534 c 4,31,32
 216 644 216 644 394.5859375 640.627929688 c 4,33,34
 625 636 625 636 668.322265625 403.7734375 c 4,35,36
 683 325 683 325 682.798828125 275.368164062 c 4,12,13
EndSplineSet
Substitution2: "'fina' Terminal Forms in Arabic lookup 9 subtable" uniFEEE
EndChar

StartChar: uni0649
Encoding: 1609 1609 73
Width: 1283
VWidth: 2186
GlyphClass: 2
Flags: W
AnchorPoint: "Anchor-10" 401.847 1056.66 basechar 0
AnchorPoint: "Anchor-7" 266.548 -575.146 basechar 0
LayerCount: 2
Fore
SplineSet
679 -433 m 1,0,-1
 611.699 -433 l 2,1,2
 91.0713 -433 91.0713 -433 91.0713 57.499 c 2,3,-1
 91.0713 324 l 2,4,5
 91.0713 443.499 91.0713 443.499 185 443.499 c 2,6,-1
 261.071 443.499 l 1,7,-1
 261.071 273.167 l 1,8,-1
 261.071 58.499 l 2,9,10
 261.071 -254.023 261.071 -254.023 613.55 -254.02 c 2,11,-1
 679 -254.02 l 1,12,-1
 733.521 -253.519 l 2,13,14
 1044 -250.666 1044 -250.666 1044 5 c 2,15,-1
 1044 15 l 2,16,17
 1044 72.4235 1044 72.4235 986 72.6035 c 2,18,-1
 823 73.1094 l 2,19,20
 666.602 73.5947 666.602 73.5947 666.602 224.109 c 2,21,-1
 666.602 347.109 l 2,22,23
 666.602 691.608 666.602 691.608 966.23 691.608 c 2,24,-1
 1100.8 691.608 l 2,25,26
 1161.53 691.608 1161.53 691.608 1161.53 630.639 c 2,27,-1
 1161.53 512.628 l 1,28,-1
 931.08 512.628 l 2,29,30
 836.602 512.628 836.602 512.628 836.602 356.109 c 2,31,-1
 836.602 345.109 l 2,32,33
 836.602 258.281 836.602 258.281 836 243 c 1,34,35
 871 243 871 243 906 243 c 2,36,-1
 1012 243 l 2,37,38
 1212 243 1212 243 1212 45 c 2,39,-1
 1212 20 l 2,40,41
 1212 -427.363 1212 -427.363 726.372 -432.499 c 2,42,-1
 679 -433 l 1,0,-1
EndSplineSet
Substitution2: "'fina' Terminal Forms in Arabic lookup 9 subtable" uniFEF0
Substitution2: "'medi' Medial Forms in Arabic lookup 11 subtable" uniFBE9
Substitution2: "'init' Initial Forms in Arabic lookup 13 subtable" uniFBE8
EndChar

StartChar: uni064B
Encoding: 1611 1611 75
Width: 0
VWidth: 2186
GlyphClass: 4
Flags: W
AnchorPoint: "Anchor-10" 547.84 1041.5 mark 0
AnchorPoint: "Anchor-9" 547.84 1041.5 mark 0
AnchorPoint: "Anchor-1" 547.84 1576.5 basemark 0
AnchorPoint: "Anchor-1" 547.84 1041.5 mark 0
LayerCount: 2
Fore
SplineSet
269.4 977.41 m 5,0,-1
 269.4 1104.48 l 5,1,-1
 827.28 1332.79 l 5,2,-1
 827.28 1205.72 l 5,3,-1
 269.4 977.41 l 5,0,-1
269.4 1234.21 m 5,4,-1
 269.4 1361.28 l 5,5,-1
 827.28 1589.59 l 5,6,-1
 827.28 1462.52 l 5,7,-1
 269.4 1234.21 l 5,4,-1
EndSplineSet
EndChar

StartChar: uni064C
Encoding: 1612 1612 76
Width: 0
VWidth: 2186
GlyphClass: 4
Flags: W
AnchorPoint: "Anchor-10" 554.386 1155.44 mark 0
AnchorPoint: "Anchor-9" 554.386 1155.44 mark 0
AnchorPoint: "Anchor-1" 546.386 1810.94 basemark 0
AnchorPoint: "Anchor-1" 554.386 1155.44 mark 0
LayerCount: 2
Fore
SplineSet
567.219 1298.72 m 0,0,1
 608.391 1338.78 608.391 1338.78 631.845 1385.69 c 2,2,-1
 639.364 1400.73 l 1,3,-1
 622.913 1404.22 l 2,4,5
 589.558 1411.29 589.558 1411.29 566.532 1424.31 c 0,6,7
 457.736 1481.73 457.736 1481.73 457.736 1574.47 c 0,8,9
 457.736 1661.08 457.736 1661.08 526.365 1712.8 c 0,10,11
 552.86 1732.67 552.86 1732.67 615.937 1732.67 c 0,12,13
 688.759 1732.67 688.759 1732.67 727.738 1694.66 c 0,14,15
 782.696 1640.71 782.696 1640.71 782.696 1561.63 c 0,16,17
 782.696 1521.9 782.696 1521.9 770.46 1483.15 c 2,18,-1
 765.402 1467.14 l 1,19,-1
 782.175 1466.26 l 2,20,21
 802.247 1465.2 802.247 1465.2 817.806 1465.17 c 0,22,23
 831.205 1464.45 831.205 1464.45 845.826 1464.2 c 1,24,-1
 845.826 1372.44 l 1,25,26
 806.232 1372.69 806.232 1372.69 788.381 1374.48 c 2,27,-1
 723.27 1380.74 l 1,28,-1
 719.537 1371.99 l 2,29,30
 692.652 1308.91 692.652 1308.91 614.12 1227.24 c 1,31,32
 527.043 1139.14 527.043 1139.14 431.896 1139.14 c 0,33,34
 319.02 1139.14 319.02 1139.14 262.205 1295.39 c 0,35,36
 247.89 1334.51 247.89 1334.51 246.994 1442.7 c 1,37,-1
 317.299 1442.7 l 1,38,39
 318.143 1347.11 318.143 1347.11 331.307 1318.59 c 0,40,41
 372.26 1230.84 372.26 1230.84 431.896 1230.84 c 0,42,43
 497.076 1230.84 497.076 1230.84 567.219 1298.72 c 0,0,1
669.292 1482.64 m 1,44,-1
 680.316 1508.36 l 2,45,46
 690.996 1533.28 690.996 1533.28 690.996 1561.63 c 0,47,48
 690.996 1604.15 690.996 1604.15 668.07 1623.02 c 0,49,50
 646.28 1640.97 646.28 1640.97 620.217 1640.97 c 0,51,52
 591.787 1640.97 591.787 1640.97 575.875 1628.63 c 0,53,54
 551.576 1610.34 551.576 1610.34 551.576 1574.47 c 0,55,56
 551.576 1526.08 551.576 1526.08 607.898 1503.55 c 0,57,58
 629.803 1494.79 629.803 1494.79 658.123 1486.08 c 2,59,-1
 669.292 1482.64 l 1,44,-1
EndSplineSet
EndChar

StartChar: uni064D
Encoding: 1613 1613 77
Width: 0
VWidth: 2186
GlyphClass: 4
Flags: W
AnchorPoint: "Anchor-7" 531.84 75.5 mark 0
AnchorPoint: "Anchor-6" 531.84 75.5 mark 0
AnchorPoint: "Anchor-0" 547.84 -439.5 basemark 0
AnchorPoint: "Anchor-0" 531.84 75.5 mark 0
LayerCount: 2
Fore
SplineSet
270.96 -512.18 m 5,0,-1
 270.96 -385.109 l 5,1,-1
 828.84 -156.8 l 5,2,-1
 828.84 -283.87 l 5,3,-1
 270.96 -512.18 l 5,0,-1
270.96 -255.38 m 5,4,-1
 270.96 -128.31 l 5,5,-1
 828.84 100 l 5,6,-1
 828.84 -27.0703 l 5,7,-1
 270.96 -255.38 l 5,4,-1
EndSplineSet
EndChar

StartChar: uni064E
Encoding: 1614 1614 78
Width: 0
VWidth: 2186
GlyphClass: 4
Flags: W
AnchorPoint: "Anchor-10" 517.84 1279.5 mark 0
AnchorPoint: "Anchor-9" 517.84 1279.5 mark 0
AnchorPoint: "Anchor-1" 517.84 1600.5 basemark 0
AnchorPoint: "Anchor-1" 517.84 1279.5 mark 0
LayerCount: 2
Fore
SplineSet
237.4 1237.41 m 1,0,-1
 237.4 1364.48 l 1,1,-1
 795.28 1592.79 l 5,2,-1
 795.28 1465.72 l 1,3,-1
 237.4 1237.41 l 1,0,-1
EndSplineSet
EndChar

StartChar: uni064F
Encoding: 1615 1615 79
Width: 0
VWidth: 2186
GlyphClass: 4
Flags: W
AnchorPoint: "Anchor-10" 531.84 1205.5 mark 0
AnchorPoint: "Anchor-9" 531.84 1205.5 mark 0
AnchorPoint: "Anchor-1" 547.84 1825 basemark 0
AnchorPoint: "Anchor-1" 531.84 1205.5 mark 0
LayerCount: 2
Fore
SplineSet
594.529 1426.81 m 6,0,1
 586.598 1428.57 586.598 1428.57 567.734 1438.5 c 4,2,3
 459.19 1494.78 459.19 1494.78 459.19 1588.53 c 4,4,5
 459.19 1675.14 459.19 1675.14 527.819 1726.86 c 4,6,7
 554.314 1746.73 554.314 1746.73 617.39 1746.73 c 4,8,9
 690.212 1746.73 690.212 1746.73 729.192 1708.72 c 4,10,11
 784.15 1654.77 784.15 1654.77 784.15 1575.69 c 4,12,13
 784.15 1543.43 784.15 1543.43 769.757 1497.16 c 6,14,-1
 764.821 1481.3 l 5,15,-1
 781.407 1480.32 l 6,16,17
 799.81 1479.24 799.81 1479.24 819.259 1478.7 c 4,18,19
 832.229 1478.34 832.229 1478.34 847.28 1478.21 c 5,20,-1
 847.28 1386.53 l 5,21,22
 817.029 1386.85 817.029 1386.85 789.455 1388.57 c 4,23,24
 757.6 1390.7 757.6 1390.7 727.915 1393.88 c 6,25,-1
 720.312 1394.69 l 5,26,-1
 715.905 1388.44 l 6,27,28
 671.45 1325.37 671.45 1325.37 599.88 1281.81 c 4,29,30
 398.294 1157.85 398.294 1157.85 248.4 1152.36 c 5,31,-1
 248.4 1244.01 l 5,32,33
 408.671 1248.65 408.671 1248.65 554.781 1363.22 c 4,34,35
 580.142 1383.07 580.142 1383.07 601.135 1405.16 c 6,36,-1
 616.962 1421.83 l 5,37,-1
 594.529 1426.81 l 6,0,1
670.746 1496.7 m 5,38,-1
 681.77 1522.42 l 6,39,40
 692.45 1547.34 692.45 1547.34 692.45 1575.69 c 4,41,42
 692.45 1618.21 692.45 1618.21 669.524 1637.08 c 4,43,44
 647.734 1655.03 647.734 1655.03 621.67 1655.03 c 4,45,46
 593.241 1655.03 593.241 1655.03 577.329 1642.69 c 4,47,48
 553.03 1624.4 553.03 1624.4 553.03 1588.53 c 4,49,50
 553.03 1540.14 553.03 1540.14 609.352 1517.61 c 4,51,52
 631.256 1508.85 631.256 1508.85 659.577 1500.14 c 6,53,-1
 670.746 1496.7 l 5,38,-1
EndSplineSet
EndChar

StartChar: uni0650
Encoding: 1616 1616 80
Width: 0
VWidth: 2186
GlyphClass: 4
Flags: W
AnchorPoint: "Anchor-7" 467.84 -12.5 mark 0
AnchorPoint: "Anchor-6" 467.84 -12.5 mark 0
AnchorPoint: "Anchor-0" 556.84 -311.5 basemark 0
AnchorPoint: "Anchor-0" 467.84 -12.5 mark 0
LayerCount: 2
Fore
SplineSet
267.96 -356.836 m 1,0,-1
 267.96 -229.766 l 1,1,-1
 825.84 -1.45605 l 1,2,-1
 825.84 -128.526 l 1,3,-1
 267.96 -356.836 l 1,0,-1
EndSplineSet
EndChar

StartChar: uni0651
Encoding: 1617 1617 81
Width: 0
VWidth: 2186
GlyphClass: 4
Flags: W
AnchorPoint: "Anchor-10" 547.84 1316.5 mark 0
AnchorPoint: "Anchor-9" 547.84 1316.5 mark 0
AnchorPoint: "Anchor-1" 535.84 1818.5 basemark 0
AnchorPoint: "Anchor-1" 547.84 1316.5 mark 0
LayerCount: 2
Fore
SplineSet
507.838 1339.09 m 128,-1,1
 469.58 1294.39 469.58 1294.39 378.78 1294.39 c 0,2,3
 301.302 1294.39 301.302 1294.39 261.261 1355.91 c 0,4,5
 227 1408.31 227 1408.31 227 1486.07 c 0,6,7
 227 1527.41 227 1527.41 242.222 1626.56 c 1,8,-1
 320.73 1626.56 l 1,9,10
 310.14 1502.98 310.14 1502.98 310.14 1459.89 c 0,11,12
 310.14 1394.86 310.14 1394.86 398.84 1393.09 c 0,13,14
 497.128 1391.16 497.128 1391.16 506.266 1518.54 c 0,15,16
 508.184 1545.08 508.184 1545.08 508.4 1680.83 c 1,17,-1
 586.06 1680.83 l 1,18,19
 588.34 1645.85 588.34 1645.85 588.34 1597.53 c 0,20,21
 588.34 1452.09 588.34 1452.09 700.84 1452.09 c 4,22,23
 785.54 1452.09 785.54 1452.09 785.54 1599.06 c 4,24,25
 785.54 1708.64 785.54 1708.64 774.521 1770.1 c 5,26,-1
 857.705 1770.1 l 5,27,28
 868.68 1694.87 868.68 1694.87 868.68 1580.87 c 4,29,30
 868.68 1511.69 868.68 1511.69 841.188 1456.65 c 4,31,32
 796.118 1367.27 796.118 1367.27 722.84 1358.99 c 4,33,34
 657.525 1351.76 657.525 1351.76 616.258 1379.33 c 4,35,36
 556.63 1418.62 556.63 1418.62 554.84 1431.09 c 1,37,38
 546.096 1383.79 546.096 1383.79 507.838 1339.09 c 128,-1,1
EndSplineSet
EndChar

StartChar: uni0652
Encoding: 1618 1618 82
Width: 0
VWidth: 2186
GlyphClass: 4
Flags: W
AnchorPoint: "Anchor-10" 565.84 1128.5 mark 0
AnchorPoint: "Anchor-9" 565.84 1128.5 mark 0
AnchorPoint: "Anchor-1" 551.84 1702 basemark 0
AnchorPoint: "Anchor-1" 565.84 1128.5 mark 0
LayerCount: 2
Fore
SplineSet
674.569 1383.62 m 0,0,1
 674.569 1428.15 674.569 1428.15 643.439 1459.28 c 128,-1,2
 612.312 1490.41 612.312 1490.41 567.126 1490.41 c 0,3,4
 521.285 1490.41 521.285 1490.41 490.485 1459.61 c 128,-1,5
 459.685 1428.81 459.685 1428.81 459.685 1383.62 c 0,6,7
 459.685 1337.78 459.685 1337.78 490.485 1306.98 c 128,-1,8
 521.285 1276.18 521.285 1276.18 567.126 1276.18 c 0,9,10
 612.314 1276.18 612.314 1276.18 643.439 1307.31 c 128,-1,11
 674.569 1338.44 674.569 1338.44 674.569 1383.62 c 0,0,1
750.396 1383.73 m 128,-1,13
 750.396 1306.88 750.396 1306.88 697.316 1253.46 c 128,-1,14
 644.259 1200.07 644.259 1200.07 567.436 1200.07 c 128,-1,15
 490.613 1200.07 490.613 1200.07 437.557 1253.46 c 128,-1,16
 384.476 1306.88 384.476 1306.88 384.476 1383.73 c 128,-1,17
 384.476 1460.56 384.476 1460.56 437.537 1513.63 c 128,-1,18
 490.596 1566.69 490.596 1566.69 567.436 1566.69 c 128,-1,19
 644.276 1566.69 644.276 1566.69 697.335 1513.63 c 128,-1,12
 750.396 1460.56 750.396 1460.56 750.396 1383.73 c 128,-1,13
EndSplineSet
EndChar

StartChar: uni0653
Encoding: 1619 1619 83
Width: 0
VWidth: 2186
GlyphClass: 4
Flags: W
AnchorPoint: "Anchor-10" 442.84 1264.52 mark 0
AnchorPoint: "Anchor-9" 442.84 1264.52 mark 0
AnchorPoint: "Anchor-1" 442.84 1600.5 basemark 0
AnchorPoint: "Anchor-1" 442.84 1264.52 mark 0
LayerCount: 2
Fore
SplineSet
109.638 1365.05 m 1,0,1
 212.289 1479.87 212.289 1479.87 287.73 1453.49 c 0,2,3
 442.183 1397.9 442.183 1397.9 515.207 1405.97 c 0,4,5
 587.354 1413.79 587.354 1413.79 656.914 1479.92 c 1,6,-1
 704.93 1408.22 l 5,7,8
 629 1339 629 1339 559.504 1324.21 c 0,9,10
 466.210965874 1302.85029627 466.210965874 1302.85029627 293.235 1356.78 c 0,11,12
 239.766 1372.07 239.766 1372.07 165.102 1302.38 c 1,13,-1
 109.638 1365.05 l 1,0,1
EndSplineSet
EndChar

StartChar: uni0657
Encoding: 1623 1623 86
Width: 0
VWidth: 2186
GlyphClass: 4
Flags: W
AnchorPoint: "Anchor-10" 547.84 1279.5 mark 0
AnchorPoint: "Anchor-9" 547.84 1279.5 mark 0
AnchorPoint: "Anchor-1" 547.84 1975 basemark 0
AnchorPoint: "Anchor-1" 547.84 1279.5 mark 0
LayerCount: 2
Fore
SplineSet
501.148 1675.55 m 2,0,1
 509.083 1673.79 509.083 1673.79 527.945 1663.86 c 0,2,3
 636.49 1607.58 636.49 1607.58 636.49 1513.83 c 0,4,5
 636.49 1427.22 636.49 1427.22 567.86 1375.5 c 0,6,7
 541.366 1355.63 541.366 1355.63 478.29 1355.63 c 0,8,9
 405.468 1355.63 405.468 1355.63 366.487 1393.64 c 0,10,11
 311.53 1447.59 311.53 1447.59 311.53 1526.67 c 0,12,13
 311.53 1558.94 311.53 1558.94 325.923 1605.2 c 2,14,-1
 330.858 1621.06 l 1,15,-1
 314.272 1622.04 l 2,16,17
 295.871 1623.12 295.871 1623.12 276.421 1623.66 c 0,18,19
 263.452 1624.02 263.452 1624.02 248.4 1624.15 c 1,20,-1
 248.4 1715.83 l 1,21,22
 278.631 1715.51 278.631 1715.51 306.226 1713.79 c 0,23,24
 338.082 1711.66 338.082 1711.66 367.766 1708.48 c 2,25,-1
 375.369 1707.67 l 1,26,-1
 379.775 1713.92 l 2,27,28
 424.231 1776.99 424.231 1776.99 495.801 1820.55 c 0,29,30
 697.387 1944.51 697.387 1944.51 847.28 1950 c 1,31,-1
 847.28 1858.35 l 1,32,33
 687.009 1853.71 687.009 1853.71 540.898 1739.14 c 0,34,35
 515.54 1719.29 515.54 1719.29 494.545 1697.2 c 2,36,-1
 478.72 1680.54 l 1,37,-1
 501.148 1675.55 l 2,0,1
424.935 1605.66 m 1,38,-1
 413.911 1579.94 l 2,39,40
 403.23 1555.02 403.23 1555.02 403.23 1526.67 c 0,41,42
 403.23 1484.16 403.23 1484.16 426.155 1465.28 c 0,43,44
 447.946 1447.33 447.946 1447.33 474.01 1447.33 c 0,45,46
 502.438 1447.33 502.438 1447.33 518.352 1459.67 c 0,47,48
 542.65 1477.96 542.65 1477.96 542.65 1513.83 c 0,49,50
 542.65 1562.22 542.65 1562.22 486.328 1584.75 c 0,51,52
 464.442 1593.51 464.442 1593.51 436.104 1602.22 c 2,53,-1
 424.935 1605.66 l 1,38,-1
EndSplineSet
EndChar

StartChar: uni065A
Encoding: 1626 1626 87
Width: 1095
VWidth: 2186
GlyphClass: 4
Flags: W
AnchorPoint: "Anchor-10" 547.84 1279.5 mark 0
AnchorPoint: "Anchor-9" 547.84 1279.5 mark 0
AnchorPoint: "Anchor-1" 545.7 1761 basemark 0
AnchorPoint: "Anchor-1" 547.84 1279.5 mark 0
LayerCount: 2
Fore
SplineSet
476.032 1358.84 m 1,0,-1
 282.934 1681.66 l 1,1,-1
 401.783 1681.66 l 1,2,-1
 547.84 1462.57 l 1,3,-1
 693.896 1681.66 l 1,4,-1
 812.746 1681.66 l 1,5,-1
 619.646 1358.84 l 1,6,-1
 476.032 1358.84 l 1,0,-1
EndSplineSet
EndChar

StartChar: afii57392
Encoding: 1632 1632 88
Width: 1177
VWidth: 2186
GlyphClass: 2
Flags: W
LayerCount: 2
Fore
SplineSet
502.74 608.61 m 128,-1,1
 502.74 568.984 502.74 568.984 531.157 540.567 c 128,-1,2
 559.574 512.15 559.574 512.15 599.2 512.15 c 128,-1,3
 638.825 512.15 638.825 512.15 667.242 540.567 c 128,-1,4
 695.66 568.985 695.66 568.985 695.66 608.61 c 128,-1,5
 695.66 648.234 695.66 648.234 667.242 676.652 c 128,-1,6
 638.824 705.07 638.824 705.07 599.2 705.07 c 128,-1,7
 559.575 705.07 559.575 705.07 531.157 676.652 c 128,-1,0
 502.74 648.235 502.74 648.235 502.74 608.61 c 128,-1,1
352.267 605.562 m 128,-1,9
 352.267 709.377 352.267 709.377 425.556 783.094 c 128,-1,10
 498.81 856.775 498.81 856.775 601.947 856.775 c 128,-1,11
 705.089 856.775 705.089 856.775 778.339 783.094 c 128,-1,12
 851.626 709.375 851.626 709.375 851.626 605.562 c 128,-1,13
 851.626 501.743 851.626 501.743 778.339 428.031 c 128,-1,14
 705.083 354.351 705.083 354.351 601.947 354.351 c 128,-1,15
 498.809 354.351 498.809 354.351 425.556 428.031 c 128,-1,8
 352.267 501.745 352.267 501.745 352.267 605.562 c 128,-1,9
EndSplineSet
EndChar

StartChar: afii57393
Encoding: 1633 1633 89
Width: 1177
VWidth: 2186
GlyphClass: 2
Flags: W
LayerCount: 2
Fore
SplineSet
735.995 8.5 m 1,0,-1
 569.393 8.5 l 1,1,2
 568.867 418.011 568.867 418.011 529.627 687.823 c 0,3,4
 485.039 991.048 485.039 991.048 390.09 1208.5 c 1,5,-1
 571.492 1208.5 l 1,6,7
 669.12 920.247 669.12 920.247 702.028 683.021 c 0,8,9
 735.629 435.9 735.629 435.9 735.995 8.5 c 1,0,-1
EndSplineSet
EndChar

StartChar: afii57394
Encoding: 1634 1634 90
Width: 1177
VWidth: 2186
GlyphClass: 2
Flags: W
LayerCount: 2
Fore
SplineSet
484.553 724.034 m 2,0,1
 488.431 703.528 488.431 703.528 492.309 683.021 c 0,2,3
 525.838 520.605 525.838 520.605 526.275 8.5 c 1,4,-1
 359.672 8.5 l 1,5,6
 359.102 445.289 359.102 445.289 330.928 641.75 c 0,7,8
 292.477 928.765 292.477 928.765 187.37 1202.5 c 1,9,-1
 365.076 1202.5 l 1,10,11
 405.216 1073.61 405.216 1073.61 417.137 1037.98 c 0,12,13
 473.787 868.66 473.787 868.66 654.758 868.66 c 1,14,15
 843.666 865.765 843.666 865.765 852.035 1018.01 c 0,16,17
 852.479 1026.04 852.479 1026.04 853.416 1202.5 c 1,18,-1
 996.53 1202.5 l 1,19,20
 1000.58 1013.11 1000.58 1013.11 987.48 937.08 c 0,21,22
 947.001 702.061 947.001 702.061 660.19 702.061 c 4,23,24
 557.414 702.061 557.414 702.061 504.45 738 c 2,25,-1
 476.095 757.241 l 1,26,-1
 484.553 724.034 l 2,0,1
EndSplineSet
EndChar

StartChar: afii57395
Encoding: 1635 1635 91
Width: 1177
VWidth: 2186
GlyphClass: 2
Flags: W
LayerCount: 2
Fore
SplineSet
742.313 1018 m 0,0,1
 741 875 741 875 839.311523438 869.030273438 c 0,2,3
 940 863 940 863 947.28 1017 c 0,4,5
 948 1033 948 1033 946.887 1202.04 c 1,6,-1
 1093.48046875 1202.04003906 l 1,7,8
 1100 933 1100 933 1059 839 c 0,9,10
 1001 703 1001 703 875 702 c 0,11,12
 742 701 742 701 674.95 806.291 c 1,13,14
 629 700 629 700 509.95 702 c 0,15,16
 436.401848528 702.994565943 436.401848528 702.994565943 395.45 736 c 2,17,-1
 369.095 757.241 l 1,18,-1
 377.553 724.034 l 2,19,20
 381 704 381 704 385.309 683.021 c 0,21,22
 419 506 419 506 419.275 8.5 c 1,23,-1
 252.672 8.5 l 1,24,25
 252 424 252 424 212.907 687.823 c 0,26,27
 168 991 168 991 88.3701 1202.5 c 1,28,-1
 258.076 1202.5 l 1,29,30
 298 1074 298 1074 310.137 1037.98 c 0,31,32
 367 869 367 869 476.758 868.66 c 1,33,34
 600 866 600 866 599.035 1018.01 c 0,35,36
 599 1026 599 1026 599.416 1202.5 c 1,37,-1
 742.53 1202.5 l 1,38,39
 743 1117 743 1117 742.313 1018 c 0,0,1
EndSplineSet
EndChar

StartChar: afii57396
Encoding: 1636 1636 92
Width: 1177
VWidth: 2186
GlyphClass: 2
Flags: W
LayerCount: 2
Fore
SplineSet
760.839 1207.27 m 1,0,-1
 751.858 1063.39 l 1,1,2
 625.316 1076.51 625.316 1076.51 541.384 1038.87 c 1,3,4
 438.795 990.404 438.795 990.404 442.861 912.49 c 0,5,6
 445.485 851.287 445.485 851.287 567.848 805.981 c 0,7,8
 606.676 791.282 606.676 791.282 747.77 777.245 c 1,9,-1
 747.77 625.173 l 1,10,11
 546.18 594.804 546.18 594.804 451.58 520.371 c 0,12,13
 350.527 440.86 350.527 440.86 366.864 328.529 c 0,14,15
 395.427 120.352 395.427 120.352 751.844 169.516 c 0,16,17
 836.288 181.146 836.288 181.146 963.91 242.83 c 1,18,-1
 963.91 62.7109 l 1,19,20
 838.77 12.291 838.77 12.291 672.165 0.766602 c 0,21,22
 194.413 -30.977 194.413 -30.977 197.58 349.371 c 0,23,24
 199.777 614.177 199.777 614.177 508.735 700.91 c 1,25,26
 312.075 739.08 312.075 739.08 289.852 859.697 c 0,27,28
 251.299 1068.94 251.299 1068.94 444.796 1160.15 c 0,29,30
 553.558 1211.42 553.558 1211.42 760.839 1207.27 c 1,0,-1
EndSplineSet
EndChar

StartChar: afii57397
Encoding: 1637 1637 93
Width: 1177
VWidth: 2186
GlyphClass: 2
Flags: W
LayerCount: 2
Fore
SplineSet
431 699.75 m 4,0,1
 324 539 324 539 317.362 421.972 c 4,2,3
 311 295 311 295 390.192382812 230.749023438 c 4,4,5
 463 172 463 172 610.900390625 171.625 c 4,6,7
 782 171 782 171 829.541992188 251.62109375 c 4,8,9
 874 326 874 326 866.81 447.887 c 4,10,11
 860.128808479 565.728109708 860.128808479 565.728109708 751 705.75 c 4,12,13
 684 791 684 791 571.718 858.543 c 5,14,15
 491 791 491 791 431 699.75 c 4,0,1
386 986 m 5,16,-1
 481.5546875 1119.84667969 l 5,17,18
 801 974 801 974 935.281 742.605 c 4,19,20
 1022 594 1022 594 1029.62 434.811 c 4,21,22
 1041 216 1041 216 948.95 121.093 c 4,23,24
 834 3 834 3 594.577 4.03711 c 5,25,26
 351 4 351 4 240.251 121.044 c 4,27,28
 125 243 125 243 149.925 434.811 c 4,29,30
 170 588 170 588 248.46 718.848 c 4,31,32
 348 884 348 884 440 956 c 5,33,-1
 386 986 l 5,16,-1
EndSplineSet
EndChar

StartChar: afii57398
Encoding: 1638 1638 94
Width: 1177
VWidth: 2186
GlyphClass: 2
Flags: W
LayerCount: 2
Fore
SplineSet
922.247 1198.04 m 1,0,1
 923.605 808.204 923.605 808.204 961.881 522.996 c 0,2,3
 1004.63 219.996 1004.63 219.996 1057.92 8.5 c 1,4,-1
 875.021 8.5 l 1,5,6
 809.360820788 308.94098534 809.360820788 308.94098534 789.804 525.565 c 4,7,8
 756 900 756 900 757.521 1003.62 c 1,9,-1
 741.12 998.84 l 2,10,11
 640.112 969.4 640.112 969.4 490.1 969.4 c 0,12,13
 306.589 969.4 306.589 969.4 133.95 1019.62 c 1,14,-1
 133.95 1197.49 l 1,15,16
 319.405 1148 319.405 1148 490.1 1148 c 0,17,18
 707.834 1148 707.834 1148 922.247 1198.04 c 1,0,1
EndSplineSet
EndChar

StartChar: afii57399
Encoding: 1639 1639 95
Width: 1177
VWidth: 2186
GlyphClass: 2
Flags: W
LayerCount: 2
Fore
SplineSet
504.29 8.5 m 1,0,1
 447.346 386.351 447.346 386.351 381.562 598.569 c 0,2,3
 256.459 999.15 256.459 999.15 128.958 1198.5 c 1,4,-1
 320.854 1198.5 l 5,5,6
 454.459 924.15 454.459 924.15 522.5 714.179 c 0,7,8
 566.34 575.443 566.34 575.443 588.5 453.533 c 1,9,10
 613.447 590.773 613.447 590.773 654.5 714.179 c 0,11,12
 736.959 964.05 736.959 964.05 862.146 1198.5 c 1,13,-1
 1039.96 1198.5 l 1,14,15
 867.522 861.524 867.522 861.524 795.312 598.138 c 0,16,17
 706.193 273.075 706.193 273.075 673.29 8.5 c 1,18,-1
 504.29 8.5 l 1,0,1
EndSplineSet
EndChar

StartChar: afii57400
Encoding: 1640 1640 96
Width: 1177
VWidth: 2186
GlyphClass: 2
Flags: W
LayerCount: 2
Fore
SplineSet
504.29 1198.5 m 5,0,1
 673.29 1198.5 l 1,2,3
 706.193 933.925 706.193 933.925 795.312 608.862 c 0,4,5
 867.521 345.477 867.521 345.477 1039.96 8.5 c 1,6,-1
 862.146 8.5 l 1,7,8
 736.959 242.95 736.959 242.95 654.5 492.821 c 0,9,10
 613.446 616.227 613.446 616.227 588.5 753.467 c 1,11,12
 565.031 624.356 565.031 624.356 522.5 492.821 c 0,13,14
 455.849 286.691 455.849 286.691 315.854 8.5 c 1,15,-1
 123.958 8.5 l 1,16,17
 243.569 192.65 243.569 192.65 381.562 608.431 c 0,18,19
 444.588 802.347 444.588 802.347 504.29 1198.5 c 5,0,1
EndSplineSet
EndChar

StartChar: afii57401
Encoding: 1641 1641 97
Width: 1177
VWidth: 2186
GlyphClass: 2
Flags: W
LayerCount: 2
Fore
SplineSet
777.21 462.29 m 2,0,1
 579.404 462.29 579.404 462.29 495.195 481.02 c 0,2,3
 311.998 522.162 311.998 522.162 232.965 609.351 c 0,4,5
 145 706.393 145 706.393 145 821.65 c 0,6,7
 145 975.34 145 975.34 240.917 1071.33 c 0,8,9
 371.684 1203.2 371.684 1203.2 524.69 1202.2 c 0,10,11
 707.945 1202.2 707.945 1202.2 792.727 1120.45 c 0,12,13
 912.868 1003.57 912.868 1003.57 926.885 815.34 c 0,14,15
 943.594 589.691 943.594 589.691 956.904 509.794 c 4,16,17
 1019.46 155.279 1019.46 155.279 1063.93 8.5 c 1,18,-1
 881.426 8.5 l 1,19,20
 796.017 396.298 796.017 396.298 790.135 450.688 c 2,21,-1
 788.88 462.29 l 1,22,-1
 777.21 462.29 l 2,0,1
764.53 629.96 m 1,23,-1
 764.53 736.05 l 2,24,25
 764.53 862.96 764.53 862.96 717.94 926.49 c 0,26,27
 641.674 1033.6 641.674 1033.6 530.04 1032.6 c 0,28,29
 440.265 1032.6 440.265 1032.6 375.496 970.11 c 0,30,31
 311.6 908.5 311.6 908.5 311.6 827 c 0,32,33
 311.6 756.177 311.6 756.177 381.163 700.514 c 0,34,35
 421.683 668.091 421.683 668.091 503.473 648.508 c 0,36,37
 580.938 629.96 580.938 629.96 751.53 629.96 c 2,38,-1
 764.53 629.96 l 1,23,-1
EndSplineSet
EndChar

StartChar: afii57381
Encoding: 1642 1642 98
Width: 1177
VWidth: 2186
GlyphClass: 2
Flags: W
LayerCount: 2
Fore
SplineSet
138.85546875 1114.14648438 m 128,-1,1
 138.85546875 1163.88769531 138.85546875 1163.88769531 174.055664062 1199.08886719 c 128,-1,2
 209.256835938 1234.29003906 209.256835938 1234.29003906 259 1234.29003906 c 128,-1,3
 308.743164062 1234.29003906 308.743164062 1234.29003906 343.943359375 1199.08886719 c 128,-1,4
 379.14453125 1163.88867188 379.14453125 1163.88867188 379.14453125 1114.14648438 c 128,-1,5
 379.14453125 1064.40136719 379.14453125 1064.40136719 343.943359375 1029.20117188 c 128,-1,6
 308.743164062 994 308.743164062 994 259 994 c 128,-1,7
 209.256835938 994 209.256835938 994 174.055664062 1029.20117188 c 128,-1,0
 138.85546875 1064.40039062 138.85546875 1064.40039062 138.85546875 1114.14648438 c 128,-1,1
736.85546875 127.146484375 m 4,8,9
 737 177 737 177 772.055664062 212.088867188 c 132,-1,10
 807 247 807 247 857 247.290039062 c 4,11,12
 907 247 907 247 941.943359375 212.088867188 c 132,-1,13
 977 177 977 177 977.14453125 127.146484375 c 4,14,15
 977 77 977 77 941.943359375 42.201171875 c 4,16,17
 907 7 907 7 857 7 c 132,-1,18
 807 7 807 7 772.055664062 42.201171875 c 4,19,20
 737 77 737 77 736.85546875 127.146484375 c 4,8,9
796.083984375 1233.03027344 m 1,21,-1
 938 1233.03027344 l 1,22,-1
 305.606 8.5 l 1,23,-1
 163.693 8.5 l 1,24,-1
 796.083984375 1233.03027344 l 1,21,-1
EndSplineSet
EndChar

StartChar: uni066B
Encoding: 1643 1643 99
Width: 711
VWidth: 2186
GlyphClass: 2
Flags: W
LayerCount: 2
Fore
SplineSet
443.218 502.139 m 1,0,-1
 568.799 501.203 l 1,1,2
 342.799 113.203 342.799 113.203 130 -230.265 c 1,3,-1
 1.59766 -228.502 l 1,4,5
 94.7988 -78.7969 94.7988 -78.7969 443.218 502.139 c 1,0,-1
EndSplineSet
EndChar

StartChar: uni066C
Encoding: 1644 1644 100
Width: 696
VWidth: 2186
GlyphClass: 2
Flags: W
LayerCount: 2
Fore
SplineSet
291.2 1580.01 m 1,0,-1
 490.97 1580.01 l 1,1,-1
 490.97 1433.52 l 1,2,-1
 320.557 1102.04 l 1,3,-1
 207.225 1102.04 l 1,4,-1
 291.2 1428.73 l 1,5,-1
 291.2 1580.01 l 1,0,-1
EndSplineSet
EndChar

StartChar: afii63167
Encoding: 1645 1645 101
Width: 1194
VWidth: 2186
GlyphClass: 2
Flags: W
LayerCount: 2
Fore
SplineSet
132.901 794.63 m 1,0,-1
 486.633 794.63 l 1,1,-1
 597.061 1130.84 l 1,2,-1
 707.487 794.63 l 1,3,-1
 1061.22 794.63 l 1,4,-1
 775.453 585.725 l 1,5,-1
 884.797 249.809 l 1,6,-1
 597.061 457.729 l 1,7,-1
 309.323 249.809 l 1,8,-1
 418.667 585.725 l 1,9,-1
 132.901 794.63 l 1,0,-1
EndSplineSet
EndChar

StartChar: uni066E
Encoding: 1646 1646 102
Width: 1667
VWidth: 2186
GlyphClass: 2
Flags: W
AnchorPoint: "Anchor-10" 763.22 1056.5 basechar 0
AnchorPoint: "Anchor-7" 763.22 -174 basechar 0
LayerCount: 2
Fore
SplineSet
870.624 0 m 5,0,-1
 416.624 0 l 6,1,2
 90.9987 -0.333132 90.9987 -0.333132 90.9971 385.499 c 6,3,-1
 90.9961 628.499 l 5,4,-1
 260.996 628.499 l 5,5,-1
 260.996 394.499 l 6,6,7
 260.996 178.98 260.996 178.98 420.475 178.98 c 6,8,-1
 870.624 178.98 l 5,9,-1
 1268.77 178.98 l 6,10,11
 1428.25 178.981 1428.25 178.981 1428.25 393.499 c 6,12,-1
 1428.25 628.499 l 5,13,-1
 1598.25 628.499 l 5,14,-1
 1598.25 390.499 l 6,15,16
 1598.25 0 1598.25 0 1271.62 0 c 6,17,-1
 870.624 0 l 5,0,-1
EndSplineSet
Substitution2: "'init' Initial Forms in Arabic lookup 13 subtable" uni066E.init
Substitution2: "'medi' Medial Forms in Arabic lookup 11 subtable" uni066E.medi
Substitution2: "'fina' Terminal Forms in Arabic lookup 9 subtable" uni066E.fina
EndChar

StartChar: uni066F
Encoding: 1647 1647 103
Width: 1332
VWidth: 2186
GlyphClass: 2
Flags: W
AnchorPoint: "Anchor-10" 315 1050.5 basechar 0
AnchorPoint: "Anchor-7" 376 -547 basechar 0
LayerCount: 2
Fore
SplineSet
1240.28027344 97.412109375 m 5,0,-1
 1239.90039062 63.130859375 l 2,1,2
 1234.62423593 -412.998020897 1234.62423593 -412.998020897 735.273 -410.368 c 6,3,-1
 642.901 -409.869 l 5,4,-1
 619.601 -409.869 l 6,5,6
 90.9999921681 -409.869 90.9999921681 -409.869 90.9727 46.6299 c 6,7,-1
 90.9727 279.131 l 6,8,9
 90.9727 399.000107571 90.9727 399.000107571 184.901 398.63 c 6,10,-1
 260.973 398.63 l 5,11,-1
 260.973 228.298 l 5,12,-1
 260.973 47.6299 l 6,13,14
 260.973 -231.000008315 260.973 -231.000008315 621.451 -230.889 c 6,15,-1
 642.901 -230.889 l 5,16,-1
 742.423 -230.388 l 6,17,18
 1068.00170266 -228.749016358 1068.00170266 -228.749016358 1069.90039062 51.130859375 c 6,19,-1
 1070.28027344 97.412109375 l 5,20,21
 1030 97 1030 97 912.767578125 97.205078125 c 4,22,23
 776 97 776 97 706.486328125 174.0703125 c 4,24,25
 634 253 634 253 648.241210938 436.342773438 c 4,26,27
 658 566 658 566 717.534179688 631.600585938 c 4,28,29
 797 720 797 720 952.448242188 717.040039062 c 4,30,31
 1196 712 1196 712 1233.48535156 472.09765625 c 4,32,33
 1242 419 1242 419 1240.66113281 354.780273438 c 4,34,35
 1239 257 1239 257 1240.28027344 210.412109375 c 5,36,-1
 1240.28027344 97.412109375 l 5,0,-1
948.486328125 550.0703125 m 4,37,38
 811.284179688 556.57421875 811.284179688 556.57421875 801.185546875 415.185546875 c 4,39,40
 794.986328125 324.661132812 794.986328125 324.661132812 837.486328125 296.59765625 c 4,41,42
 894.704101562 259.5 894.704101562 259.5 1073.33300781 279.34765625 c 1,43,44
 1080.69726562 451.069335938 1080.69726562 451.069335938 1050.48632812 500.458984375 c 4,45,46
 1022.69824219 546.74609375 1022.69824219 546.74609375 948.486328125 550.0703125 c 4,37,38
EndSplineSet
Substitution2: "'init' Initial Forms in Arabic lookup 13 subtable" uni066F.init
Substitution2: "'medi' Medial Forms in Arabic lookup 11 subtable" uni066F.medi
Substitution2: "'fina' Terminal Forms in Arabic lookup 9 subtable" uni066F.fina
EndChar

StartChar: uni0670
Encoding: 1648 1648 104
Width: 0
VWidth: 2186
GlyphClass: 4
Flags: W
AnchorPoint: "Anchor-10" 547.84 1279.5 mark 0
AnchorPoint: "Anchor-9" 547.84 1279.5 mark 0
AnchorPoint: "Anchor-1" 547.84 1975 basemark 0
AnchorPoint: "Anchor-1" 547.84 1279.5 mark 0
LayerCount: 2
Fore
SplineSet
501.99 1327.81 m 5,0,-1
 501.99 1926.69 l 5,1,-1
 593.69 1926.69 l 5,2,-1
 593.69 1327.81 l 5,3,-1
 501.99 1327.81 l 5,0,-1
EndSplineSet
EndChar

StartChar: uni0674
Encoding: 1652 1652 105
Width: 639
VWidth: 2186
GlyphClass: 2
Flags: W
LayerCount: 2
Fore
SplineSet
145.54 1513.67 m 5,0,-1
 260.506 1540.2 l 5,1,-1
 255.134 1542.64 l 6,2,3
 147.68 1591.5 147.68 1591.5 147.68 1692.52 c 4,4,5
 147.68 1764.89 147.68 1764.89 207.315 1817.49 c 4,6,7
 257.742 1861.48 257.742 1861.48 343 1862 c 4,8,9
 409.565 1862 409.565 1862 460.08 1832.66 c 5,10,-1
 460.08 1759.96 l 5,11,12
 391.561 1791.91 391.561 1791.91 336.842 1786.29 c 4,13,14
 224.701 1774.86 224.701 1774.86 218.267 1701.25 c 4,15,16
 210.514 1611.48 210.514 1611.48 329.581 1575.42 c 4,17,18
 365.845 1564.43 365.845 1564.43 482.55 1591.18 c 5,19,-1
 482.55 1513 l 5,20,-1
 145.54 1437.34 l 5,21,-1
 145.54 1513.67 l 5,0,-1
EndSplineSet
EndChar

StartChar: uni06A1
Encoding: 1697 1697 109
Width: 1697
VWidth: 2186
GlyphClass: 2
Flags: W
AnchorPoint: "Anchor-10" 351.55 1230.28 basechar 0
AnchorPoint: "Anchor-7" 458.55 -147.88 basechar 0
LayerCount: 2
Fore
SplineSet
1429 328 m 5,0,1
 1389 328 1389 328 1277.48730469 327.79296875 c 4,2,3
 1140 328 1140 328 1071.20605469 404.658203125 c 4,4,5
 999 484 999 484 1012.9609375 666.930664062 c 4,6,7
 1023 797 1023 797 1082.25390625 862.188476562 c 4,8,9
 1162 951 1162 951 1317.16796875 947.627929688 c 4,10,11
 1561 943 1561 943 1598.20507812 702.685546875 c 4,12,13
 1606 650 1606 650 1605.38085938 585.368164062 c 4,14,15
 1605 453 1605 453 1605 441 c 5,16,-1
 1605 328 l 6,17,-1
 1605 324 l 6,18,19
 1605 -1.18748867831 1605 -1.18748867831 1154.87 0 c 6,20,-1
 870.945 0.749023 l 5,21,-1
 416.945 0.749023 l 6,22,23
 90.9997925724 0.749023 90.9997925724 0.749023 91.3184 386.248 c 6,24,-1
 91.3174 629.248 l 5,25,-1
 261.317 629.248 l 5,26,-1
 261.317 395.248 l 6,27,28
 261.317 179.999462396 261.317 179.999462396 420.796 179.729 c 6,29,-1
 870.945 179.729 l 5,30,-1
 1117.87 180 l 6,31,32
 1416.02872812 180.327228978 1416.02872812 180.327228978 1427.53 311.333 c 6,33,-1
 1429 328 l 5,0,1
1313.20605469 780.658203125 m 4,34,35
 1176 787 1176 787 1165.90527344 645.7734375 c 4,36,37
 1160 555 1160 555 1202.20605469 527.185546875 c 4,38,39
 1259 490 1259 490 1438.05273438 509.935546875 c 5,40,41
 1445 682 1445 682 1415.20605469 731.046875 c 4,42,43
 1387 777 1387 777 1313.20605469 780.658203125 c 4,34,35
EndSplineSet
Substitution2: "'init' Initial Forms in Arabic lookup 13 subtable" uni06A1.init
Substitution2: "'medi' Medial Forms in Arabic lookup 11 subtable" uni06A1.medi
Substitution2: "'fina' Terminal Forms in Arabic lookup 9 subtable" uni06A1.fina
EndChar

StartChar: uni06A9
Encoding: 1705 1705 110
Width: 1637
VWidth: 2186
GlyphClass: 2
Flags: W
AnchorPoint: "Anchor-10" 387 1207.34 basechar 0
AnchorPoint: "Anchor-7" 370 -258.661 basechar 0
LayerCount: 2
Fore
SplineSet
957.624 0 m 5,0,-1
 431.624 0 l 6,1,2
 95.9987 -0.333132 95.9987 -0.333132 95.9971 385.499 c 6,3,-1
 95.9961 628.499 l 5,4,-1
 265.996 628.499 l 5,5,-1
 265.996 394.499 l 6,6,7
 265.996 178.98 265.996 178.98 425.475 178.98 c 6,8,-1
 957.624 178.98 l 5,9,-1
 1134.39 179.004 l 6,10,11
 1365.07 179.034 1365.07 179.034 1369.54 284.402 c 4,12,13
 1372.95 365.069 1372.95 365.069 1282.54 428.401 c 6,14,-1
 984.883 636.896 l 6,15,16
 899.492 696.709 899.492 696.709 894.544 758.141 c 4,17,18
 883.001 901.302 883.001 901.302 999.564 955.45 c 6,19,-1
 1603.45 1235.98 l 5,20,-1
 1603.45 1059.3 l 5,21,22
 1326.92 927.152 1326.92 927.152 1050.39 795 c 5,23,-1
 1390.02 552.904 l 4,24,25
 1546.67 443.55 1546.67 443.55 1525.54 257.402 c 4,26,27
 1510.22 122.53 1510.22 122.53 1414.54 59.4023 c 4,28,29
 1324.5 0 1324.5 0 1175.72 0 c 6,30,-1
 957.624 0 l 5,0,-1
EndSplineSet
Substitution2: "'init' Initial Forms in Arabic lookup 13 subtable" uniFB90
Substitution2: "'medi' Medial Forms in Arabic lookup 11 subtable" uniFB91
Substitution2: "'fina' Terminal Forms in Arabic lookup 9 subtable" uniFB8F
EndChar

StartChar: afii57514
Encoding: 1722 1722 112
Width: 1409
VWidth: 2186
GlyphClass: 2
Flags: W
AnchorPoint: "Anchor-10" 643.11 798 basechar 0
AnchorPoint: "Anchor-7" 665.58 -592.02 basechar 0
LayerCount: 2
Fore
SplineSet
1318.9 82.1309 m 5,0,-1
 1318.9 43.1309 l 6,1,2
 1318.9 -442.451 1318.9 -442.451 757.273 -452.368 c 6,3,-1
 728.901 -452.869 l 5,4,-1
 691.601 -452.869 l 6,5,6
 90.9727 -452.869 90.9727 -452.869 90.9727 46.6299 c 6,7,-1
 90.9727 279.131 l 6,8,9
 90.9727 398.63 90.9727 398.63 184.901 398.63 c 6,10,-1
 260.973 398.63 l 5,11,-1
 260.973 228.298 l 5,12,-1
 260.973 47.6299 l 6,13,14
 260.973 -273.889 260.973 -273.889 693.451 -273.889 c 6,15,-1
 728.901 -273.889 l 5,16,-1
 764.423 -273.388 l 6,17,18
 1146.9 -267.993 1146.9 -267.993 1146.9 51.1309 c 6,19,-1
 1146.9 92.1309 l 6,20,21
 1146.9 523.503 1146.9 523.503 1146.5 533.912 c 5,22,-1
 1318.9 534 l 5,23,-1
 1318.9 82.1309 l 5,0,-1
EndSplineSet
Substitution2: "'init' Initial Forms in Arabic lookup 13 subtable" uni06BA.init
Substitution2: "'medi' Medial Forms in Arabic lookup 11 subtable" uni06BA.medi
Substitution2: "'fina' Terminal Forms in Arabic lookup 9 subtable" uniFB9F
EndChar

StartChar: uni06F4
Encoding: 1780 1780 119
Width: 1177
VWidth: 2186
GlyphClass: 2
Flags: W
LayerCount: 2
Fore
SplineSet
385.713 943.61 m 2,0,1
 397.591 906.79 l 1,2,-1
 410.356 943.311 l 2,3,4
 476 1131 476 1131 624.28125 1193.78027344 c 0,5,6
 765 1253 765 1253 969.84 1191.47 c 1,7,-1
 969.84 1051.06 l 1,8,9
 932 1063 932 1063 840.56 1074.67 c 0,10,11
 679 1095 679 1095 596.383 1010.95 c 0,12,13
 489 902 489 902 556.067 792.815 c 0,14,15
 605 714 605 714 798.249 713.86 c 0,16,17
 853 714 853 714 1027.32 739.636 c 1,18,-1
 1029.58 593.774 l 1,19,20
 895 562 895 562 795 562 c 4,21,22
 586 562 586 562 494.136 635.076 c 2,23,-1
 462.58 660.254 l 1,24,-1
 476.795 621.526 l 2,25,26
 489 588 489 588 499.192 507.668 c 0,27,28
 529 262 529 262 526.4 8.5 c 1,29,-1
 359.672 8.5 l 1,30,31
 359 323 359 323 326.91 511.807 c 0,32,33
 275 815 275 815 114.37 1197.5 c 1,34,-1
 298.455 1197.5 l 1,35,36
 366 1005 366 1005 385.713 943.61 c 2,0,1
EndSplineSet
EndChar

StartChar: uni06F5
Encoding: 1781 1781 120
Width: 1177
VWidth: 2186
GlyphClass: 2
Flags: W
LayerCount: 2
Fore
SplineSet
648.971 286.662 m 2,0,1
 677.597 178.259 677.597 178.259 783.652 181.28 c 0,2,3
 974.016 185.824 974.016 185.824 888.266 430.917 c 0,4,5
 782.648 730.85 782.648 730.85 589.37 970.98 c 1,6,7
 391.756 706.675 391.756 706.675 300.996 426.551 c 0,8,9
 278.307 356.52 278.307 356.52 278.266 306.688 c 0,10,11
 278.168 184.453 278.168 184.453 417.314 184.453 c 0,12,13
 507.95 184.453 507.95 184.453 543.949 287 c 2,14,-1
 544.996 289.982 l 1,15,-1
 648.095 289.982 l 1,16,-1
 648.971 286.662 l 2,0,1
388.034 4.82129 m 0,17,18
 135.312 4.82031 135.312 4.82031 121.982 255.407 c 0,19,20
 104.483 584.408 104.483 584.408 549.047 1160.64 c 0,21,22
 591.787 1216.04 591.787 1216.04 636.964 1160.64 c 0,23,24
 1090.91 603.992 1090.91 603.992 1056.53 258.84 c 0,25,26
 1031.79 9.66211 1031.79 9.66211 799.745 5.27734 c 0,27,28
 641.918 2.0752 641.918 2.0752 591.946 140.812 c 1,29,30
 542.878 4.82227 542.878 4.82227 388.034 4.82129 c 0,17,18
EndSplineSet
EndChar

StartChar: uni06F6
Encoding: 1782 1782 121
Width: 1177
VWidth: 2186
GlyphClass: 2
Flags: W
LayerCount: 2
Fore
SplineSet
273.351 8.5 m 5,0,1
 315.695 182.519 315.695 182.519 386.799 330.762 c 4,2,3
 462.227 488.02 462.227 488.02 545.84 558.273 c 5,4,5
 278.218 592.763 278.218 592.763 264.413 835.062 c 4,6,7
 255.545 990.723 255.545 990.723 347.914 1095.29 c 4,8,9
 445.498 1204.8 445.498 1204.8 612.913 1203.8 c 4,10,11
 742.154 1203.8 742.154 1203.8 819.474 1178.33 c 5,12,-1
 819.474 1016.97 l 5,13,14
 584.824 1108.93 584.824 1108.93 473.93 997.533 c 4,15,16
 415.014 937.043 415.014 937.043 415.014 847.903 c 4,17,18
 415.014 682.073 415.014 682.073 643.153 682.073 c 4,19,20
 782.645 682.073 782.645 682.073 882.674 719.721 c 5,21,-1
 882.674 555.75 l 5,22,23
 662.084 460.92 662.084 460.92 569.596 315.273 c 4,24,25
 493.329 195.172 493.329 195.172 438.908 8.5 c 5,26,-1
 273.351 8.5 l 5,0,1
EndSplineSet
EndChar

StartChar: uniFB8F
Encoding: 64399 64399 136
Width: 1756
VWidth: 2186
GlyphClass: 2
Flags: W
AnchorPoint: "Anchor-7" 406 -238 basechar 0
AnchorPoint: "Anchor-10" 433 1179.5 basechar 0
LayerCount: 2
Fore
SplineSet
889.223 0 m 5,0,-1
 431.624 0 l 6,1,2
 95.9986864156 -1.53727341967e-09 95.9986864156 -1.53727341967e-09 95.9971 385.499 c 6,3,-1
 95.9961 628.499 l 5,4,-1
 265.996 628.499 l 5,5,-1
 265.996 394.499 l 6,6,7
 266.000000371 178.98 266.000000371 178.98 425.475 178.98 c 6,8,-1
 889.223 178.98 l 5,9,-1
 1151.99 179.004 l 6,10,11
 1386 179 1386 179 1388 286 c 4,12,13
 1389.99487552 364.797583018 1389.99487552 364.797583018 1295.13964844 431.401367188 c 6,14,-1
 1002.48 636.896 l 6,15,16
 916 698 916 698 912.143 758.14 c 4,17,18
 900.963174081 901.472130562 900.963174081 901.472130562 1017.16 955.45 c 6,19,-1
 1621.05 1235.98 l 5,20,-1
 1621.05 1059.3 l 5,21,22
 1345 927 1345 927 1067.99 795 c 5,23,-1
 1402.62011719 555.904296875 l 4,24,25
 1553 466 1553 466 1544.11 266.402 c 5,26,27
 1598.76135329 179.38 1598.76135329 179.38 1721.74 179.38 c 6,28,-1
 1774.77 179.38 l 5,29,-1
 1774.77 0.5 l 5,30,-1
 1712.03 0.5 l 6,31,32
 1541 0 1541 0 1471.09 91.4023 c 5,33,34
 1454 74 1454 74 1432.14 59.4023 c 4,35,36
 1342 0 1342 0 1193.32 0 c 6,37,-1
 889.223 0 l 5,0,-1
EndSplineSet
EndChar

StartChar: uniFB9F
Encoding: 64415 64415 144
Width: 1547
VWidth: 2186
GlyphClass: 2
Flags: W
AnchorPoint: "Anchor-10" 453.9 691 basechar 0
AnchorPoint: "Anchor-7" 419.88 -588.5 basechar 0
LayerCount: 2
Fore
SplineSet
1314.9 81.1309 m 5,0,-1
 1314.9 47.1309 l 6,1,2
 1314.9 -447.522 1314.9 -447.522 779.273 -452.368 c 6,3,-1
 723.901 -452.869 l 5,4,-1
 680.601 -452.869 l 6,5,6
 90.9727 -452.869 90.9727 -452.869 90.9727 46.6299 c 6,7,-1
 90.9727 279.131 l 6,8,9
 90.9727 398.63 90.9727 398.63 184.901 398.63 c 6,10,11
 260.973 398.63 l 5,12,-1
 260.973 228.298 l 5,13,-1
 260.973 47.6299 l 6,14,15
 260.973 -273.889 260.973 -273.889 682.451 -273.889 c 6,16,-1
 723.901 -273.889 l 5,17,-1
 786.423 -273.388 l 6,18,19
 1146.9 -270.499 1146.9 -270.499 1146.9 51.1309 c 6,20,-1
 1146.9 92.1309 l 6,21,22
 1146.9 523.503 1146.9 523.503 1146.5 533.912 c 5,23,-1
 1318.9 534 l 5,24,25
 1318.9 367 l 6,26,27
 1318.9 179.38 1318.9 179.38 1505.28 179.38 c 6,28,-1
 1572.53 179.38 l 5,29,-1
 1572.53 0.5 l 5,30,-1
 1446.43 0.5 l 6,31,32
 1372.03 0.5 1372.03 0.5 1314.9 81.1309 c 5,0,-1
EndSplineSet
EndChar

StartChar: uniFBE8
Encoding: 64488 64488 147
Width: 558
VWidth: 2186
GlyphClass: 2
Flags: W
AnchorPoint: "Anchor-10" 321.93 1049.5 basechar 0
AnchorPoint: "Anchor-7" 353.93 -111.5 basechar 0
LayerCount: 2
Fore
SplineSet
185.9 0 m 2,0,-1
 -40.4004 0 l 1,1,-1
 -40.4004 178.98 l 1,2,-1
 173.05 178.98 l 2,3,4
 317.528 178.98 317.528 178.98 317.528 354.499 c 2,5,-1
 317.528 628.499 l 1,6,-1
 487.528 628.499 l 1,7,-1
 487.528 359.499 l 2,8,9
 487.528 0 487.528 0 185.9 0 c 2,0,-1
EndSplineSet
EndChar

StartChar: uniFBE9
Encoding: 64489 64489 148
Width: 739
VWidth: 2186
GlyphClass: 2
Flags: W
AnchorPoint: "Anchor-10" 310.93 969.5 basechar 0
AnchorPoint: "Anchor-7" 292.93 -115.5 basechar 0
LayerCount: 2
Fore
SplineSet
415.244 96.1914 m 2,0,1
 329.101775532 0 329.101775532 0 179.9 0 c 2,2,-1
 -20.4004 0 l 1,3,-1
 -20.4004 178.98 l 1,4,-1
 133.05 178.98 l 2,5,6
 338.489792447 179.000047812 338.489792447 179.000047812 338.49 348.31 c 2,7,-1
 338.490234375 539.5 l 5,8,-1
 513.370117188 539.5 l 5,9,-1
 513.37 348.31 l 2,10,11
 512.999956293 178.98 512.999956293 178.98 728.811 178.98 c 2,12,-1
 759.66 178.98 l 1,13,-1
 759.66 0 l 1,14,-1
 669.96 0 l 2,15,16
 522.985048411 5.68434188608e-14 522.985048411 5.68434188608e-14 434.504 96.3145 c 2,17,-1
 424.807 106.87 l 1,18,-1
 415.244 96.1914 l 2,0,1
EndSplineSet
EndChar

StartChar: uniFE73
Encoding: 65139 65139 156
Width: 573
VWidth: 2186
GlyphClass: 2
Flags: W
AnchorPoint: "Anchor-10" 210.79 1279.5 basechar 0
AnchorPoint: "Anchor-7" 210.79 -111.5 basechar 0
LayerCount: 2
Fore
SplineSet
296.23 350.74 m 2,0,1
 296.23 286.506 296.23 286.506 352.468 230.268 c 0,2,3
 403.354 179.38 403.354 179.38 514.67 179.38 c 2,4,-1
 581.92 179.38 l 1,5,-1
 581.92 8.5 l 1,6,-1
 455.82 8.5 l 2,7,8
 309.266 8.5 309.266 8.5 214.633 103.133 c 0,9,10
 125.35 192.415 125.35 192.415 125.35 337.9 c 2,11,-1
 125.35 370.91 l 1,12,-1
 296.23 370.91 l 1,13,-1
 296.23 350.74 l 2,0,1
EndSplineSet
EndChar

StartChar: uniFE8E
Encoding: 65166 65166 182
Width: 584
VWidth: 2186
GlyphClass: 2
Flags: W
AnchorPoint: "Anchor-10" 278.95 1350 basechar 0
AnchorPoint: "Anchor-7" 290.95 -239.5 basechar 0
LayerCount: 2
Fore
SplineSet
526.295 0 m 2,0,1
 190.667 0 190.667 0 190.667 416.499 c 2,2,-1
 190.667 1200.5 l 1,3,-1
 360.667 1200.5 l 1,4,-1
 360.667 393.499 l 2,5,6
 360.667 178.979 360.667 178.979 520.146 178.98 c 2,7,-1
 595.596 178.98 l 1,8,-1
 595.596 0 l 1,9,-1
 526.295 0 l 2,0,1
EndSplineSet
EndChar

StartChar: uniFEA2
Encoding: 65186 65186 202
Width: 1465
VWidth: 2186
GlyphClass: 2
Flags: W
AnchorPoint: "Anchor-10" 573.197 1255.34 basechar 0
AnchorPoint: "Anchor-7" 405.84 -751.64 basechar 0
LayerCount: 2
Fore
SplineSet
1010.85 507 m 5,0,1
 285.28 250.983 285.28 250.983 255.965 -151 c 4,2,3
 234.71 -450 234.71 -450 676.965 -474 c 5,4,-1
 1265.46 -473.778 l 5,5,-1
 1265.46 -642.778 l 5,6,7
 982.213 -642.389 982.213 -642.389 698.965 -642 c 5,8,9
 54.4715 -640.227 54.4715 -640.227 90.9648 -151 c 4,10,11
 133.673 408.374 133.673 408.374 1022.69 659.318 c 5,12,13
 977 677 977 677 746.415 751.613 c 4,14,15
 605.430024968 797.076846813 605.430024968 797.076846813 548.955 786.197 c 4,16,17
 467.455 770.497 467.455 770.497 404.955 618.197 c 5,18,-1
 266.955 670.197 l 5,19,20
 293.717 741.881 293.717 741.881 318.368 786.93 c 4,21,22
 395.236 931.155 395.236 931.155 539.955 939.197 c 4,23,24
 643.487 944.951 643.487 944.951 956.955 827.197 c 6,25,-1
 1273.19 708.404 l 5,26,-1
 1273.12 562.655 l 5,27,28
 1198.33 543.403 1198.33 543.403 1148.9 529.709 c 5,29,30
 1128.51 179.38 1128.51 179.38 1363.13 179.38 c 6,31,-1
 1484.94 179.38 l 5,32,-1
 1484.94 0.5 l 5,33,-1
 1387.51 0.5 l 6,34,35
 1004.96 0.5 1004.96 0.5 1010.85 507 c 5,0,1
EndSplineSet
EndChar

StartChar: uniFEA3
Encoding: 65187 65187 203
Width: 1092
VWidth: 2186
GlyphClass: 2
Flags: W
AnchorPoint: "Anchor-10" 414 1065.73 basechar 0
AnchorPoint: "Anchor-7" 358 -240.5 basechar 0
LayerCount: 2
Fore
SplineSet
-20.4004 0 m 1,0,-1
 -20.4004 178.98 l 1,1,-1
 852.095 179.396 l 1,2,3
 714 302 714 302 590.199 422.278 c 0,4,5
 463 546 463 546 388.915 534.542 c 0,6,7
 305 522 305 522 189.93 386.711 c 1,8,-1
 64.1182 493.262 l 1,9,10
 106 551 106 551 191 633.04 c 0,11,12
 265 704 265 704 391 705 c 4,13,14
 530 706 530 706 731.095 517.396 c 4,15,16
 887 370 887 370 1043.09 223.396 c 1,17,18
 1037 143 1037 143 988.345 79.2324 c 0,19,20
 934 9 934 9 832.09 0 c 1,21,22
 406 0 406 0 -20.4004 0 c 1,0,-1
EndSplineSet
EndChar

StartChar: uniFEA4
Encoding: 65188 65188 204
Width: 1166
VWidth: 2186
GlyphClass: 2
Flags: W
AnchorPoint: "Anchor-10" 383 1047.69 basechar 0
AnchorPoint: "Anchor-7" 417 -239.5 basechar 0
LayerCount: 2
Fore
SplineSet
755.095 0 m 1,0,-1
 -20.4004 0 l 1,1,-1
 -20.4004 178.98 l 1,2,-1
 852.095 179.396 l 1,3,4
 714 302 714 302 590.199 422.278 c 0,5,6
 463 546 463 546 388.915 534.542 c 0,7,8
 305 522 305 522 189.93 386.711 c 1,9,-1
 64.1182 493.262 l 1,10,11
 106 551 106 551 191 633.04 c 0,12,13
 275 715 275 715 397 710 c 1,14,15
 522.151424535 717.122438795 522.151424535 717.122438795 731.095 517.396 c 4,16,17
 1076.68 187.84 l 1,18,-1
 1184.77 187.396 l 1,19,-1
 1184.77 0 l 1,20,-1
 1153.68 0 l 2,21,22
 1026 0 1026 0 940.685 77.8398 c 1,23,24
 869 -4 869 -4 755.095 0 c 1,0,-1
EndSplineSet
EndChar

StartChar: uniFEAA
Encoding: 65194 65194 210
Width: 1072
VWidth: 2186
GlyphClass: 2
Flags: W
AnchorPoint: "Anchor-10" 364.99 1131.65 basechar 0
AnchorPoint: "Anchor-7" 306.5 -234 basechar 0
LayerCount: 2
Fore
SplineSet
532.7 429.318 m 6,0,-1
 298.7 701.641 l 5,1,-1
 422.7 824.641 l 5,2,3
 893.2 278 l 6,4,5
 976.762 180.915 976.762 180.915 1065.48 179.687 c 6,6,-1
 1087.65 179.38 l 5,7,-1
 1087.65 0.5 l 5,8,-1
 1041.44 0.5 l 6,9,10
 904.7 0.5 904.7 0.5 788.7 119.373 c 5,11,12
 722.7 13.373 722.7 13.373 501.052 0.00292969 c 5,13,-1
 90.75 0.00488281 l 5,14,-1
 90.75 179.043 l 5,15,-1
 327.734 178.975 l 4,16,17
 522.139 177.686 522.139 177.686 575.7 200.641 c 4,18,19
 649.176 231.255 649.176 231.255 612.7 321.641 c 4,20,21
 601.61 349.123 601.61 349.123 532.7 429.318 c 6,0,-1
EndSplineSet
EndChar

StartChar: uniFEAE
Encoding: 65198 65198 214
Width: 837
VWidth: 2186
GlyphClass: 2
Flags: W
AnchorPoint: "Anchor-10" 374.025 818 basechar 0
AnchorPoint: "Anchor-7" 274.95 -635.55 basechar 0
LayerCount: 2
Fore
SplineSet
442.659 63 m 1,0,-1
 442.66 485.991 l 1,1,-1
 617.659 486.991 l 1,2,-1
 617.659 304 l 0,3,4
 622.35 178.98 622.35 178.98 832.865 178.98 c 2,5,-1
 850.625 178.98 l 1,6,-1
 850.625 0 l 1,7,-1
 832.015 0 l 2,8,9
 663.003 0 663.003 0 618.659 52 c 1,10,-1
 618.659 -5 l 2,11,12
 618.661 -445.279 618.661 -445.279 147.993 -445.042 c 2,13,-1
 51.002 -444.993 l 1,14,-1
 51.0049 -266.976 l 1,15,-1
 143.993 -267.042 l 2,16,17
 442.66 -270.542 442.66 -270.542 442.659 -6.00879 c 2,18,-1
 442.659 63 l 1,0,-1
EndSplineSet
PairPos2: "'kern' Horizontal Kerning lookup 15-1" uniFEDF dx=-70 dy=0 dh=-70 dv=0 dx=0 dy=0 dh=0 dv=0
PairPos2: "'kern' Horizontal Kerning lookup 15-1" uniFBAC dx=-70 dy=0 dh=-70 dv=0 dx=0 dy=0 dh=0 dv=0
PairPos2: "'kern' Horizontal Kerning lookup 15-1" uniFB90 dx=-70 dy=0 dh=-70 dv=0 dx=0 dy=0 dh=0 dv=0
PairPos2: "'kern' Horizontal Kerning lookup 15-1" uni06A9 dx=-70 dy=0 dh=-70 dv=0 dx=0 dy=0 dh=0 dv=0
PairPos2: "'kern' Horizontal Kerning lookup 15-1" uni0649 dx=-70 dy=0 dh=-70 dv=0 dx=0 dy=0 dh=0 dv=0
PairPos2: "'kern' Horizontal Kerning lookup 15-1" uni0647 dx=-70 dy=0 dh=-70 dv=0 dx=0 dy=0 dh=0 dv=0
PairPos2: "'kern' Horizontal Kerning lookup 15-1" uniFEE7 dx=-70 dy=0 dh=-70 dv=0 dx=0 dy=0 dh=0 dv=0
PairPos2: "'kern' Horizontal Kerning lookup 15-1" uniFEE3 dx=-70 dy=0 dh=-70 dv=0 dx=0 dy=0 dh=0 dv=0
PairPos2: "'kern' Horizontal Kerning lookup 15-1" uni0645 dx=-70 dy=0 dh=-70 dv=0 dx=0 dy=0 dh=0 dv=0
PairPos2: "'kern' Horizontal Kerning lookup 15-1" uniFEDB dx=-70 dy=0 dh=-70 dv=0 dx=0 dy=0 dh=0 dv=0
PairPos2: "'kern' Horizontal Kerning lookup 15-1" uniFED7 dx=-70 dy=0 dh=-70 dv=0 dx=0 dy=0 dh=0 dv=0
PairPos2: "'kern' Horizontal Kerning lookup 15-1" uniFED3 dx=-70 dy=0 dh=-70 dv=0 dx=0 dy=0 dh=0 dv=0
PairPos2: "'kern' Horizontal Kerning lookup 15-1" uni0641 dx=-70 dy=0 dh=-70 dv=0 dx=0 dy=0 dh=0 dv=0
PairPos2: "'kern' Horizontal Kerning lookup 15-1" uniFECF dx=-70 dy=0 dh=-70 dv=0 dx=0 dy=0 dh=0 dv=0
PairPos2: "'kern' Horizontal Kerning lookup 15-1" uniFECB dx=-70 dy=0 dh=-70 dv=0 dx=0 dy=0 dh=0 dv=0
PairPos2: "'kern' Horizontal Kerning lookup 15-1" uniFEC7 dx=-70 dy=0 dh=-70 dv=0 dx=0 dy=0 dh=0 dv=0
PairPos2: "'kern' Horizontal Kerning lookup 15-1" uni0638 dx=-70 dy=0 dh=-70 dv=0 dx=0 dy=0 dh=0 dv=0
PairPos2: "'kern' Horizontal Kerning lookup 15-1" uniFEC3 dx=-70 dy=0 dh=-70 dv=0 dx=0 dy=0 dh=0 dv=0
PairPos2: "'kern' Horizontal Kerning lookup 15-1" uni0637 dx=-70 dy=0 dh=-70 dv=0 dx=0 dy=0 dh=0 dv=0
PairPos2: "'kern' Horizontal Kerning lookup 15-1" uniFEBF dx=-70 dy=0 dh=-70 dv=0 dx=0 dy=0 dh=0 dv=0
PairPos2: "'kern' Horizontal Kerning lookup 15-1" uni0636 dx=-70 dy=0 dh=-70 dv=0 dx=0 dy=0 dh=0 dv=0
PairPos2: "'kern' Horizontal Kerning lookup 15-1" uniFEBB dx=-70 dy=0 dh=-70 dv=0 dx=0 dy=0 dh=0 dv=0
PairPos2: "'kern' Horizontal Kerning lookup 15-1" uni0635 dx=-70 dy=0 dh=-70 dv=0 dx=0 dy=0 dh=0 dv=0
PairPos2: "'kern' Horizontal Kerning lookup 15-1" uniFEB7 dx=-70 dy=0 dh=-70 dv=0 dx=0 dy=0 dh=0 dv=0
PairPos2: "'kern' Horizontal Kerning lookup 15-1" uni0634 dx=-70 dy=0 dh=-70 dv=0 dx=0 dy=0 dh=0 dv=0
PairPos2: "'kern' Horizontal Kerning lookup 15-1" uniFEB3 dx=-70 dy=0 dh=-70 dv=0 dx=0 dy=0 dh=0 dv=0
PairPos2: "'kern' Horizontal Kerning lookup 15-1" uni0633 dx=-70 dy=0 dh=-70 dv=0 dx=0 dy=0 dh=0 dv=0
PairPos2: "'kern' Horizontal Kerning lookup 15-1" uni0630 dx=-70 dy=0 dh=-70 dv=0 dx=0 dy=0 dh=0 dv=0
PairPos2: "'kern' Horizontal Kerning lookup 15-1" uni062F dx=-70 dy=0 dh=-70 dv=0 dx=0 dy=0 dh=0 dv=0
PairPos2: "'kern' Horizontal Kerning lookup 15-1" uniFEA7 dx=-70 dy=0 dh=-70 dv=0 dx=0 dy=0 dh=0 dv=0
PairPos2: "'kern' Horizontal Kerning lookup 15-1" uniFEA3 dx=-70 dy=0 dh=-70 dv=0 dx=0 dy=0 dh=0 dv=0
PairPos2: "'kern' Horizontal Kerning lookup 15-1" uniFE9F dx=-70 dy=0 dh=-70 dv=0 dx=0 dy=0 dh=0 dv=0
PairPos2: "'kern' Horizontal Kerning lookup 15-1" uniFE9B dx=-70 dy=0 dh=-70 dv=0 dx=0 dy=0 dh=0 dv=0
PairPos2: "'kern' Horizontal Kerning lookup 15-1" uni062B dx=-70 dy=0 dh=-70 dv=0 dx=0 dy=0 dh=0 dv=0
PairPos2: "'kern' Horizontal Kerning lookup 15-1" uniFE97 dx=-70 dy=0 dh=-70 dv=0 dx=0 dy=0 dh=0 dv=0
PairPos2: "'kern' Horizontal Kerning lookup 15-1" uni062A dx=-70 dy=0 dh=-70 dv=0 dx=0 dy=0 dh=0 dv=0
PairPos2: "'kern' Horizontal Kerning lookup 15-1" uni0629 dx=-70 dy=0 dh=-70 dv=0 dx=0 dy=0 dh=0 dv=0
PairPos2: "'kern' Horizontal Kerning lookup 15-1" uni0628 dx=-70 dy=0 dh=-70 dv=0 dx=0 dy=0 dh=0 dv=0
PairPos2: "'kern' Horizontal Kerning lookup 15-1" uni0627 dx=-70 dy=0 dh=-70 dv=0 dx=0 dy=0 dh=0 dv=0
PairPos2: "'kern' Horizontal Kerning lookup 15-1" uni0622 dx=-70 dy=0 dh=-70 dv=0 dx=0 dy=0 dh=0 dv=0
PairPos2: "'kern' Horizontal Kerning lookup 15-1" uniFB94 dx=-70 dy=0 dh=-70 dv=0 dx=0 dy=0 dh=0 dv=0
PairPos2: "'kern' Horizontal Kerning lookup 15-1" afii57509 dx=-70 dy=0 dh=-70 dv=0 dx=0 dy=0 dh=0 dv=0
PairPos2: "'kern' Horizontal Kerning lookup 15-1" uniFB56 dx=-70 dy=0 dh=-70 dv=0 dx=0 dy=0 dh=0 dv=0
PairPos2: "'kern' Horizontal Kerning lookup 15-1" afii57506 dx=-70 dy=0 dh=-70 dv=0 dx=0 dy=0 dh=0 dv=0
EndChar

StartChar: uniFEB2
Encoding: 65202 65202 218
Width: 2461
VWidth: 2186
GlyphClass: 2
Flags: W
AnchorPoint: "Anchor-10" 605 886.5 basechar 0
AnchorPoint: "Anchor-7" 245 -523.5 basechar 0
LayerCount: 2
Fore
SplineSet
2140.95 113.673 m 1,0,1
 2057 0 2057 0 1915.04 0 c 2,2,-1
 1828.04 0 l 0,3,4
 1733 -1 1733 -1 1681.04 52 c 0,5,6
 1642 91 1642 91 1629.13 133.496 c 1,7,8
 1586 -3 1586 -3 1351.04 0 c 0,9,10
 1191 2 1191 2 1156.04 85.5811 c 1,11,-1
 1155.9 47.1309 l 2,12,13
 1153.99895497 -369.228878119 1153.99895497 -369.228878119 659.273 -384.368 c 2,14,-1
 642.901 -384.869 l 1,15,-1
 619.601 -384.869 l 2,16,17
 90.9727 -385.000006766 90.9727 -385.000006766 90.9727 46.6299 c 2,18,-1
 90.9727 279.131 l 2,19,20
 90.999915733 398.63 90.999915733 398.63 184.901 398.63 c 2,21,-1
 260.973 398.63 l 1,22,-1
 260.973 228.298 l 1,23,-1
 260.973 47.6299 l 2,24,25
 260.999988184 -205.889 260.999988184 -205.889 621.451 -205.889 c 2,26,-1
 642.901 -205.889 l 1,27,-1
 666.423 -205.388 l 2,28,29
 987.901 -199.001966596 987.901 -199.001966596 987.901 51.1309 c 2,30,-1
 987.901 92.1309 l 2,31,32
 988 532 988 532 987.5 533.912 c 1,33,-1
 1167.46 534.07 l 1,34,-1
 1167.99 320.846 l 2,35,36
 1168 172 1168 172 1357.04 170.192 c 0,37,38
 1552.46841989 167.9947334 1552.46841989 167.9947334 1552.13 300.695 c 2,39,-1
 1551.51953125 540.0703125 l 5,40,-1
 1717.41992188 540.0703125 l 5,41,-1
 1717.99 322.75 l 2,42,43
 1718 166 1718 166 1881.7 170.266 c 1,44,-1
 1919.27 170.75 l 2,45,46
 2050.66 171.996773704 2050.66 171.996773704 2050.66 360.499 c 2,47,-1
 2050.66 628.499 l 1,48,-1
 2220.66 628.499 l 1,49,-1
 2220.66 399.499 l 2,50,51
 2220.99941406 179.38 2220.99941406 179.38 2411.46 179.38 c 2,52,-1
 2473.33 179.38 l 1,53,-1
 2473.33 0.5 l 1,54,-1
 2382.92 0.5 l 2,55,56
 2205 0 2205 0 2140.95 113.673 c 1,0,1
EndSplineSet
EndChar

StartChar: uniFEB3
Encoding: 65203 65203 219
Width: 1584
VWidth: 2186
GlyphClass: 2
Flags: W
AnchorPoint: "Anchor-10" 695.5 958.5 basechar 0
AnchorPoint: "Anchor-7" 831.5 -269 basechar 0
LayerCount: 2
Fore
SplineSet
1173.45 174.75 m 2,0,1
 1322.84 178.44467348 1322.84 178.44467348 1322.84 355.499 c 2,2,-1
 1322.84 628.499 l 1,3,-1
 1492.84 628.499 l 1,4,-1
 1492.84 366.499 l 2,5,6
 1493 0 1493 0 1187.22 0 c 2,7,-1
 1116.22 0 l 0,8,9
 1010 -0 1010 -0 953.223 52 c 0,10,11
 916 86 916 86 901.31 133.496 c 1,12,13
 859 -2 859 -2 623.223 0 c 0,14,15
 432 2 432 2 371.737 120.18 c 1,16,17
 339 78 339 78 290.22 46.2402 c 0,18,19
 221 0 221 0 117.7 0 c 2,20,-1
 -8.40039 0 l 1,21,-1
 -8.40039 178.98 l 1,22,-1
 58.8496 178.98 l 2,23,24
 293.146351946 179.000012501 293.146351946 179.000012501 293.623 374.06 c 2,25,-1
 294.014 534.07 l 1,26,-1
 439.645 534.07 l 1,27,-1
 440.169 373.846 l 2,28,29
 441 172 441 172 629.223 170.192 c 0,30,31
 824.657819263 168.003831197 824.657819263 168.003831197 824.312 300.695 c 2,32,-1
 823.701171875 535.0703125 l 5,33,-1
 989.598632812 535.0703125 l 5,34,-1
 990.168 322.75 l 2,35,36
 991 170 991 170 1153.88 174.266 c 1,37,-1
 1173.45 174.75 l 2,0,1
EndSplineSet
EndChar

StartChar: uniFEB4
Encoding: 65204 65204 220
Width: 1715
VWidth: 2181
GlyphClass: 2
Flags: W
AnchorPoint: "Anchor-10" 720.5 953.5 basechar 0
AnchorPoint: "Anchor-7" 775.5 -235 basechar 0
LayerCount: 2
Fore
SplineSet
1178.65 2.13867 m 4,0,1
 971 -11 971 -11 908.334 134.549 c 5,2,3
 865 2 865 2 635.634 3.20996 c 4,4,5
 434 5 434 5 373.053 124.68 c 5,6,7
 365 104 365 104 293.104 56 c 4,8,9
 209 0 209 0 72.207 0 c 6,10,-1
 -19.2744 0 l 5,11,-1
 -19.2744 178.979 l 5,12,-1
 36.6533 178.979 l 5,13,14
 291.071047259 181.000564531 291.071047259 181.000564531 289.464 330 c 6,15,-1
 287.23828125 536.360351562 l 5,16,-1
 445.319335938 536.360351562 l 5,17,-1
 444.979 367.08 l 6,18,19
 445 182 445 182 633.358 175.675 c 4,20,21
 827.056068899 169.998356808 827.056068899 169.998356808 826.884 322.096 c 6,22,-1
 826.641601562 536.360351562 l 5,23,-1
 993.501953125 536.360351562 l 5,24,-1
 994.702 307.419 l 6,25,26
 995 176 995 176 1170.32 175.607 c 4,27,28
 1318.50098523 175.002037274 1318.50098523 175.002037274 1318.98 333.71 c 6,29,-1
 1319.59960938 539 l 5,30,-1
 1476.30957031 539 l 5,31,-1
 1477.24 365.56 l 6,32,33
 1478 262 1478 262 1547.52 210 c 4,34,35
 1588.16192 179.88 1588.16192 179.88 1665.45 179.88 c 6,36,-1
 1726.64 179.88 l 5,37,-1
 1726.64 0 l 5,38,-1
 1620.66 0 l 6,39,40
 1462 0 1462 0 1403.01 125.007 c 5,41,42
 1372 14 1372 14 1178.65 2.13867 c 4,0,1
EndSplineSet
EndChar

StartChar: uniFEBA
Encoding: 65210 65210 226
Width: 2420
VWidth: 2186
GlyphClass: 2
Flags: W
AnchorPoint: "Anchor-10" 578 986.5 basechar 0
AnchorPoint: "Anchor-7" 253 -580.5 basechar 0
LayerCount: 2
Fore
SplineSet
1393.44 190.069 m 1,0,-1
 1715.41 190.069 l 2,1,2
 1844.75 190.069 1844.75 190.069 1923.66 223.525 c 0,3,4
 2033.6 270.157 2033.6 270.157 2026.58 407.176 c 24,5,6
 2018.77 555.779 2018.77 555.779 1863.95 553.234 c 0,7,8
 1774.7 551.291 1774.7 551.291 1653.66 448.525 c 0,9,10
 1508.49 325.279 1508.49 325.279 1410.17 209.73 c 2,11,-1
 1393.44 190.069 l 1,0,-1
2123.85 140.553 m 1,12,13
 2085.81 94.9523 2085.81 94.9523 2029.66 57.5254 c 0,14,15
 1943.74 -0.219096 1943.74 -0.219096 1819.88 0 c 2,16,-1
 1441.71 0.668945 l 2,17,18
 1221.81 1.05793 1221.81 1.05793 1155.9 104.131 c 1,19,-1
 1155.9 47.1309 l 2,20,21
 1155.9 -369.171 1155.9 -369.171 659.273 -384.368 c 2,22,-1
 642.901 -384.869 l 1,23,-1
 619.601 -384.869 l 2,24,25
 90.9727 -384.869 90.9727 -384.869 90.9727 46.6299 c 2,26,-1
 90.9727 279.131 l 2,27,28
 90.9727 398.63 90.9727 398.63 184.901 398.63 c 2,29,-1
 260.973 398.63 l 1,30,-1
 260.973 228.298 l 1,31,-1
 260.973 47.6299 l 2,32,33
 260.973 -205.889 260.973 -205.889 621.451 -205.889 c 2,34,-1
 642.901 -205.889 l 1,35,-1
 666.423 -205.388 l 2,36,37
 987.901 -198.541 987.901 -198.541 987.901 51.1309 c 2,38,-1
 987.901 92.1309 l 2,39,40
 987.901 523.503 987.901 523.503 987.5 533.912 c 1,41,-1
 1159.9 534 l 1,42,-1
 1159.9 417 l 0,43,44
 1174.98 303 1174.98 303 1262.54 266.02 c 1,45,46
 1338.65 368.855 1338.65 368.855 1467.66 497.525 c 0,47,48
 1594.51 624.058 1594.51 624.058 1707.59 679.354 c 0,49,50
 1848.02 748.022 1848.02 748.022 2010.44 703.217 c 0,51,52
 2199.91 651.503 2199.91 651.503 2203.71 372.8 c 0,53,54
 2204.16 330.323 2204.16 330.323 2196.4 291.553 c 1,55,56
 2274.72 179.38 2274.72 179.38 2405.78 179.38 c 2,57,-1
 2430.1 179.38 l 1,58,-1
 2430.1 0.5 l 1,59,-1
 2385.93 0.5 l 2,60,61
 2221.93 0.5 2221.93 0.5 2123.85 140.553 c 1,12,13
EndSplineSet
EndChar

StartChar: uniFEBB
Encoding: 65211 65211 227
Width: 1519
VWidth: 2186
GlyphClass: 2
Flags: W
AnchorPoint: "Anchor-10" 548.3 1074.8 basechar 0
AnchorPoint: "Anchor-7" 548.3 -217 basechar 0
LayerCount: 2
Fore
SplineSet
580.668 190.071 m 5,0,-1
 902.638 190.071 l 6,1,2
 1031.98 190.071 1031.98 190.071 1110.88 223.527 c 4,3,4
 1220.82 270.159 1220.82 270.159 1213.81 407.178 c 28,5,6
 1205.99 555.781 1205.99 555.781 1051.17 553.236 c 4,7,8
 961.929 551.293 961.929 551.293 840.884 448.527 c 4,9,10
 657.946 293.212 657.946 293.212 595.399 209.732 c 6,11,-1
 580.668 190.071 l 5,0,-1
654.884 497.527 m 4,12,13
 781.732 624.06 781.732 624.06 894.812 679.355 c 4,14,15
 1035.24 748.024 1035.24 748.024 1197.66 703.219 c 4,16,17
 1387.13 651.505 1387.13 651.505 1390.93 372.802 c 4,18,19
 1393.05 174.941 1393.05 174.941 1216.88 57.5273 c 4,20,21
 1130.97 -0.217161 1130.97 -0.217161 1007.1 0.00195312 c 6,22,-1
 628.938 0.670898 l 6,23,24
 563.683 0.78633 563.683 0.78633 471.476 49.0684 c 4,25,26
 397.509 87.7993 397.509 87.7993 357.633 150.163 c 6,27,-1
 347.455 166.081 l 5,28,-1
 336.226 150.888 l 2,29,30
 224.706 0 224.706 0 60.9902 0 c 2,31,-1
 -8.40039 0 l 1,32,-1
 -8.40039 178.98 l 1,33,-1
 55.1396 178.98 l 2,34,35
 239.26 178.982 239.26 178.982 239.26 391.06 c 2,36,-1
 239.26 541.04 l 1,37,-1
 399.14 541.04 l 5,38,-1
 400.14 431.58 l 6,39,40
 401.137 322.434 401.137 322.434 476.984 315.153 c 5,41,42
 477.757 320.842 477.757 320.842 654.884 497.527 c 4,12,13
EndSplineSet
EndChar

StartChar: uniFEBC
Encoding: 65212 65212 228
Width: 1627
VWidth: 2186
GlyphClass: 2
Flags: W
AnchorPoint: "Anchor-10" 583.5 1076.5 basechar 0
AnchorPoint: "Anchor-7" 608.5 -249 basechar 0
LayerCount: 2
Fore
SplineSet
580.668 190.071 m 1,0,-1
 902.638 190.071 l 2,1,2
 1031.98 190.071 1031.98 190.071 1110.88 223.527 c 0,3,4
 1220.82 270.159 1220.82 270.159 1213.81 407.178 c 24,5,6
 1205.99 555.781 1205.99 555.781 1051.17 553.236 c 0,7,8
 961.929 551.293 961.929 551.293 840.884 448.527 c 0,9,10
 657.946 293.212 657.946 293.212 595.399 209.732 c 2,11,-1
 580.668 190.071 l 1,0,-1
1293.2 120.614 m 1,12,13
 1260.51 86.6039 1260.51 86.6039 1216.88 57.5273 c 0,14,15
 1130.97 -0.217165 1130.97 -0.217165 1007.1 0.00195312 c 2,16,-1
 628.938 0.670898 l 2,17,18
 563.683 0.78633 563.683 0.78633 471.476 49.0684 c 0,19,20
 397.508 87.7997 397.508 87.7997 357.633 150.163 c 2,21,-1
 347.455 166.081 l 1,22,-1
 336.226 150.888 l 2,23,24
 224.706 3.72611e-06 224.706 3.72611e-06 60.9902 0 c 2,25,-1
 -8.40039 0 l 1,26,-1
 -8.40039 178.98 l 1,27,-1
 55.1396 178.98 l 2,28,29
 239.26 178.98 239.26 178.98 239.26 391.06 c 2,30,-1
 239.26 541.04 l 1,31,-1
 399.14 541.04 l 1,32,-1
 400.14 431.58 l 2,33,34
 401.137 322.434 401.137 322.434 476.984 315.153 c 1,35,36
 477.757 320.842 477.757 320.842 654.884 497.527 c 0,37,38
 781.732 624.06 781.732 624.06 894.812 679.355 c 0,39,40
 1035.24 748.024 1035.24 748.024 1197.66 703.219 c 0,41,42
 1387.13 651.505 1387.13 651.505 1390.93 372.802 c 0,43,44
 1391.44 324.845 1391.44 324.845 1381.48 281.614 c 1,45,46
 1394.64 263.247 1394.64 263.247 1442.24 228.917 c 0,47,48
 1510.92 179.38 1510.92 179.38 1597.51 179.38 c 2,49,-1
 1634.8 179.38 l 1,50,-1
 1634.8 0.5 l 1,51,-1
 1576.11 0.5 l 2,52,53
 1440.38 0.5 1440.38 0.5 1368.46 56.1006 c 0,54,55
 1294.97 112.205 1294.97 112.205 1293.2 120.614 c 1,12,13
EndSplineSet
EndChar

StartChar: uniFEC2
Encoding: 65218 65218 234
Width: 1557
VWidth: 2186
GlyphClass: 2
Flags: W
AnchorPoint: "Anchor-7" 551.13 -265 basechar 0
AnchorPoint: "Anchor-10" 351.67 1398.79 basechar 0
LayerCount: 2
Fore
SplineSet
535.668 190.071 m 1,0,-1
 857.638 190.071 l 2,1,2
 986.98 190.071 986.98 190.071 1065.88 223.527 c 0,3,4
 1175.82 270.159 1175.82 270.159 1168.81 407.178 c 24,5,6
 1160.99 555.781 1160.99 555.781 1006.17 553.236 c 0,7,8
 916.929 551.293 916.929 551.293 795.884 448.527 c 0,9,10
 680.107 350.232 680.107 350.232 553.399 209.732 c 2,11,-1
 535.668 190.071 l 1,0,-1
1224.64 98 m 1,12,13
 1200.63 76.6924 1200.63 76.6924 1171.88 57.5273 c 0,14,15
 1085.97 -0.216797 1085.97 -0.216797 962.1 0.00195312 c 2,16,-1
 583.938 0.670898 l 1,17,-1
 91.5996 0 l 1,18,-1
 91.5996 178.98 l 1,19,-1
 261.13 178.98 l 1,20,-1
 261.13 1200.89 l 1,21,-1
 428.01 1200.89 l 1,22,-1
 428.01 314.825 l 1,23,24
 428.312 320.842 428.312 320.842 609.884 497.527 c 0,25,26
 741.555 626.418 741.555 626.418 849.812 679.355 c 0,27,28
 990.24 748.024 990.24 748.024 1152.66 703.219 c 0,29,30
 1342.13 651.505 1342.13 651.505 1345.93 372.802 c 0,31,32
 1346.59 311.546 1346.59 311.546 1330.15 258 c 1,33,34
 1378.32 179.38 1378.32 179.38 1536.1 179.38 c 2,35,-1
 1565.9 179.38 l 1,36,-1
 1565.9 0.5 l 1,37,-1
 1477.25 0.5 l 2,38,39
 1295.56 0.5 1295.56 0.5 1224.64 98 c 1,12,13
EndSplineSet
EndChar

StartChar: uniFEC3
Encoding: 65219 65219 235
Width: 1413
VWidth: 2186
GlyphClass: 2
Flags: W
AnchorPoint: "Anchor-10" 286.57 1386.47 basechar 0
AnchorPoint: "Anchor-7" 400.57 -249 basechar 0
LayerCount: 2
Fore
SplineSet
511.668 190.071 m 1,0,-1
 833.638 190.071 l 2,1,2
 962.98 190.071 962.98 190.071 1041.88 223.527 c 0,3,4
 1151.82 270.159 1151.82 270.159 1144.81 407.178 c 24,5,6
 1136.99 555.781 1136.99 555.781 982.17 553.236 c 0,7,8
 892.929 551.293 892.929 551.293 771.884 448.527 c 0,9,10
 656.108 350.233 656.108 350.233 529.399 209.732 c 2,11,-1
 511.668 190.071 l 1,0,-1
404.01 314.825 m 1,12,13
 404.312 320.842 404.312 320.842 585.884 497.527 c 0,14,15
 717.555 626.418 717.555 626.418 825.812 679.355 c 0,16,17
 966.24 748.024 966.24 748.024 1128.66 703.219 c 0,18,19
 1318.13 651.505 1318.13 651.505 1321.93 372.802 c 0,20,21
 1324.05 174.941 1324.05 174.941 1147.88 57.5273 c 0,22,23
 1061.97 -0.217165 1061.97 -0.217165 938.1 0.00195312 c 2,24,-1
 559.938 0.670898 l 1,25,-1
 -23.4004 0 l 1,26,-1
 -23.4004 178.98 l 1,27,-1
 237.13 178.98 l 1,28,-1
 237.13 1200.89 l 1,29,-1
 404.01 1200.89 l 1,30,-1
 404.01 314.825 l 1,12,13
EndSplineSet
EndChar

StartChar: uniFEC4
Encoding: 65220 65220 236
Width: 1533
VWidth: 2186
GlyphClass: 2
Flags: W
AnchorPoint: "Anchor-10" 299.27 1405.79 basechar 0
AnchorPoint: "Anchor-7" 538.73 -241 basechar 0
LayerCount: 2
Fore
SplineSet
511.668 190.071 m 1,0,-1
 833.638 190.071 l 2,1,2
 962.98 190.071 962.98 190.071 1041.88 223.527 c 0,3,4
 1151.82 270.159 1151.82 270.159 1144.81 407.178 c 24,5,6
 1136.99 555.781 1136.99 555.781 982.17 553.236 c 0,7,8
 892.929 551.293 892.929 551.293 771.884 448.527 c 0,9,10
 656.108 350.233 656.108 350.233 529.399 209.732 c 2,11,-1
 511.668 190.071 l 1,0,-1
1200.64 98 m 1,12,13
 1176.64 76.6921 1176.64 76.6921 1147.88 57.5273 c 0,14,15
 1061.97 -0.217165 1061.97 -0.217165 938.1 0.00195312 c 2,16,-1
 559.938 0.670898 l 1,17,-1
 -23.4004 0 l 1,18,-1
 -23.4004 178.98 l 1,19,-1
 237.13 178.98 l 1,20,-1
 237.13 1200.89 l 1,21,-1
 404.01 1200.89 l 1,22,-1
 404.01 314.825 l 1,23,24
 404.312 320.842 404.312 320.842 585.884 497.527 c 0,25,26
 717.555 626.418 717.555 626.418 825.812 679.355 c 0,27,28
 966.24 748.024 966.24 748.024 1128.66 703.219 c 0,29,30
 1318.13 651.505 1318.13 651.505 1321.93 372.802 c 0,31,32
 1322.59 311.546 1322.59 311.546 1306.15 258 c 1,33,34
 1354.32 179.38 1354.32 179.38 1512.1 179.38 c 2,35,-1
 1541.9 179.38 l 1,36,-1
 1541.9 0.5 l 1,37,-1
 1453.25 0.5 l 2,38,39
 1271.56 0.5 1271.56 0.5 1200.64 98 c 1,12,13
EndSplineSet
EndChar

StartChar: uniFECA
Encoding: 65226 65226 242
Width: 1136
VWidth: 2186
GlyphClass: 2
Flags: W
AnchorPoint: "Anchor-10" 514 1158.5 basechar 0
AnchorPoint: "Anchor-7" 231.69 -638.64 basechar 0
LayerCount: 2
Fore
SplineSet
547.243 305.775 m 1,0,1
 279 116 279 116 239.243 -86.2246 c 0,2,3
 166 -464 166 -464 610.965 -471 c 1,4,-1
 1038.46 -470.778 l 1,5,-1
 1037.46 -644.778 l 1,6,7
 873 -645 873 -645 592.965 -645 c 1,8,9
 -10 -622 -10 -622 77.2432 -92.2246 c 0,10,11
 117 150 117 150 440 402.257 c 1,12,13
 405 429 405 429 309.113 539 c 0,14,15
 204 659 204 659 236.113 756.001 c 0,16,17
 257.605365172 820.825891725 257.605365172 820.825891725 326.113 862.001 c 0,18,19
 393 902 393 902 554.512695312 901.13671875 c 0,20,21
 661 901 661 901 706.654296875 897.90625 c 4,22,23
 885 887 885 887 933.113 778.001 c 0,24,25
 959 720 959 720 947.113 670.001 c 0,26,27
 919 547 919 547 671.385 394.848 c 1,28,29
 833.713716597 179.38 833.713716597 179.38 1070.5 179.38 c 2,30,-1
 1165.7 179.38 l 1,31,-1
 1165.7 0.5 l 1,32,-1
 1068.62 0.5 l 2,33,34
 773 0 773 0 547.243 305.775 c 1,0,1
567.131 758.446 m 0,35,36
 494.072 758.446 494.072 758.446 460.504 749.545 c 0,37,38
 365.492 723.247 365.492 723.247 403.951 672.333 c 1,39,40
 464.197 589.744 464.197 589.744 567.131 499.572 c 1,41,42
 609.607 519.786 609.607 519.786 719.882 598.318 c 0,43,44
 785.113 644.772 785.113 644.772 785.113 686.001 c 0,45,46
 785.113 733.168 785.113 733.168 686.113 751 c 0,47,48
 644.774 758.446 644.774 758.446 567.131 758.446 c 0,35,36
EndSplineSet
EndChar

StartChar: uniFECB
Encoding: 65227 65227 243
Width: 1008
VWidth: 2186
GlyphClass: 2
Flags: W
AnchorPoint: "Anchor-10" 373.265 1221.23 basechar 0
AnchorPoint: "Anchor-7" 501.6 -213.5 basechar 0
LayerCount: 2
Fore
SplineSet
20.3301 178.98 m 2,0,1
 242.394 178.98 242.394 178.98 248.907 178.969 c 2,2,-1
 279.904 179.013 l 1,3,-1
 257.062 203.722 l 2,4,5
 193.904 272.043 193.904 272.043 174.621 336.017 c 0,6,7
 128.327 494.942 128.327 494.942 177.3 600.912 c 0,8,9
 277.818 823.385 277.818 823.385 540.699 823.708 c 0,10,11
 747.738 824.006 747.738 824.006 853.961 703.358 c 1,12,-1
 798.768 579.427 l 1,13,14
 686.332 674.89 686.332 674.89 539.227 661.849 c 0,15,16
 372.895 647.879 372.895 647.879 331.768 527 c 0,17,18
 300.227 433.165 300.227 433.165 337.981 349.183 c 0,19,20
 379.488 254.996 379.488 254.996 449.768 222.427 c 0,21,22
 512.693 193.265 512.693 193.265 663.768 226.427 c 6,23,-1
 928 284.427 l 5,24,-1
 928 104.427 l 5,25,26
 523.305 -0.0235909 523.305 -0.0235909 356.357 -0.015625 c 2,27,-1
 28.8896 0 l 1,28,-1
 -8.40039 0 l 1,29,-1
 -8.40039 178.98 l 1,30,-1
 20.3301 178.98 l 2,0,1
EndSplineSet
EndChar

StartChar: uniFECC
Encoding: 65228 65228 244
Width: 932
VWidth: 2186
GlyphClass: 2
Flags: W
AnchorPoint: "Anchor-10" 426.58 1039.5 basechar 0
AnchorPoint: "Anchor-7" 384.58 -214.5 basechar 0
LayerCount: 2
Fore
SplineSet
470.266601562 585.321289062 m 4,0,1
 429.751953125 585.108398438 429.751953125 585.108398438 379.639648438 579.419921875 c 4,2,3
 239 565 239 565 254.086914062 506.208007812 c 4,4,5
 262.514648438 477.4921875 262.514648438 477.4921875 328.870117188 430.041992188 c 4,6,7
 456 341 456 341 470.266601562 333.447265625 c 5,8,9
 517 355 517 355 589 415 c 4,10,11
 665 477 665 477 665.280273438 506.819335938 c 4,12,13
 665 564 665 564 562.5859375 579.473632812 c 4,14,15
 527 585 527 585 470.266601562 585.321289062 c 4,0,1
362.848632812 231.0859375 m 5,16,17
 84 389 84 389 91.2529296875 530.01171875 c 4,18,19
 97 639 97 639 213.853515625 695.01171875 c 4,20,21
 291 732 291 732 457.6484375 732.01171875 c 4,22,23
 616 732 616 732 704 700.75 c 4,24,25
 840 652 840 652 830 516 c 4,26,27
 823 420 823 420 574.521484375 228.72265625 c 5,28,29
 608.996109397 176.005949297 608.996109397 176.005949297 911.84 178.98 c 6,30,-1
 952.559570312 179.379882812 l 5,31,-1
 952.559570312 0.5 l 5,32,-1
 888.3 0.5 l 6,33,34
 554 0 554 0 466.08 88.4043 c 5,35,36
 373 0 373 0 40.8604 0 c 6,37,-1
 -21.400390625 0 l 5,38,-1
 -21.400390625 178.98046875 l 5,39,-1
 17.3203 178.98 l 6,40,41
 325 179 325 179 362.848632812 231.0859375 c 5,16,17
EndSplineSet
EndChar

StartChar: uniFEDA
Encoding: 65242 65242 258
Width: 1729
VWidth: 2186
GlyphClass: 2
Flags: W
AnchorPoint: "Anchor-10" 539 1372.5 basechar 0
AnchorPoint: "Anchor-7" 460 -257.5 basechar 0
LayerCount: 2
Fore
SplineSet
958.77 1191.37 m 1,0,-1
 958.77 1129.46 l 1,1,2
 886.53 1124.56 886.53 1124.56 847.37 1110.13 c 0,3,4
 753.33 1074.87 753.33 1074.87 753.33 1030.55 c 0,5,6
 753.33 996.128 753.33 996.128 770.977 973.438 c 0,7,8
 786.961 952.126 786.961 952.126 865.02 940.646 c 0,9,10
 915.93 933.158 915.93 933.158 941.99 909.356 c 128,-1,11
 968.05 885.555 968.05 885.555 968.05 843.298 c 0,12,13
 968.05 744.281 968.05 744.281 876.3 692.399 c 0,14,15
 806.305 652.814 806.305 652.814 710.689 651.929 c 0,16,17
 647.676 651.929 647.676 651.929 593.148 661.5 c 1,18,-1
 593.148 729.882 l 1,19,20
 657.203 721.158 657.203 721.158 701.059 721.158 c 0,21,22
 774.923 721.158 774.923 721.158 822.305 739.814 c 0,23,24
 903.45 770.977 903.45 770.977 903.45 821.898 c 0,25,26
 903.45 878.181 903.45 878.181 809.736 893.454 c 0,27,28
 751.307 902.357 751.307 902.357 719.391 935.003 c 0,29,30
 687.093 968.039 687.093 968.039 688.375 1027.02 c 0,31,32
 690.326 1105.92 690.326 1105.92 763.637 1143.07 c 0,33,34
 846.89 1185.19 846.89 1185.19 958.77 1191.37 c 1,0,-1
1437.27 104.98 m 1,35,36
 1353.36 0 1353.36 0 1184.86 0 c 2,37,-1
 870.624 0 l 1,38,-1
 416.624 0 l 2,39,40
 90.9986 0.116211 90.9986 0.116211 90.9971 385.499 c 2,41,-1
 90.9961 628.499 l 1,42,-1
 260.996 628.499 l 1,43,-1
 260.996 394.499 l 2,44,45
 260.996 178.98 260.996 178.98 420.475 178.98 c 2,46,-1
 870.624 178.98 l 1,47,-1
 1191.01 178.98 l 2,48,49
 1350.49 178.98 1350.49 178.98 1350.49 393.499 c 2,50,-1
 1350.49 1200.5 l 1,51,-1
 1520.49 1200.5 l 1,52,-1
 1520.49 416.499 l 2,53,54
 1520.49 333.462 1520.49 333.462 1507.15 266.98 c 1,55,56
 1572.46 178.88 1572.46 178.88 1698.17 178.88 c 2,57,-1
 1748.42 178.88 l 1,58,-1
 1748.42 0 l 1,59,-1
 1689.32 0 l 2,60,61
 1565.39 0 1565.39 0 1437.27 104.98 c 1,35,36
EndSplineSet
EndChar

StartChar: uniFEDB
Encoding: 65243 65243 259
Width: 832
VWidth: 2186
GlyphClass: 2
Flags: W
AnchorPoint: "Anchor-10" 198.5 1204 basechar 0
AnchorPoint: "Anchor-7" 305 -225 basechar 0
LayerCount: 2
Fore
SplineSet
293.7 0 m 6,0,-1
 -10.4004 0 l 5,1,-1
 -10.4004 178.98 l 5,2,-1
 252.371 179.004 l 6,3,4
 483.048 179.025 483.048 179.025 487.513 284.402 c 4,5,6
 490.929 365.068 490.929 365.068 400.513 428.401 c 6,7,-1
 102.857 636.896 l 6,8,9
 17.4674 696.709 17.4674 696.709 12.5195 758.14 c 4,10,11
 0.976297 901.302 0.976297 901.302 117.539 955.45 c 6,12,-1
 721.425 1235.98 l 5,13,-1
 721.425 1059.3 l 5,14,15
 444.898 927.152 444.898 927.152 168.371 795 c 5,16,17
 508 552.904 l 4,18,19
 665.75 442.78 665.75 442.78 643.513 257.402 c 4,20,21
 628.201 122.53 628.201 122.53 532.513 59.4023 c 4,22,23
 442.472 0 442.472 0 293.7 0 c 6,0,-1
EndSplineSet
EndChar

StartChar: uniFEDC
Encoding: 65244 65244 260
Width: 860
VWidth: 2186
GlyphClass: 2
Flags: W
AnchorPoint: "Anchor-10" 198.5 1204 basechar 0
AnchorPoint: "Anchor-7" 258 -273 basechar 0
LayerCount: 2
Fore
SplineSet
571.465 91.4023 m 5,0,1
 554 74 554 74 532.513 59.4023 c 4,2,3
 442 0 442 0 293.7 0 c 6,4,-1
 -10.4004 0 l 5,5,-1
 -10.4004 178.98 l 5,6,-1
 252.371 179.004 l 6,7,8
 484 179 484 179 486 289 c 4,9,10
 487.005922844 372.491596027 487.005922844 372.491596027 402 431 c 6,11,-1
 102.857 636.896 l 6,12,13
 17 696 17 696 12.5195 758.14 c 4,14,15
 0.975686609868 901.301524451 0.975686609868 901.301524451 117.539 955.45 c 6,16,-1
 721.425 1235.98 l 5,17,-1
 721.425 1059.3 l 5,18,19
 445 927 445 927 168.371 795 c 5,20,-1
 509.487304688 555.502929688 l 4,21,22
 656 452 656 452 644.49 266.402 c 5,23,24
 699.758657697 179.38 699.758657697 179.38 822.12 179.38 c 6,25,-1
 875.15 179.38 l 5,26,-1
 875.15 0.5 l 5,27,-1
 812.41 0.5 l 6,28,29
 641 0 641 0 571.465 91.4023 c 5,0,1
EndSplineSet
EndChar

StartChar: uniFEDE
Encoding: 65246 65246 262
Width: 1402
VWidth: 2186
GlyphClass: 2
Flags: W
AnchorPoint: "Anchor-10" 456.5 1016.5 basechar 0
AnchorPoint: "Anchor-7" 268.34 -567.3 basechar 0
LayerCount: 2
Fore
SplineSet
1156.12 66.333 m 1,0,1
 1155.9 47.1309 l 2,2,3
 1150.81 -397.327 1150.81 -397.327 659.273 -412.368 c 2,4,-1
 642.901 -412.869 l 1,5,-1
 619.601 -412.869 l 2,6,7
 90.9727 -412.869 90.9727 -412.869 90.9727 46.6299 c 2,8,-1
 90.9727 279.131 l 2,9,10
 90.9727 398.63 90.9727 398.63 184.901 398.63 c 2,11,-1
 260.973 398.63 l 1,12,-1
 260.973 228.298 l 1,13,-1
 260.973 47.6299 l 2,14,15
 260.973 -233.889 260.973 -233.889 621.451 -233.889 c 2,16,-1
 642.901 -233.889 l 1,17,-1
 666.423 -233.388 l 2,18,19
 987.058 -226.56 987.058 -226.56 990.901 51.1309 c 2,20,-1
 991.47 92.2412 l 8,21,22
 990.91 114.196 990.91 114.196 990.91 379.32 c 2,23,-1
 990.91 1200.03 l 1,24,-1
 1156.79 1200.03 l 1,25,-1
 1156.79 379.327 l 2,26,27
 1156.79 279.356 1156.79 279.356 1214.52 230.268 c 0,28,29
 1274.37 179.38 1274.37 179.38 1366.72 179.38 c 2,30,-1
 1433.97 179.38 l 1,31,-1
 1433.97 0.5 l 1,32,-1
 1380.87 0.5 l 2,33,34
 1256.8 0.5 1256.8 0.5 1156.12 66.333 c 1,0,1
EndSplineSet
EndChar

StartChar: uniFEDF
Encoding: 65247 65247 263
Width: 576
VWidth: 2186
GlyphClass: 2
Flags: W
AnchorPoint: "Anchor-10" 342.73 1472 basechar 0
AnchorPoint: "Anchor-7" 217.73 -250.5 basechar 0
LayerCount: 2
Fore
SplineSet
106.7 0 m 2,0,-1
 -21.6006 0 l 1,1,-1
 -21.6006 178.98 l 1,2,-1
 112.85 178.98 l 2,3,4
 272.328 178.98 272.328 178.98 272.328 393.499 c 2,5,-1
 272.328 1200.5 l 1,6,-1
 442.328 1200.5 l 1,7,-1
 442.328 416.499 l 2,8,9
 442.328 0 442.328 0 106.7 0 c 2,0,-1
EndSplineSet
EndChar

StartChar: uniFEE0
Encoding: 65248 65248 264
Width: 650
VWidth: 2186
GlyphClass: 2
Flags: W
AnchorPoint: "Anchor-10" 313.73 1420 basechar 0
AnchorPoint: "Anchor-7" 243.73 -239.5 basechar 0
LayerCount: 2
Fore
SplineSet
316.045 96.1914 m 2,0,1
 229.912 7.80436e-06 229.912 7.80436e-06 80.7002 0 c 2,2,-1
 -45.4004 0 l 1,3,-1
 -45.4004 178.98 l 1,4,-1
 21.8496 178.98 l 2,5,6
 242.29 178.98 242.29 178.98 242.29 406.31 c 2,7,-1
 242.29 1200.96 l 1,8,-1
 409.17 1200.96 l 1,9,-1
 409.17 405.31 l 2,10,11
 409.17 178.98 409.17 178.98 629.61 178.98 c 2,12,-1
 696.86 178.98 l 1,13,-1
 696.86 0 l 1,14,-1
 570.76 0 l 2,15,16
 423.795 1.44583e-05 423.795 1.44583e-05 335.305 96.3145 c 2,17,-1
 325.607 106.87 l 1,18,-1
 316.045 96.1914 l 2,0,1
EndSplineSet
EndChar

StartChar: uniFEE2
Encoding: 65250 65250 266
Width: 1180
VWidth: 2186
GlyphClass: 2
Flags: W
AnchorPoint: "Anchor-10" 524.5 993 basechar 0
AnchorPoint: "Anchor-7" 156.188 -608.422 basechar 0
LayerCount: 2
Fore
SplineSet
731.24 489.364 m 0,0,1
 592.501 486.151 592.501 486.151 591.07 472.364 c 0,2,3
 550.426 135.065 550.426 135.065 772.62 151 c 0,4,5
 879.598 158.672 879.598 158.672 884.01 349.364 c 0,6,7
 887.15 493.981 887.15 493.981 731.24 489.364 c 0,0,1
958.913 72.4365 m 1,8,9
 938.811 51.0854 938.811 51.0854 914.271 35.5264 c 0,10,11
 856.873 -0.868164 856.873 -0.868164 778.285 -3.63965 c 0,12,13
 674.129 -6.87207 674.129 -6.87207 607.755 18 c 0,14,15
 384.038 102.878 384.038 102.878 419.78 467 c 1,16,17
 254.682 451.895 254.682 451.895 256 142 c 1,18,-1
 256 -425 l 1,19,-1
 90 -425 l 1,20,-1
 90 221 l 1,21,22
 116.712 613.178 116.712 613.178 441.262 648.002 c 1,23,-1
 809.262 648.001 l 1,24,25
 1026.22 646.074 1026.22 646.074 1044.45 402.364 c 0,26,27
 1052.19 295.227 1052.19 295.227 1031.04 212.437 c 1,28,29
 1053.7 178 1053.7 178 1148 178 c 2,30,-1
 1200 178 l 1,31,-1
 1200 0 l 1,32,-1
 1134 0 l 2,33,34
 1006.85 0 1006.85 0 958.913 72.4365 c 1,8,9
EndSplineSet
EndChar

StartChar: uniFEE3
Encoding: 65251 65251 267
Width: 811
VWidth: 2186
GlyphClass: 2
Flags: W
AnchorPoint: "Anchor-10" 337.69 916.5 basechar 0
AnchorPoint: "Anchor-7" 343.69 -205.5 basechar 0
LayerCount: 2
Fore
SplineSet
681.504 114 m 4,0,1
 625.668 -4.34473 625.668 -4.34473 460.504 -10 c 4,2,3
 251.798 -16.8311 251.798 -16.8311 201.837 68.8994 c 5,4,5
 154.462 0 154.462 0 35.9805 0 c 2,6,-1
 -8.40039 0 l 1,7,-1
 -8.40039 178.979 l 1,8,-1
 50.96 178.979 l 2,9,10
 116.549 178.979 116.549 178.979 127.524 227.288 c 5,11,12
 128.267 443.104 128.267 443.104 153.055 512.23 c 4,13,14
 221.254 704.52 221.254 704.52 417.504 707 c 4,15,16
 668.665 710.194 668.665 710.194 711.806 488.879 c 4,17,18
 754.657 269.048 754.657 269.048 681.504 114 c 4,0,1
439.145 158.2 m 4,19,20
 569.404 159.557 569.404 159.557 575.784 299.56 c 4,21,22
 579.382 368.018 579.382 368.018 573.204 420.22 c 4,23,24
 558.039 541.388 558.039 541.388 437.806 542.879 c 4,25,26
 303.857 544.689 303.857 544.689 285.604 409.06 c 4,27,28
 277.833 353.095 277.833 353.095 283.402 299.56 c 12,29,30
 299.555 156.49 299.555 156.49 439.145 158.2 c 4,19,20
EndSplineSet
EndChar

StartChar: uniFEE4
Encoding: 65252 65252 268
Width: 892
VWidth: 2186
GlyphClass: 2
Flags: W
AnchorPoint: "Anchor-10" 435.79 998.5 basechar 0
AnchorPoint: "Anchor-7" 417.79 -224.5 basechar 0
LayerCount: 2
Fore
SplineSet
457.145 158.2 m 0,0,1
 593.406 159.556 593.406 159.556 599.784 299.56 c 0,2,3
 603.181 367.831 603.181 367.831 597.204 415.22 c 0,4,5
 579.721 545.2 579.721 545.2 460.75 546.945 c 0,6,7
 323.776 548.689 323.776 548.689 304.604 404.06 c 0,8,9
 297.132 348.109 297.132 348.109 302.402 299.56 c 8,10,11
 318.554 156.49 318.554 156.49 457.145 158.2 c 0,0,1
741.297 245.898 m 1,12,13
 734.12 179.09 734.12 179.09 850.28 179.09 c 2,14,-1
 912.18 179.09 l 1,15,-1
 912.18 0.209961 l 1,16,-1
 829.43 0.209961 l 2,17,18
 725.044 0.209961 725.044 0.209961 680.89 70.8184 c 1,19,20
 636.584 -8.1097 636.584 -8.1097 470.89 -10.2852 c 4,21,22
 283.136 -12.8555 283.136 -12.8555 213.89 68.8184 c 1,23,24
 139.463 0 139.463 0 41.5996 0 c 2,25,-1
 -20.4004 0 l 1,26,-1
 -20.4004 178.979 l 1,27,-1
 48.0195 178.979 l 2,28,29
 138.668 178.979 138.668 178.979 146.524 227.288 c 1,30,31
 144.927 414.582 144.927 414.582 168.89 498.818 c 0,32,33
 228.89 709.741 228.89 709.741 464.89 709.741 c 0,34,35
 685.743 709.741 685.743 709.741 727.89 493.818 c 0,36,37
 747.255 396.141 747.255 396.141 741.297 245.898 c 1,12,13
EndSplineSet
EndChar

StartChar: uniFEEA
Encoding: 65258 65258 274
Width: 936
VWidth: 2186
GlyphClass: 2
Flags: W
AnchorPoint: "Anchor-10" 282.95 1113.81 basechar 0
AnchorPoint: "Anchor-7" 331.88 -225 basechar 0
LayerCount: 2
Fore
SplineSet
486.60546875 538 m 6,0,-1
 483 538 l 6,1,2
 245.697 538 245.697 538 252.252 331 c 2,3,-1
 252.347 328 l 2,4,5
 256.994067037 174.196362858 256.994067037 174.196362858 493.252 173.987 c 2,6,-1
 507.922 173.974 l 0,7,-1
 508.186 0 l 0,8,-1
 484.252 -0.492188 l 2,9,10
 91.1704981557 -8.99631135695 91.1704981557 -8.99631135695 91.002 328 c 2,11,-1
 91.001 330 l 2,12,13
 91 711 91 711 489.252 711 c 2,14,-1
 492.252 711 l 2,15,16
 725.101170277 711 725.101170277 711 725.252 484 c 2,17,-1
 725.371 304.904 l 2,18,19
 725.000072424 179.024578252 725.000072424 179.024578252 850.3 179 c 2,20,-1
 952.26 178.98 l 1,21,-1
 953.37 0 l 1,22,-1
 784.371 0 l 2,23,24
 557.124820111 -6.70752342558e-12 557.124820111 -6.70752342558e-12 557.371 257.904 c 2,25,-1
 557.52 414 l 2,26,27
 558 538 558 538 486.60546875 538 c 6,0,-1
EndSplineSet
EndChar

StartChar: uniFEEB
Encoding: 65259 65259 275
Width: 1217
VWidth: 2186
GlyphClass: 2
Flags: W
AnchorPoint: "Anchor-10" 483.801 1238.23 basechar 0
AnchorPoint: "Anchor-7" 437.542 -228.946 basechar 0
LayerCount: 2
Fore
SplineSet
525.749 258.622 m 0,0,1
 661 358 661 358 600.819335938 446.766601562 c 0,2,3
 539 540 539 540 430.478 519.771 c 0,4,5
 342 504 342 504 297.655 422.489 c 0,6,7
 228 295 228 295 369.862 197.168 c 1,8,9
 475 221 475 221 525.749 258.622 c 0,0,1
496.698 788.036 m 1,10,-1
 594.883789062 924.00390625 l 1,11,12
 782 773 782 773 922 643 c 0,13,14
 1121 458 1121 458 1125.66015625 265.518554688 c 0,15,16
 1130 83 1130 83 1004.66 -11.4814 c 0,17,18
 891 -97 891 -97 728.661 -79.4814 c 0,19,20
 523 -57 523 -57 384.173 47.915 c 1,21,22
 226 0 226 0 9.62988 0 c 2,23,-1
 -13.4004 0 l 1,24,-1
 -13.4004 178.979 l 1,25,-1
 93.0898 178.979 l 2,26,27
 151 179 151 179 174.099 178.008 c 1,28,29
 134 234 134 234 130.185546875 324.759765625 c 0,30,31
 124 468 124 468 220.010742188 568.4453125 c 0,32,33
 312 665 312 665 451 667 c 0,34,35
 597.801866385 668.997304305 597.801866385 668.997304305 706.779 551.302 c 2,36,-1
 706.879 551.194 l 1,37,38
 797 439 797 439 742.619 294.719 c 0,39,40
 706 197 706 197 564.959 131.782 c 5,41,42
 824.858420906 17.0908633059 824.858420906 17.0908633059 922 137 c 4,43,44
 1052 297 1052 297 822.661 512.519 c 0,45,46
 608.125570917 716.33694052 608.125570917 716.33694052 496.698 788.036 c 1,10,-1
EndSplineSet
EndChar

StartChar: uniFEEC
Encoding: 65260 65260 276
Width: 824
VWidth: 2186
GlyphClass: 2
Flags: W
AnchorPoint: "Anchor-7" 116.88 -606 basechar 0
AnchorPoint: "Anchor-10" 349.76 1011.74 basechar 0
LayerCount: 2
Fore
SplineSet
292.689 2.04297 m 1,0,-1
 290.913 -10.9346 l 2,1,2
 282.052 -75.6758 282.052 -75.6758 307.479 -169.576 c 0,3,4
 350.325 -329.946 350.325 -329.946 435.986 -329.946 c 0,5,6
 545.688 -329.946 545.688 -329.946 545.688 -186.296 c 0,7,8
 545.688 -124.881 545.688 -124.881 490.155 -59.6621 c 0,9,10
 439.23 0.149414 439.23 0.149414 351.343 1.28516 c 2,11,-1
 292.689 2.04297 l 1,0,-1
604.855 0 m 17,12,13
 709 -98 709 -98 704.644 -214.855 c 0,14,15
 699.841 -335.922 699.841 -335.922 635.062 -408.963 c 0,16,17
 568.294 -484.13 568.294 -484.13 451.062 -484.963 c 0,18,19
 271.449 -486.242 271.449 -486.242 189.94 -306.356 c 0,20,21
 138.959 -192.615 138.959 -192.615 143.742 -15.7783 c 2,22,-1
 144.169 0 l 1,23,-1
 -20.9355 0 l 1,24,-1
 -20.9355 178.979 l 1,25,-1
 141.791 179.037 l 1,26,-1
 141.181 194.815 l 2,27,28
 134.508 367.426 134.508 367.426 187.379 485.394 c 0,29,30
 268.888 665.279 268.888 665.279 448.5 664 c 0,31,32
 565.732 663.167 565.732 663.167 632.5 588 c 0,33,34
 710.153 500.44 710.153 500.44 702.082 393.893 c 0,35,36
 693 264 693 264 611 180 c 1,37,38
 743.088 179 743.088 179 750.02 179.979 c 1,39,-1
 838.64 179.38 l 1,40,-1
 838.64 0.499023 l 1,41,-1
 604.855 0 l 17,12,13
292.689 178.957 m 1,42,-1
 351.343 179.715 l 2,43,44
 480.295 181.382 480.295 181.382 513 252 c 0,45,46
 545.688 318.262 545.688 318.262 545.688 367.296 c 0,47,48
 545.688 510.946 545.688 510.946 435.986 510.946 c 0,49,50
 350.325 510.946 350.325 510.946 307.479 350.576 c 0,51,52
 282.053 256.681 282.053 256.681 290.913 191.935 c 2,53,-1
 292.689 178.957 l 1,42,-1
EndSplineSet
EndChar

StartChar: uniFEEE
Encoding: 65262 65262 278
Width: 856
VWidth: 2186
GlyphClass: 2
Flags: W
AnchorPoint: "Anchor-10" 319 1064 basechar 0
AnchorPoint: "Anchor-7" 354.515 -577.238 basechar 0
LayerCount: 2
Fore
SplineSet
683.380859375 258.368164062 m 4,0,1
 681.416015625 177.385742188 l 5,2,-1
 877.66015625 179.379882812 l 5,3,-1
 877.66015625 0.5 l 5,4,-1
 847.98046875 0.5 l 5,5,-1
 681.764648438 0.5 l 5,6,-1
 681.633789062 -8 l 6,7,8
 674.99609375 -445.271484375 674.99609375 -445.271484375 211.967773438 -445.041992188 c 6,9,-1
 113.046875 -444.993164062 l 5,10,-1
 112.950195312 -266.975585938 l 5,11,-1
 206.967773438 -267.041992188 l 6,12,13
 494.745117188 -267 494.745117188 -267 506.633789062 -7.0087890625 c 6,14,-1
 507 1 l 5,15,16
 467 1 467 1 355.487304688 0.79296875 c 4,17,18
 218 1 218 1 149.206054688 77.658203125 c 4,19,20
 76 158 76 158 90.9609375 362.930664062 c 4,21,22
 101 493 101 493 160.25390625 558.188476562 c 4,23,24
 240 647 240 647 395.16796875 643.627929688 c 4,25,26
 641 639 641 639 676.205078125 398.685546875 c 4,27,28
 684 346 684 346 683.380859375 258.368164062 c 4,0,1
391.206054688 476.658203125 m 4,29,30
 252 483 252 483 243.905273438 341.7734375 c 4,31,32
 238 228 238 228 280.206054688 200.185546875 c 4,33,34
 337 163 337 163 516.052734375 182.935546875 c 5,35,36
 523 378 523 378 493.206054688 427.046875 c 4,37,38
 465 473 465 473 391.206054688 476.658203125 c 4,29,30
EndSplineSet
EndChar

StartChar: uniFEF0
Encoding: 65264 65264 280
Width: 1344
VWidth: 2186
GlyphClass: 2
Flags: W
AnchorPoint: "Anchor-10" 231.73 607.315 basechar 0
AnchorPoint: "Anchor-7" 201.94 -563.88 basechar 0
LayerCount: 2
Fore
SplineSet
1203.98 0.75 m 25,0,-1
 1203.98 -64.25 l 2,1,2
 1203.98 -436.39 1203.98 -436.39 718.354 -447.75 c 2,3,-1
 696.98 -448.25 l 1,4,-1
 659.68 -448.25 l 2,5,6
 91.0518 -448.25 91.0518 -448.25 91.0518 -23.752 c 2,7,-1
 91.0518 208.75 l 2,8,9
 91.0518 328.248 91.0518 328.248 184.98 328.248 c 2,10,-1
 261.052 328.248 l 1,11,-1
 261.052 157.916 l 1,12,-1
 261.052 -22.752 l 2,13,14
 261.052 -269.27 261.052 -269.27 661.53 -269.27 c 2,15,-1
 696.98 -269.27 l 1,16,-1
 725.502 -268.77 l 2,17,18
 1035.98 -263.327 1035.98 -263.327 1035.98 -67.25 c 2,19,-1
 1035.98 0.75 l 2,20,-1
 829.66 0.689453 l 1,21,22
 775.72 7.18848 775.72 7.18848 754.72 88.9883 c 128,-1,23
 733.72 170.789 733.72 170.789 770.66 178.98 c 1,24,-1
 1366.89 179.38 l 1,25,-1
 1366.89 0.5 l 1,26,-1
 1203.98 0.75 l 25,0,-1
EndSplineSet
EndChar

StartChar: uniFEFB
Encoding: 65275 65275 291
Width: 1039
VWidth: 2186
GlyphClass: 3
Flags: W
AnchorPoint: "Anchor-9" 798.69 1386 baselig 0
AnchorPoint: "Anchor-6" 718.69 -216.481 baselig 0
AnchorPoint: "Anchor-6" 156 -260.981 baselig 1
AnchorPoint: "Anchor-9" 166.5 1388.5 baselig 1
LayerCount: 2
Fore
SplineSet
162.06 1200.96 m 1,0,-1
 328.94 1200.96 l 1,1,-1
 328.94 204.5 l 1,2,-1
 162.06 204.5 l 1,3,-1
 162.06 1200.96 l 1,0,-1
578.85 178.98 m 2,4,5
 738.328 178.98 738.328 178.98 738.328 393.499 c 2,6,-1
 738.328 1200.5 l 1,7,-1
 908.328 1200.5 l 1,8,-1
 908.328 416.499 l 2,9,10
 908.328 0 908.328 0 572.7 0 c 2,11,-1
 91.3994 0 l 1,12,-1
 91.3994 178.98 l 1,13,-1
 578.85 178.98 l 2,4,5
EndSplineSet
LCarets2: 1 0
Ligature2: "'rlig' Required Ligatures in Arabic lookup 16 subtable" uniFEDF uniFE8E
EndChar

StartChar: arabic_dot
Encoding: 65536 -1 292
Width: 150
GlyphClass: 2
Flags: W
LayerCount: 2
Fore
SplineSet
-30.4541 78.4082 m 132,-1,1
 -30.4541 121.938 -30.4541 121.938 0.353516 152.745 c 132,-1,2
 31.1611 183.553 31.1611 183.553 74.6914 183.553 c 132,-1,3
 118.221 183.553 118.221 183.553 149.028 152.745 c 132,-1,4
 179.836 121.938 179.836 121.938 179.836 78.4082 c 132,-1,5
 179.836 34.877 179.836 34.877 149.028 4.07031 c 132,-1,6
 118.221 -26.7373 118.221 -26.7373 74.6914 -26.7373 c 132,-1,7
 31.1611 -26.7373 31.1611 -26.7373 0.353516 4.07031 c 132,-1,0
 -30.4541 34.877 -30.4541 34.877 -30.4541 78.4082 c 132,-1,1
EndSplineSet
EndChar

StartChar: arabic_2dots
Encoding: 65537 -1 293
Width: 400
GlyphClass: 2
Flags: W
LayerCount: 2
Fore
SplineSet
220.546 78.4082 m 132,-1,1
 220.546 121.938 220.546 121.938 251.354 152.745 c 132,-1,2
 282.161 183.553 282.161 183.553 325.691 183.553 c 132,-1,3
 369.221 183.553 369.221 183.553 400.028 152.745 c 132,-1,4
 430.836 121.938 430.836 121.938 430.836 78.4082 c 132,-1,5
 430.836 34.877 430.836 34.877 400.028 4.07031 c 132,-1,6
 369.221 -26.7373 369.221 -26.7373 325.691 -26.7373 c 132,-1,7
 282.161 -26.7373 282.161 -26.7373 251.354 4.07031 c 132,-1,0
 220.546 34.877 220.546 34.877 220.546 78.4082 c 132,-1,1
-30.4541 78.4082 m 132,-1,9
 -30.4541 121.938 -30.4541 121.938 0.353516 152.745 c 132,-1,10
 31.1611 183.553 31.1611 183.553 74.6914 183.553 c 132,-1,11
 118.221 183.553 118.221 183.553 149.028 152.745 c 132,-1,12
 179.836 121.938 179.836 121.938 179.836 78.4082 c 132,-1,13
 179.836 34.877 179.836 34.877 149.028 4.07031 c 132,-1,14
 118.221 -26.7373 118.221 -26.7373 74.6914 -26.7373 c 132,-1,15
 31.1611 -26.7373 31.1611 -26.7373 0.353516 4.07031 c 132,-1,8
 -30.4541 34.877 -30.4541 34.877 -30.4541 78.4082 c 132,-1,9
EndSplineSet
EndChar

StartChar: arabic_3dots
Encoding: 65538 -1 294
Width: 400
GlyphClass: 2
Flags: W
LayerCount: 2
Fore
SplineSet
96.1211 318.679 m 132,-1,1
 96.1211 362.209 96.1211 362.209 126.929 393.016 c 132,-1,2
 157.736 423.823 157.736 423.823 201.267 423.823 c 132,-1,3
 244.796 423.823 244.796 423.823 275.604 393.016 c 132,-1,4
 306.411 362.209 306.411 362.209 306.411 318.679 c 132,-1,5
 306.411 275.147 306.411 275.147 275.604 244.341 c 132,-1,6
 244.796 213.533 244.796 213.533 201.267 213.533 c 132,-1,7
 157.736 213.533 157.736 213.533 126.929 244.341 c 132,-1,0
 96.1211 275.147 96.1211 275.147 96.1211 318.679 c 132,-1,1
220.546 78.4082 m 128,-1,9
 220.546 121.938 220.546 121.938 251.354 152.745 c 128,-1,10
 282.161 183.553 282.161 183.553 325.691 183.553 c 128,-1,11
 369.221 183.553 369.221 183.553 400.028 152.745 c 128,-1,12
 430.836 121.938 430.836 121.938 430.836 78.4082 c 128,-1,13
 430.836 34.877 430.836 34.877 400.028 4.07031 c 128,-1,14
 369.221 -26.7373 369.221 -26.7373 325.691 -26.7373 c 128,-1,15
 282.161 -26.7373 282.161 -26.7373 251.354 4.07031 c 128,-1,8
 220.546 34.877 220.546 34.877 220.546 78.4082 c 128,-1,9
-30.4541 78.4082 m 128,-1,17
 -30.4541 121.938 -30.4541 121.938 0.353516 152.745 c 128,-1,18
 31.1611 183.553 31.1611 183.553 74.6914 183.553 c 128,-1,19
 118.221 183.553 118.221 183.553 149.028 152.745 c 128,-1,20
 179.836 121.938 179.836 121.938 179.836 78.4082 c 128,-1,21
 179.836 34.877 179.836 34.877 149.028 4.07031 c 128,-1,22
 118.221 -26.7373 118.221 -26.7373 74.6914 -26.7373 c 128,-1,23
 31.1611 -26.7373 31.1611 -26.7373 0.353516 4.07031 c 128,-1,16
 -30.4541 34.877 -30.4541 34.877 -30.4541 78.4082 c 128,-1,17
EndSplineSet
EndChar

StartChar: arabic_3dots_a
Encoding: 65539 -1 295
Width: 400
GlyphClass: 2
Flags: W
LayerCount: 2
Fore
SplineSet
96.1211 -147.725 m 132,-1,1
 96.1211 -104.194 96.1211 -104.194 126.929 -73.3877 c 132,-1,2
 157.736 -42.5801 157.736 -42.5801 201.267 -42.5801 c 132,-1,3
 244.796 -42.5801 244.796 -42.5801 275.604 -73.3877 c 132,-1,4
 306.411 -104.194 306.411 -104.194 306.411 -147.725 c 132,-1,5
 306.411 -191.256 306.411 -191.256 275.604 -222.062 c 132,-1,6
 244.796 -252.87 244.796 -252.87 201.267 -252.87 c 132,-1,7
 157.736 -252.87 157.736 -252.87 126.929 -222.062 c 132,-1,0
 96.1211 -191.256 96.1211 -191.256 96.1211 -147.725 c 132,-1,1
220.546 92.4082 m 128,-1,9
 220.546 135.938 220.546 135.938 251.354 166.745 c 128,-1,10
 282.161 197.553 282.161 197.553 325.691 197.553 c 128,-1,11
 369.221 197.553 369.221 197.553 400.028 166.745 c 128,-1,12
 430.836 135.938 430.836 135.938 430.836 92.4082 c 128,-1,13
 430.836 48.877 430.836 48.877 400.028 18.0703 c 128,-1,14
 369.221 -12.7373 369.221 -12.7373 325.691 -12.7373 c 128,-1,15
 282.161 -12.7373 282.161 -12.7373 251.354 18.0703 c 128,-1,8
 220.546 48.877 220.546 48.877 220.546 92.4082 c 128,-1,9
-30.4541 92.4082 m 128,-1,17
 -30.4541 135.938 -30.4541 135.938 0.353516 166.745 c 128,-1,18
 31.1611 197.553 31.1611 197.553 74.6914 197.553 c 128,-1,19
 118.221 197.553 118.221 197.553 149.028 166.745 c 128,-1,20
 179.836 135.938 179.836 135.938 179.836 92.4082 c 128,-1,21
 179.836 48.877 179.836 48.877 149.028 18.0703 c 128,-1,22
 118.221 -12.7373 118.221 -12.7373 74.6914 -12.7373 c 128,-1,23
 31.1611 -12.7373 31.1611 -12.7373 0.353516 18.0703 c 128,-1,16
 -30.4541 48.877 -30.4541 48.877 -30.4541 92.4082 c 128,-1,17
EndSplineSet
EndChar

StartChar: uni066E.fina
Encoding: 65540 -1 296
Width: 1838
VWidth: 2186
GlyphClass: 2
Flags: W
AnchorPoint: "Anchor-10" 595 1065.5 basechar 0
AnchorPoint: "Anchor-7" 595 -174 basechar 0
LayerCount: 2
Fore
SplineSet
986.624 0 m 1,0,-1
 415.624 0 l 2,1,2
 90.9988090474 -2.37571384787e-09 90.9988090474 -2.37571384787e-09 90.9971 396.499 c 2,3,-1
 90.9961 628.499 l 1,4,-1
 260.996 628.499 l 1,5,-1
 260.996 394.499 l 2,6,7
 261.000000371 178.98 261.000000371 178.98 420.475 178.98 c 2,8,-1
 986.624 178.98 l 1,9,-1
 1217 181.719 l 2,10,11
 1430.72421265 183.997060416 1430.72421265 183.997060416 1430.58 371.25 c 2,12,-1
 1430.45019531 539.794921875 l 5,13,-1
 1603.83984375 539.794921875 l 5,14,-1
 1604 369.25 l 2,15,16
 1604 179.38 1604 179.38 1774.97 179.38 c 2,17,-1
 1860.17 179.38 l 1,18,-1
 1860.17 0.5 l 1,19,-1
 1766.03 0.5 l 2,20,21
 1566 0 1566 0 1505.88 144.822 c 1,22,23
 1455 67 1455 67 1358.88 30.8223 c 0,24,25
 1277 0 1277 0 986.624 0 c 1,0,-1
EndSplineSet
EndChar

StartChar: uni06A1.fina
Encoding: 65543 -1 299
Width: 1885
VWidth: 2186
GlyphClass: 2
Flags: W
AnchorPoint: "Anchor-10" 418 1172.5 basechar 0
AnchorPoint: "Anchor-7" 525 -218.5 basechar 0
LayerCount: 2
Fore
SplineSet
837.624 178.98 m 1,0,1
 1128 177.835 1128 177.835 1216.85 179.462 c 5,2,3
 1126.99 238.151 1126.99 238.151 1084.56 336.521 c 0,4,5
 1042.83 432.857 1042.83 432.857 1075.25 542.814 c 1,6,7
 1114.6 689.276 1114.6 689.276 1254.49 746.422 c 0,8,9
 1317.53 772.171 1317.53 772.171 1397.92 772.171 c 0,10,11
 1502.97 772.171 1502.97 772.171 1560.35 739.827 c 0,12,13
 1698.39 661.498 1698.39 661.498 1720.59 542.824 c 0,14,15
 1738.87 444.142 1738.87 444.142 1708.15 340.93 c 0,16,17
 1678.95 242.805 1678.95 242.805 1558.85 179.272 c 1,18,19
 1772.11 180.493 1772.11 180.493 1906.51 179.88 c 1,20,-1
 1906.51 0 l 1,21,-1
 1697.32 -0.5 l 2,22,23
 1524.98 -0.911923 1524.98 -0.911923 1393.85 90.1348 c 1,24,25
 1255.45 -0.823275 1255.45 -0.823275 1091.38 -0.5 c 2,26,-1
 837.624 0 l 1,27,-1
 416.624 0 l 2,28,29
 90.9987 -0.333132 90.9987 -0.333132 90.9971 385.499 c 2,30,-1
 90.9961 628.499 l 1,31,-1
 260.996 628.499 l 1,32,-1
 260.996 394.499 l 2,33,34
 260.996 178.98 260.996 178.98 420.475 178.98 c 2,35,-1
 837.624 178.98 l 1,0,1
1227.34 453.626 m 128,-1,37
 1227.34 386.068 1227.34 386.068 1276.32 338.188 c 0,38,39
 1325.52 290.103 1325.52 290.103 1395.14 290.103 c 128,-1,40
 1464.77 290.103 1464.77 290.103 1513.96 338.188 c 0,41,42
 1562.94 386.067 1562.94 386.067 1562.94 453.626 c 128,-1,43
 1562.94 521.181 1562.94 521.181 1513.96 569.06 c 0,44,45
 1464.77 617.146 1464.77 617.146 1395.14 617.146 c 128,-1,46
 1325.52 617.146 1325.52 617.146 1276.32 569.06 c 0,47,36
 1227.34 521.183 1227.34 521.183 1227.34 453.626 c 128,-1,37
EndSplineSet
EndChar

StartChar: uni06A1.init
Encoding: 65544 -1 300
Width: 726
VWidth: 2186
GlyphClass: 2
Flags: W
AnchorPoint: "Anchor-10" 480.531 1141.5 basechar 0
AnchorPoint: "Anchor-7" 380.53 -165 basechar 0
LayerCount: 2
Fore
SplineSet
457.99 325.342 m 5,0,1
 418 325 418 325 306.477 325.135 c 4,2,3
 169 325 169 325 100.196 402 c 4,4,5
 28 481 28 481 41.9512 664.273 c 4,6,7
 52 794 52 794 111.244 859.53 c 4,8,9
 191 948 191 948 346.158 944.97 c 4,10,11
 592 940 592 940 627.195 700.028 c 4,12,13
 635 647 635 647 634.371 582.71 c 4,14,15
 634 450 634 450 633.99 438.342 c 5,16,-1
 633.99 325.342 l 6,17,18
 633.999989002 -1.64000253017 633.999989002 -1.64000253017 185.324 0 c 6,19,-1
 -19.595703125 0.7490234375 l 5,20,-1
 -19.9921875 179.866210938 l 5,21,-1
 148.324 180 l 6,22,23
 457.99 180 457.99 180 457.99 311.333 c 6,24,-1
 457.99 325.342 l 5,0,1
342.196 778 m 4,25,26
 204.994 784.504 204.994 784.504 194.895 643.115 c 4,27,28
 188.696 552.591 188.696 552.591 231.196 524.528 c 4,29,30
 288.414 487.43 288.414 487.43 467.043 507.278 c 5,31,32
 474.407 678.999 474.407 678.999 444.196 728.389 c 4,33,34
 416.408 774.676 416.408 774.676 342.196 778 c 4,25,26
EndSplineSet
EndChar

StartChar: uni06A1.medi
Encoding: 65545 -1 301
Width: 919
VWidth: 2186
GlyphClass: 2
Flags: W
AnchorPoint: "Anchor-10" 452.26 1012 basechar 0
AnchorPoint: "Anchor-7" 452.26 -165 basechar 0
LayerCount: 2
Fore
SplineSet
285.752 454.126 m 128,-1,1
 285.752 386.568 285.752 386.568 334.733 338.688 c 0,2,3
 383.924 290.603 383.924 290.603 453.553 290.603 c 128,-1,4
 523.18 290.603 523.18 290.603 572.371 338.688 c 0,5,6
 621.352 386.567 621.352 386.567 621.352 454.126 c 128,-1,7
 621.352 521.681 621.352 521.681 572.371 569.56 c 0,8,9
 523.178 617.646 523.178 617.646 453.553 617.646 c 128,-1,10
 383.926 617.646 383.926 617.646 334.733 569.56 c 0,11,0
 285.752 521.683 285.752 521.683 285.752 454.126 c 128,-1,1
618.76 740.327 m 0,12,13
 756.797 661.998 756.797 661.998 778.994 543.324 c 0,14,15
 797.708 442.316 797.708 442.316 766.556 341.43 c 0,16,17
 736.629 243.305 736.629 243.305 617.26 177.772 c 1,18,19
 754.645 178.376 754.645 178.376 892.03 178.98 c 2,20,-1
 934.92 179.38 l 5,21,-1
 934.92 0.5 l 5,22,-1
 755.73 0 l 2,23,24
 583.486 -0.480619 583.486 -0.480619 452.26 90.6348 c 1,25,26
 313.775 0 313.775 0 149.79 0 c 2,27,-1
 -15.4004 0 l 1,28,-1
 -15.4004 178.98 l 1,29,-1
 12.4902 178.98 l 2,30,31
 271.645 178.976 271.645 178.976 275.26 178.962 c 1,32,33
 186.013 237.651 186.013 237.651 142.969 337.021 c 0,34,35
 101.239 433.357 101.239 433.357 133.654 543.314 c 1,36,37
 173.011 689.776 173.011 689.776 312.9 746.922 c 0,38,39
 375.935 772.671 375.935 772.671 456.326 772.671 c 0,40,41
 561.381 772.671 561.381 772.671 618.76 740.327 c 0,12,13
EndSplineSet
EndChar

StartChar: uni066F.fina
Encoding: 65546 -1 302
Width: 1396
VWidth: 2186
GlyphClass: 2
Flags: W
AnchorPoint: "Anchor-10" 353 905 basechar 0
AnchorPoint: "Anchor-7" 452.645 -585.82 basechar 0
LayerCount: 2
Fore
SplineSet
1242.45019531 179.615234375 m 1,0,1
 1332 180 1332 180 1416.26 179.88 c 1,2,-1
 1416.26 0 l 1,3,-1
 1235.28 -0.587891 l 1,4,-1
 1235.9 -45.8691 l 2,5,6
 1242.28239948 -512.002591647 1242.28239948 -512.002591647 737.273 -507.368 c 2,7,-1
 678.901 -506.869 l 1,8,-1
 619.601 -506.869 l 2,9,10
 90.9999922192 -506.869 90.9999922192 -506.869 90.9727 -47.3701 c 2,11,-1
 90.9727 185.131 l 2,12,13
 90.9727 305.000107571 90.9727 305.000107571 184.901 304.63 c 2,14,-1
 260.973 304.63 l 1,15,-1
 260.973 134.298 l 1,16,-1
 260.973 -46.3701 l 2,17,18
 260.973 -328.000008315 260.973 -328.000008315 621.451 -327.889 c 2,19,-1
 678.901 -327.889 l 1,20,-1
 744.423 -327.388 l 2,21,22
 1060.00061138 -324.975003094 1060.00061138 -324.975003094 1066.90039062 -42.869140625 c 2,23,-1
 1068 0 l 1,24,25
 1028 0 1028 0 916.487304688 -0.20703125 c 0,26,27
 779 0 779 0 710.206054688 76.658203125 c 0,28,29
 638 156 638 156 651.9609375 338.930664062 c 0,30,31
 662 469 662 469 721.25390625 534.188476562 c 0,32,33
 801 623 801 623 956.16796875 619.627929688 c 0,34,35
 1201.65476727 614.968592533 1201.65476727 614.968592533 1237.20507812 374.685546875 c 0,36,37
 1245 322 1245 322 1244.38085938 257.368164062 c 0,38,-1
 1242.45019531 179.615234375 l 1,0,1
952.206054688 452.658203125 m 0,39,40
 815 459 815 459 804.905273438 317.7734375 c 0,41,42
 799 227 799 227 841.206054688 199.185546875 c 0,43,44
 898 162 898 162 1077.05273438 181.935546875 c 1,45,46
 1084 354 1084 354 1054.20605469 403.046875 c 0,47,48
 1026 449 1026 449 952.206054688 452.658203125 c 0,39,40
EndSplineSet
EndChar

StartChar: arabic_ring
Encoding: 65549 -1 305
Width: 438
GlyphClass: 2
Flags: W
LayerCount: 2
Fore
SplineSet
316 220 m 0,0,1
 316 260 316 260 288 288 c 0,2,3
 260 317 260 317 219 317 c 128,-1,4
 178 317 178 317 150 289 c 128,-1,5
 122 261 122 261 122 220 c 0,6,7
 122 178 122 178 150 150 c 0,8,9
 178 123 178 123 219 123 c 128,-1,10
 260 123 260 123 288 151 c 128,-1,11
 316 179 316 179 316 220 c 0,0,1
438 220 m 128,-1,13
 438 128 438 128 375 64 c 0,14,15
 311 0 311 0 219 0 c 128,-1,16
 127 0 127 0 64 64 c 0,17,18
 0 128 0 128 0 220 c 128,-1,19
 0 312 0 312 64 376 c 0,20,21
 127 439 127 439 219 439 c 128,-1,22
 311 439 311 439 375 376 c 1,23,12
 438 312 438 312 438 220 c 128,-1,13
EndSplineSet
EndChar

StartChar: arabic_gaf_bar
Encoding: 65550 -1 306
Width: 614
GlyphClass: 2
Flags: W
LayerCount: 2
Fore
SplineSet
602 1626.65 m 1,0,-1
 0 1333 l 1,1,-1
 0 1442 l 1,2,-1
 602 1735.65 l 1,3,-1
 602 1626.65 l 1,0,-1
EndSplineSet
EndChar

StartChar: uni066E.init.math
Encoding: 65560 -1 316
Width: 877
VWidth: 2186
GlyphClass: 2
Flags: W
LayerCount: 2
Fore
SplineSet
577.471 95.876 m 0,0,1
 504.315 8.5 504.315 8.5 342.4 8.5 c 2,2,-1
 -8.40039 8.5 l 1,3,-1
 -8.40039 179.38 l 1,4,-1
 283.55 179.38 l 2,5,6
 394.865 179.38 394.865 179.38 445.752 230.268 c 0,7,8
 501.99 286.505 501.99 286.505 501.99 405.31 c 2,9,-1
 501.99 624.5 l 1,10,-1
 672.87 624.5 l 1,11,-1
 672.87 405.31 l 2,12,13
 672.87 209.942 672.87 209.942 577.471 95.876 c 0,0,1
EndSplineSet
EndChar

StartChar: guillemotleft
Encoding: 171 171 317
Width: 1180
VWidth: 0
Flags: W
LayerCount: 2
Fore
SplineSet
897.606445312 895.9140625 m 1,0,-1
 897.606445312 734.328125 l 1,1,-1
 642.959960938 507.599609375 l 1,2,-1
 897.606445312 280.872070312 l 1,3,-1
 897.606445312 119.286132812 l 1,4,-1
 500.83203125 472.9140625 l 1,5,-1
 500.83203125 542.286132812 l 1,6,-1
 897.606445312 895.9140625 l 1,0,-1
530.442382812 895.9140625 m 1,7,-1
 530.442382812 734.328125 l 1,8,-1
 275.795898438 507.599609375 l 1,9,-1
 530.442382812 280.872070312 l 1,10,-1
 530.442382812 119.286132812 l 1,11,-1
 133.66796875 472.9140625 l 1,12,-1
 133.66796875 542.286132812 l 1,13,-1
 530.442382812 895.9140625 l 1,7,-1
EndSplineSet
EndChar

StartChar: guillemotright
Encoding: 187 187 318
Width: 1094
VWidth: 0
Flags: W
LayerCount: 2
Fore
SplineSet
163.278320312 895.9140625 m 1,0,-1
 560.051757812 542.286132812 l 1,1,-1
 560.051757812 472.9140625 l 1,2,-1
 163.278320312 119.286132812 l 1,3,-1
 163.278320312 280.872070312 l 1,4,-1
 417.923828125 507.599609375 l 1,5,-1
 163.278320312 734.328125 l 1,6,-1
 163.278320312 895.9140625 l 1,0,-1
530.442382812 895.9140625 m 1,7,-1
 927.215820312 542.286132812 l 1,8,-1
 927.215820312 472.9140625 l 1,9,-1
 530.442382812 119.286132812 l 1,10,-1
 530.442382812 280.872070312 l 1,11,-1
 785.087890625 507.599609375 l 1,12,-1
 530.442382812 734.328125 l 1,13,-1
 530.442382812 895.9140625 l 1,7,-1
EndSplineSet
EndChar

StartChar: zero
Encoding: 48 48 319
Width: 1223
Flags: W
LayerCount: 2
Fore
SplineSet
550.74609375 1150.55957031 m 0,0,1
 418.76953125 1150.55957031 418.76953125 1150.55957031 352.359375 1020.69921875 c 128,-1,2
 285.948242188 890.837890625 285.948242188 890.837890625 285.948242188 630.26953125 c 0,3,4
 285.948242188 370.547851562 285.948242188 370.547851562 352.359375 240.686523438 c 128,-1,5
 418.76953125 110.826171875 418.76953125 110.826171875 550.74609375 110.826171875 c 0,6,7
 683.568359375 110.826171875 683.568359375 110.826171875 749.978515625 240.686523438 c 128,-1,8
 816.389648438 370.547851562 816.389648438 370.547851562 816.389648438 630.26953125 c 0,9,10
 816.389648438 890.837890625 816.389648438 890.837890625 749.978515625 1020.69921875 c 128,-1,11
 683.568359375 1150.55957031 683.568359375 1150.55957031 550.74609375 1150.55957031 c 0,0,1
550.74609375 1285.91992188 m 128,-1,13
 763.091796875 1285.91992188 763.091796875 1285.91992188 875.186523438 1117.98925781 c 128,-1,14
 987.282226562 950.057617188 987.282226562 950.057617188 987.282226562 630.26953125 c 0,15,16
 987.282226562 311.328125 987.282226562 311.328125 875.186523438 143.397460938 c 128,-1,17
 763.091796875 -24.5341796875 763.091796875 -24.5341796875 550.74609375 -24.5341796875 c 128,-1,18
 338.400390625 -24.5341796875 338.400390625 -24.5341796875 226.3046875 143.397460938 c 128,-1,19
 114.209960938 311.328125 114.209960938 311.328125 114.209960938 630.26953125 c 0,20,21
 114.209960938 950.057617188 114.209960938 950.057617188 226.3046875 1117.98925781 c 128,-1,12
 338.400390625 1285.91992188 338.400390625 1285.91992188 550.74609375 1285.91992188 c 128,-1,13
EndSplineSet
EndChar

StartChar: one
Encoding: 49 49 320
Width: 1223
Flags: W
LayerCount: 2
Fore
SplineSet
214.883789062 143.8203125 m 1,0,-1
 494.064453125 143.8203125 l 1,1,-1
 494.064453125 1107.4140625 l 1,2,-1
 190.349609375 1046.50195312 l 1,3,-1
 190.349609375 1202.16601562 l 1,4,-1
 492.372070312 1263.078125 l 1,5,-1
 663.263671875 1263.078125 l 5,6,-1
 663.263671875 143.8203125 l 1,7,-1
 942.444335938 143.8203125 l 1,8,-1
 942.444335938 0 l 1,9,-1
 214.883789062 0 l 1,10,-1
 214.883789062 143.8203125 l 1,0,-1
EndSplineSet
EndChar

StartChar: two
Encoding: 50 50 321
Width: 1223
Flags: W
LayerCount: 2
Fore
SplineSet
332.477539062 143.8203125 m 1,0,-1
 928.908203125 143.8203125 l 1,1,-1
 928.908203125 0 l 1,2,-1
 126.900390625 0 l 1,3,-1
 126.900390625 143.8203125 l 1,4,5
 224.190429688 244.494140625 224.190429688 244.494140625 392.12109375 414.1171875 c 128,-1,6
 560.051757812 583.740234375 560.051757812 583.740234375 603.198242188 632.807617188 c 0,7,8
 685.259765625 725.022460938 685.259765625 725.022460938 717.831054688 788.89453125 c 128,-1,9
 750.40234375 852.767578125 750.40234375 852.767578125 750.40234375 914.526367188 c 0,10,11
 750.40234375 1015.20019531 750.40234375 1015.20019531 679.760742188 1078.65039062 c 128,-1,12
 609.120117188 1142.09960938 609.120117188 1142.09960938 495.755859375 1142.09960938 c 0,13,14
 415.385742188 1142.09960938 415.385742188 1142.09960938 326.1328125 1114.18164062 c 128,-1,15
 236.879882812 1086.26367188 236.879882812 1086.26367188 135.360351562 1029.58203125 c 1,16,-1
 135.360351562 1202.16601562 l 1,17,18
 238.572265625 1243.62011719 238.572265625 1243.62011719 328.248046875 1264.76953125 c 128,-1,19
 417.923828125 1285.91992188 417.923828125 1285.91992188 492.372070312 1285.91992188 c 0,20,21
 688.643554688 1285.91992188 688.643554688 1285.91992188 805.391601562 1187.78417969 c 128,-1,22
 922.139648438 1089.6484375 922.139648438 1089.6484375 922.139648438 925.524414062 c 0,23,24
 922.139648438 847.692382812 922.139648438 847.692382812 892.953125 777.897460938 c 128,-1,25
 863.765625 708.1015625 863.765625 708.1015625 786.780273438 613.349609375 c 1,26,27
 765.629882812 588.81640625 765.629882812 588.81640625 652.265625 471.64453125 c 128,-1,28
 538.90234375 354.473632812 538.90234375 354.473632812 332.477539062 143.8203125 c 1,0,-1
EndSplineSet
EndChar

StartChar: three
Encoding: 51 51 322
Width: 1223
Flags: W
LayerCount: 2
Fore
SplineSet
703.026367188 681.030273438 m 1,0,1
 825.696289062 654.803710938 825.696289062 654.803710938 894.64453125 571.896484375 c 128,-1,2
 963.59375 488.98828125 963.59375 488.98828125 963.59375 367.1640625 c 0,3,4
 963.59375 180.198242188 963.59375 180.198242188 835.001953125 77.8330078125 c 128,-1,5
 706.41015625 -24.533203125 706.41015625 -24.533203125 469.530273438 -24.533203125 c 0,6,7
 390.005859375 -24.533203125 390.005859375 -24.533203125 305.829101562 -8.8828125 c 128,-1,8
 221.65234375 6.7685546875 221.65234375 6.7685546875 131.975585938 38.0703125 c 1,9,-1
 131.975585938 203.041015625 l 1,10,11
 203.040039062 161.586914062 203.040039062 161.586914062 287.639648438 140.436523438 c 128,-1,12
 372.240234375 119.287109375 372.240234375 119.287109375 464.454101562 119.287109375 c 0,13,14
 625.194335938 119.287109375 625.194335938 119.287109375 709.37109375 182.737304688 c 128,-1,15
 793.547851562 246.186523438 793.547851562 246.186523438 793.547851562 367.165039062 c 0,16,17
 793.547851562 478.836914062 793.547851562 478.836914062 715.29296875 541.864257812 c 128,-1,18
 637.038085938 604.890625 637.038085938 604.890625 497.448242188 604.890625 c 2,19,-1
 350.244140625 604.890625 l 1,20,-1
 350.244140625 745.327148438 l 1,21,-1
 504.215820312 745.327148438 l 2,22,23
 630.26953125 745.327148438 630.26953125 745.327148438 697.103515625 795.6640625 c 128,-1,24
 763.938476562 846.000976562 763.938476562 846.000976562 763.938476562 940.751953125 c 0,25,26
 763.938476562 1038.04199219 763.938476562 1038.04199219 694.989257812 1090.07128906 c 128,-1,27
 626.040039062 1142.09960938 626.040039062 1142.09960938 497.448242188 1142.09960938 c 0,28,29
 427.23046875 1142.09960938 427.23046875 1142.09960938 346.860351562 1126.87207031 c 128,-1,30
 266.490234375 1111.64355469 266.490234375 1111.64355469 170.045898438 1079.49609375 c 1,31,-1
 170.045898438 1231.77636719 l 1,32,33
 267.3359375 1258.84765625 267.3359375 1258.84765625 352.359375 1272.38378906 c 128,-1,34
 437.381835938 1285.91992188 437.381835938 1285.91992188 512.67578125 1285.91992188 c 0,35,36
 707.255859375 1285.91992188 707.255859375 1285.91992188 820.620117188 1197.51269531 c 128,-1,37
 933.984375 1109.10644531 933.984375 1109.10644531 933.984375 958.517578125 c 0,38,39
 933.984375 853.615234375 933.984375 853.615234375 873.91796875 781.282226562 c 128,-1,40
 813.8515625 708.948242188 813.8515625 708.948242188 703.026367188 681.030273438 c 1,0,1
EndSplineSet
EndChar

StartChar: four
Encoding: 52 52 323
Width: 1223
Flags: W
LayerCount: 2
Fore
SplineSet
654.803710938 1114.18164062 m 1,0,-1
 223.34375 439.919921875 l 1,1,-1
 654.803710938 439.919921875 l 1,2,-1
 654.803710938 1114.18164062 l 1,0,-1
609.965820312 1263.078125 m 1,3,-1
 824.849609375 1263.078125 l 1,4,-1
 824.849609375 439.919921875 l 1,5,-1
 1005.04785156 439.919921875 l 1,6,-1
 1005.04785156 297.791992188 l 1,7,-1
 824.849609375 297.791992188 l 1,8,-1
 824.849609375 0 l 1,9,-1
 654.803710938 0 l 1,10,-1
 654.803710938 297.791992188 l 1,11,-1
 84.599609375 297.791992188 l 1,12,-1
 84.599609375 462.76171875 l 1,13,-1
 609.965820312 1263.078125 l 1,3,-1
EndSplineSet
EndChar

StartChar: five
Encoding: 53 53 324
Width: 1223
Flags: W
LayerCount: 2
Fore
SplineSet
186.965820312 1263.078125 m 1,0,-1
 857.84375 1263.078125 l 1,1,-1
 857.84375 1119.2578125 l 1,2,-1
 343.475585938 1119.2578125 l 1,3,-1
 343.475585938 809.622070312 l 1,4,5
 380.700195312 822.311523438 380.700195312 822.311523438 417.923828125 828.657226562 c 128,-1,6
 455.1484375 835.001953125 455.1484375 835.001953125 492.372070312 835.001953125 c 0,7,8
 703.872070312 835.001953125 703.872070312 835.001953125 827.387695312 719.099609375 c 128,-1,9
 950.904296875 603.198242188 950.904296875 603.198242188 950.904296875 405.234375 c 0,10,11
 950.904296875 201.34765625 950.904296875 201.34765625 824.00390625 88.4072265625 c 128,-1,12
 697.103515625 -24.5341796875 697.103515625 -24.5341796875 466.146484375 -24.5341796875 c 0,13,14
 386.622070312 -24.5341796875 386.622070312 -24.5341796875 304.13671875 -10.998046875 c 128,-1,15
 221.65234375 2.5380859375 221.65234375 2.5380859375 133.66796875 29.6103515625 c 1,16,-1
 133.66796875 201.34765625 l 1,17,18
 209.807617188 159.893554688 209.807617188 159.893554688 291.024414062 139.58984375 c 128,-1,19
 372.240234375 119.286132812 372.240234375 119.286132812 462.76171875 119.286132812 c 0,20,21
 609.120117188 119.286132812 609.120117188 119.286132812 694.56640625 196.272460938 c 128,-1,22
 780.01171875 273.2578125 780.01171875 273.2578125 780.01171875 405.234375 c 128,-1,23
 780.01171875 537.209960938 780.01171875 537.209960938 694.56640625 614.196289062 c 128,-1,24
 609.120117188 691.181640625 609.120117188 691.181640625 462.76171875 691.181640625 c 0,25,26
 394.236328125 691.181640625 394.236328125 691.181640625 326.1328125 675.954101562 c 128,-1,27
 258.030273438 660.725585938 258.030273438 660.725585938 186.965820312 628.578125 c 1,28,-1
 186.965820312 1263.078125 l 1,0,-1
EndSplineSet
EndChar

StartChar: six
Encoding: 54 54 325
Width: 1223
Flags: W
LayerCount: 2
Fore
SplineSet
565.595703125 699.641601562 m 128,-1,1
 450.540039062 699.641601562 450.540039062 699.641601562 383.283203125 620.963867188 c 128,-1,2
 316.026367188 542.286132812 316.026367188 542.286132812 316.026367188 405.234375 c 0,3,4
 316.026367188 269.028320312 316.026367188 269.028320312 383.283203125 189.926757812 c 128,-1,5
 450.540039062 110.826171875 450.540039062 110.826171875 565.595703125 110.826171875 c 128,-1,6
 680.65234375 110.826171875 680.65234375 110.826171875 747.909179688 189.926757812 c 128,-1,7
 815.166015625 269.028320312 815.166015625 269.028320312 815.166015625 405.234375 c 0,8,9
 815.166015625 542.286132812 815.166015625 542.286132812 747.909179688 620.963867188 c 128,-1,0
 680.65234375 699.641601562 680.65234375 699.641601562 565.595703125 699.641601562 c 128,-1,1
904.841796875 1235.16015625 m 1,10,-1
 904.841796875 1079.49609375 l 1,11,12
 840.545898438 1109.95214844 840.545898438 1109.95214844 774.981445312 1126.02636719 c 128,-1,13
 709.416015625 1142.09960938 709.416015625 1142.09960938 645.120117188 1142.09960938 c 0,14,15
 475.919921875 1142.09960938 475.919921875 1142.09960938 386.666992188 1027.88964844 c 128,-1,16
 297.4140625 913.6796875 297.4140625 913.6796875 284.723632812 682.721679688 c 1,17,18
 334.637695312 756.32421875 334.637695312 756.32421875 409.931640625 795.663085938 c 128,-1,19
 485.225585938 835.001953125 485.225585938 835.001953125 575.748046875 835.001953125 c 0,20,21
 766.09765625 835.001953125 766.09765625 835.001953125 876.500976562 719.5234375 c 128,-1,22
 986.904296875 604.043945312 986.904296875 604.043945312 986.904296875 405.234375 c 0,23,24
 986.904296875 210.654296875 986.904296875 210.654296875 871.84765625 93.0595703125 c 128,-1,25
 756.791992188 -24.5341796875 756.791992188 -24.5341796875 565.595703125 -24.5341796875 c 0,26,27
 346.482421875 -24.5341796875 346.482421875 -24.5341796875 230.580078125 143.397460938 c 128,-1,28
 114.677734375 311.328125 114.677734375 311.328125 114.677734375 630.26953125 c 0,29,30
 114.677734375 929.75390625 114.677734375 929.75390625 256.805664062 1107.83691406 c 128,-1,31
 398.93359375 1285.91992188 398.93359375 1285.91992188 638.3515625 1285.91992188 c 0,32,33
 702.6484375 1285.91992188 702.6484375 1285.91992188 768.212890625 1273.23046875 c 128,-1,34
 833.778320312 1260.54003906 833.778320312 1260.54003906 904.841796875 1235.16015625 c 1,10,-1
EndSplineSet
EndChar

StartChar: seven
Encoding: 55 55 326
Width: 1223
Flags: W
LayerCount: 2
Fore
SplineSet
142.127929688 1263.078125 m 1,0,-1
 954.288085938 1263.078125 l 1,1,-1
 954.288085938 1190.32226562 l 1,2,-1
 495.755859375 -0 l 1,3,-1
 317.25 -0 l 1,4,-1
 748.709960938 1119.2578125 l 1,5,-1
 142.127929688 1119.2578125 l 1,6,-1
 142.127929688 1263.078125 l 1,0,-1
EndSplineSet
EndChar

StartChar: eight
Encoding: 56 56 327
Width: 1223
Flags: W
LayerCount: 2
Fore
SplineSet
550.74609375 599.814453125 m 0,0,1
 428.921875 599.814453125 428.921875 599.814453125 359.126953125 534.671875 c 128,-1,2
 289.33203125 469.530273438 289.33203125 469.530273438 289.33203125 355.3203125 c 128,-1,3
 289.33203125 241.110351562 289.33203125 241.110351562 359.126953125 175.967773438 c 128,-1,4
 428.921875 110.826171875 428.921875 110.826171875 550.74609375 110.826171875 c 128,-1,5
 672.5703125 110.826171875 672.5703125 110.826171875 742.788085938 176.390625 c 128,-1,6
 813.005859375 241.956054688 813.005859375 241.956054688 813.005859375 355.3203125 c 0,7,8
 813.005859375 469.530273438 813.005859375 469.530273438 743.2109375 534.671875 c 128,-1,9
 673.416015625 599.814453125 673.416015625 599.814453125 550.74609375 599.814453125 c 0,0,1
379.853515625 672.5703125 m 1,10,11
 269.874023438 699.641601562 269.874023438 699.641601562 208.5390625 774.935546875 c 128,-1,12
 147.204101562 850.23046875 147.204101562 850.23046875 147.204101562 958.517578125 c 0,13,14
 147.204101562 1109.95214844 147.204101562 1109.95214844 255.069335938 1197.93554688 c 128,-1,15
 362.93359375 1285.91992188 362.93359375 1285.91992188 550.74609375 1285.91992188 c 0,16,17
 739.404296875 1285.91992188 739.404296875 1285.91992188 846.845703125 1197.93554688 c 128,-1,18
 954.288085938 1109.95214844 954.288085938 1109.95214844 954.288085938 958.517578125 c 0,19,20
 954.288085938 850.23046875 954.288085938 850.23046875 892.953125 774.935546875 c 128,-1,21
 831.618164062 699.641601562 831.618164062 699.641601562 722.484375 672.5703125 c 1,22,23
 846 643.805664062 846 643.805664062 914.94921875 560.051757812 c 128,-1,24
 983.8984375 476.297851562 983.8984375 476.297851562 983.8984375 355.3203125 c 0,25,26
 983.8984375 171.73828125 983.8984375 171.73828125 871.802734375 73.6015625 c 128,-1,27
 759.708007812 -24.5341796875 759.708007812 -24.5341796875 550.74609375 -24.5341796875 c 128,-1,28
 341.784179688 -24.5341796875 341.784179688 -24.5341796875 229.689453125 73.6015625 c 128,-1,29
 117.59375 171.73828125 117.59375 171.73828125 117.59375 355.3203125 c 0,30,31
 117.59375 476.297851562 117.59375 476.297851562 186.965820312 560.051757812 c 128,-1,32
 256.337890625 643.805664062 256.337890625 643.805664062 379.853515625 672.5703125 c 1,10,11
317.25 942.444335938 m 128,-1,34
 317.25 844.307617188 317.25 844.307617188 378.584960938 789.318359375 c 128,-1,35
 439.919921875 734.328125 439.919921875 734.328125 550.74609375 734.328125 c 0,36,37
 660.725585938 734.328125 660.725585938 734.328125 722.907226562 789.318359375 c 128,-1,38
 785.087890625 844.307617188 785.087890625 844.307617188 785.087890625 942.444335938 c 128,-1,39
 785.087890625 1040.58007812 785.087890625 1040.58007812 722.907226562 1095.5703125 c 128,-1,40
 660.725585938 1150.55957031 660.725585938 1150.55957031 550.74609375 1150.55957031 c 0,41,42
 439.919921875 1150.55957031 439.919921875 1150.55957031 378.584960938 1095.5703125 c 128,-1,33
 317.25 1040.58007812 317.25 1040.58007812 317.25 942.444335938 c 128,-1,34
EndSplineSet
EndChar

StartChar: nine
Encoding: 57 57 328
Width: 1223
Flags: W
LayerCount: 2
Fore
SplineSet
195.75 25.505859375 m 1,0,-1
 195.75 181.169921875 l 1,1,2
 260.045898438 150.713867188 260.045898438 150.713867188 326.034179688 134.639648438 c 128,-1,3
 392.022460938 118.56640625 392.022460938 118.56640625 455.471679688 118.56640625 c 0,4,5
 624.671875 118.56640625 624.671875 118.56640625 713.924804688 232.352539062 c 128,-1,6
 803.177734375 346.139648438 803.177734375 346.139648438 815.868164062 577.944335938 c 1,7,8
 766.799804688 505.188476562 766.799804688 505.188476562 691.505859375 466.272460938 c 128,-1,9
 616.211914062 427.356445312 616.211914062 427.356445312 524.84375 427.356445312 c 0,10,11
 335.33984375 427.356445312 335.33984375 427.356445312 224.936523438 541.989257812 c 128,-1,12
 114.534179688 656.622070312 114.534179688 656.622070312 114.534179688 855.431640625 c 0,13,14
 114.534179688 1050.01171875 114.534179688 1050.01171875 229.58984375 1167.60644531 c 128,-1,15
 344.646484375 1285.20019531 344.646484375 1285.20019531 535.841796875 1285.20019531 c 0,16,17
 754.956054688 1285.20019531 754.956054688 1285.20019531 870.434570312 1117.26855469 c 128,-1,18
 985.9140625 949.337890625 985.9140625 949.337890625 985.9140625 629.549804688 c 0,19,20
 985.9140625 330.912109375 985.9140625 330.912109375 844.208984375 152.829101562 c 128,-1,21
 702.50390625 -25.25390625 702.50390625 -25.25390625 463.0859375 -25.25390625 c 0,22,23
 398.790039062 -25.25390625 398.790039062 -25.25390625 332.801757812 -12.564453125 c 128,-1,24
 266.814453125 0.125 266.814453125 0.125 195.75 25.5048828125 c 1,25,-1
 195.75 25.505859375 l 1,0,-1
535.841796875 561.024414062 m 128,-1,27
 650.8984375 561.024414062 650.8984375 561.024414062 718.155273438 639.702148438 c 128,-1,28
 785.412109375 718.379882812 785.412109375 718.379882812 785.412109375 855.431640625 c 0,29,30
 785.412109375 991.637695312 785.412109375 991.637695312 718.155273438 1070.73925781 c 128,-1,31
 650.8984375 1149.83984375 650.8984375 1149.83984375 535.841796875 1149.83984375 c 128,-1,32
 420.786132812 1149.83984375 420.786132812 1149.83984375 353.529296875 1070.73925781 c 128,-1,33
 286.272460938 991.637695312 286.272460938 991.637695312 286.272460938 855.431640625 c 0,34,35
 286.272460938 718.379882812 286.272460938 718.379882812 353.529296875 639.702148438 c 128,-1,26
 420.786132812 561.024414062 420.786132812 561.024414062 535.841796875 561.024414062 c 128,-1,27
EndSplineSet
EndChar

StartChar: uniFEFC
Encoding: 65276 65276 335
Width: 1169
VWidth: 2186
Flags: W
AnchorPoint: "Anchor-9" 202.5 1367.5 baselig 1
AnchorPoint: "Anchor-6" 159 -236.981 baselig 1
AnchorPoint: "Anchor-6" 691.69 -225.481 baselig 0
AnchorPoint: "Anchor-9" 813.69 1380 baselig 0
LayerCount: 2
Fore
SplineSet
163.06 1200.96 m 1,0,-1
 329.94 1200.96 l 1,1,-1
 329.94 204.5 l 1,2,-1
 163.06 204.5 l 1,3,-1
 163.06 1200.96 l 1,0,-1
147.967 178.98 m 1,4,-1
 570.85 178.98 l 2,5,6
 739.29 178.981 739.29 178.981 739.29 406.31 c 2,7,-1
 739.29 1200.96 l 1,8,-1
 906.17 1200.96 l 1,9,-1
 906.17 405.31 l 2,10,11
 906.17 178.98 906.17 178.98 1126.61 178.98 c 2,12,-1
 1193.86 178.98 l 1,13,-1
 1193.86 0 l 1,14,-1
 1067.76 0 l 2,15,16
 920.787 0 920.787 0 832.305 96.3145 c 2,17,-1
 822.607 106.87 l 1,18,-1
 813.045 96.1914 l 2,19,20
 726.908 -1.13298e-05 726.908 -1.13298e-05 585.7 0 c 2,21,-1
 91.5996 0 l 1,22,-1
 91.5996 178.98 l 1,23,-1
 147.967 178.98 l 1,4,-1
EndSplineSet
LCarets2: 1 0
Ligature2: "'rlig' Required Ligatures in Arabic lookup 16 subtable" uniFEE0 uniFE8E
EndChar
